<mxfile host="app.diagrams.net" modified="2021-03-14T09:25:50.328Z" agent="5.0 (Windows NT 10.0; Win64; x64) AppleWebKit/537.36 (KHTML, like Gecko) Chrome/86.0.4240.198 Whale/2.9.115.7 Safari/537.36" etag="qL-zetHQmNCH8m2WtM68" version="14.4.8" type="github">
  <diagram id="RNRmn62PdXfSuUE56ENk" name="Page-1">
    <mxGraphModel dx="2310" dy="5562" grid="1" gridSize="10" guides="1" tooltips="1" connect="1" arrows="1" fold="1" page="1" pageScale="1" pageWidth="827" pageHeight="1169" math="0" shadow="0">
      <root>
        <mxCell id="0" />
        <mxCell id="1" parent="0" />
        <mxCell id="6PFC0uBbz8MOIDidI4Xx-1" value="" style="endArrow=none;html=1;entryX=1;entryY=0;entryDx=0;entryDy=0;exitX=0;exitY=1;exitDx=0;exitDy=0;strokeWidth=8;fillColor=#b0e3e6;fontStyle=1" parent="1" source="6PFC0uBbz8MOIDidI4Xx-19" target="6PFC0uBbz8MOIDidI4Xx-6" edge="1">
          <mxGeometry width="50" height="50" relative="1" as="geometry">
            <mxPoint x="627.3342712474621" y="-2656.715728752538" as="sourcePoint" />
            <mxPoint x="480.76572875253834" y="-2793.2842712474617" as="targetPoint" />
          </mxGeometry>
        </mxCell>
        <mxCell id="6PFC0uBbz8MOIDidI4Xx-2" value="" style="endArrow=none;html=1;entryX=0;entryY=0;entryDx=0;entryDy=0;exitX=1;exitY=1;exitDx=0;exitDy=0;strokeWidth=8;fillColor=#b0e3e6;fontStyle=1" parent="1" source="6PFC0uBbz8MOIDidI4Xx-3" target="6PFC0uBbz8MOIDidI4Xx-6" edge="1">
          <mxGeometry width="50" height="50" relative="1" as="geometry">
            <mxPoint x="509.04999999999995" y="-2805" as="sourcePoint" />
            <mxPoint x="509.04999999999995" y="-2845" as="targetPoint" />
          </mxGeometry>
        </mxCell>
        <mxCell id="6PFC0uBbz8MOIDidI4Xx-3" value="4" style="ellipse;whiteSpace=wrap;html=1;aspect=fixed;fillColor=#b0e3e6;fontSize=25;fontStyle=1" parent="1" vertex="1">
          <mxGeometry x="549.05" y="-2735" width="80" height="80" as="geometry" />
        </mxCell>
        <mxCell id="6PFC0uBbz8MOIDidI4Xx-4" value="" style="endArrow=none;html=1;entryX=0.5;entryY=1;entryDx=0;entryDy=0;exitX=0.5;exitY=0;exitDx=0;exitDy=0;strokeWidth=8;fillColor=#b0e3e6;fontStyle=1" parent="1" source="6PFC0uBbz8MOIDidI4Xx-5" target="6PFC0uBbz8MOIDidI4Xx-6" edge="1">
          <mxGeometry width="50" height="50" relative="1" as="geometry">
            <mxPoint x="579.05" y="-2915" as="sourcePoint" />
            <mxPoint x="480.7657287525379" y="-2793.284271247462" as="targetPoint" />
          </mxGeometry>
        </mxCell>
        <mxCell id="6PFC0uBbz8MOIDidI4Xx-5" value="3" style="ellipse;whiteSpace=wrap;html=1;aspect=fixed;fillColor=#ffcccc;strokeColor=#36393d;fontSize=25;fontStyle=1" parent="1" vertex="1">
          <mxGeometry x="459.05" y="-2935" width="80" height="80" as="geometry" />
        </mxCell>
        <mxCell id="6PFC0uBbz8MOIDidI4Xx-6" value="2" style="ellipse;whiteSpace=wrap;html=1;aspect=fixed;fillColor=#b0e3e6;fontSize=25;fontStyle=1" parent="1" vertex="1">
          <mxGeometry x="459.05" y="-2815" width="80" height="80" as="geometry" />
        </mxCell>
        <mxCell id="6PFC0uBbz8MOIDidI4Xx-7" value="1" style="ellipse;whiteSpace=wrap;html=1;aspect=fixed;fillColor=#b0e3e6;fontSize=25;fontStyle=1" parent="1" vertex="1">
          <mxGeometry x="770" y="-3096" width="60" height="60" as="geometry" />
        </mxCell>
        <mxCell id="6PFC0uBbz8MOIDidI4Xx-8" value="2" style="ellipse;whiteSpace=wrap;html=1;aspect=fixed;fillColor=#b0e3e6;fontSize=25;fontStyle=1" parent="1" vertex="1">
          <mxGeometry x="770" y="-3016" width="60" height="60" as="geometry" />
        </mxCell>
        <mxCell id="6PFC0uBbz8MOIDidI4Xx-9" value="3" style="ellipse;whiteSpace=wrap;html=1;aspect=fixed;fillColor=#ffcccc;strokeColor=#36393d;fontSize=25;fontStyle=1" parent="1" vertex="1">
          <mxGeometry x="770" y="-2936" width="60" height="60" as="geometry" />
        </mxCell>
        <mxCell id="6PFC0uBbz8MOIDidI4Xx-10" value="" style="rounded=0;whiteSpace=wrap;html=1;fillColor=#B2D3E2;" parent="1" vertex="1">
          <mxGeometry x="840" y="-3106" width="80" height="80" as="geometry" />
        </mxCell>
        <mxCell id="6PFC0uBbz8MOIDidI4Xx-11" value="" style="rounded=0;whiteSpace=wrap;html=1;" parent="1" vertex="1">
          <mxGeometry x="920" y="-3106" width="80" height="80" as="geometry" />
        </mxCell>
        <mxCell id="6PFC0uBbz8MOIDidI4Xx-12" value="" style="rounded=0;whiteSpace=wrap;html=1;fillColor=#B2D3E2;" parent="1" vertex="1">
          <mxGeometry x="840" y="-3026" width="80" height="80" as="geometry" />
        </mxCell>
        <mxCell id="6PFC0uBbz8MOIDidI4Xx-13" value="" style="rounded=0;whiteSpace=wrap;html=1;" parent="1" vertex="1">
          <mxGeometry x="920" y="-3026" width="80" height="80" as="geometry" />
        </mxCell>
        <mxCell id="6PFC0uBbz8MOIDidI4Xx-14" value="" style="rounded=0;whiteSpace=wrap;html=1;" parent="1" vertex="1">
          <mxGeometry x="840" y="-2946" width="80" height="80" as="geometry" />
        </mxCell>
        <mxCell id="6PFC0uBbz8MOIDidI4Xx-15" value="" style="rounded=0;whiteSpace=wrap;html=1;fillColor=#B2D3E2;" parent="1" vertex="1">
          <mxGeometry x="920" y="-2946" width="80" height="80" as="geometry" />
        </mxCell>
        <mxCell id="6PFC0uBbz8MOIDidI4Xx-16" value="" style="rounded=0;whiteSpace=wrap;html=1;" parent="1" vertex="1">
          <mxGeometry x="1000" y="-2946" width="80" height="80" as="geometry" />
        </mxCell>
        <mxCell id="6PFC0uBbz8MOIDidI4Xx-17" value="" style="rounded=0;whiteSpace=wrap;html=1;fillColor=#B2D3E2;" parent="1" vertex="1">
          <mxGeometry x="1080" y="-2946" width="80" height="80" as="geometry" />
        </mxCell>
        <mxCell id="6PFC0uBbz8MOIDidI4Xx-18" value="" style="rounded=0;whiteSpace=wrap;html=1;" parent="1" vertex="1">
          <mxGeometry x="1080" y="-3026" width="80" height="80" as="geometry" />
        </mxCell>
        <mxCell id="6PFC0uBbz8MOIDidI4Xx-19" value="1" style="ellipse;whiteSpace=wrap;html=1;aspect=fixed;fillColor=#b0e3e6;fontSize=25;fontStyle=1" parent="1" vertex="1">
          <mxGeometry x="369.05" y="-2735" width="80" height="80" as="geometry" />
        </mxCell>
        <mxCell id="6PFC0uBbz8MOIDidI4Xx-20" value="" style="rounded=0;whiteSpace=wrap;html=1;" parent="1" vertex="1">
          <mxGeometry x="1080" y="-2866" width="80" height="80" as="geometry" />
        </mxCell>
        <mxCell id="6PFC0uBbz8MOIDidI4Xx-21" value="" style="rounded=0;whiteSpace=wrap;html=1;" parent="1" vertex="1">
          <mxGeometry x="920" y="-2866" width="80" height="80" as="geometry" />
        </mxCell>
        <mxCell id="6PFC0uBbz8MOIDidI4Xx-22" value="4" style="ellipse;whiteSpace=wrap;html=1;aspect=fixed;fillColor=#b0e3e6;fontSize=25;fontStyle=1" parent="1" vertex="1">
          <mxGeometry x="770" y="-2856" width="60" height="60" as="geometry" />
        </mxCell>
        <mxCell id="6PFC0uBbz8MOIDidI4Xx-23" value="" style="rounded=0;whiteSpace=wrap;html=1;fillColor=#B2D3E2;" parent="1" vertex="1">
          <mxGeometry x="840" y="-2866" width="80" height="80" as="geometry" />
        </mxCell>
        <mxCell id="6PFC0uBbz8MOIDidI4Xx-24" value="" style="rounded=0;whiteSpace=wrap;html=1;fillColor=#B2D3E2;" parent="1" vertex="1">
          <mxGeometry x="1000" y="-3106" width="80" height="80" as="geometry" />
        </mxCell>
        <mxCell id="6PFC0uBbz8MOIDidI4Xx-25" value="" style="rounded=0;whiteSpace=wrap;html=1;fillColor=#B2D3E2;" parent="1" vertex="1">
          <mxGeometry x="1000" y="-3026" width="80" height="80" as="geometry" />
        </mxCell>
        <mxCell id="6PFC0uBbz8MOIDidI4Xx-26" value="" style="rounded=0;whiteSpace=wrap;html=1;fillColor=#B2D3E2;" parent="1" vertex="1">
          <mxGeometry x="1000" y="-2866" width="80" height="80" as="geometry" />
        </mxCell>
        <mxCell id="6PFC0uBbz8MOIDidI4Xx-27" value="C" style="rounded=1;whiteSpace=wrap;html=1;fillColor=#fff2cc;fontSize=25;fontStyle=1;" parent="1" vertex="1">
          <mxGeometry x="850" y="-3176" width="60" height="60" as="geometry" />
        </mxCell>
        <mxCell id="6PFC0uBbz8MOIDidI4Xx-28" value="O" style="rounded=1;whiteSpace=wrap;html=1;fillColor=#fff2cc;fontSize=25;fontStyle=1;" parent="1" vertex="1">
          <mxGeometry x="930" y="-3176" width="60" height="60" as="geometry" />
        </mxCell>
        <mxCell id="6PFC0uBbz8MOIDidI4Xx-29" value="H" style="rounded=1;whiteSpace=wrap;html=1;fillColor=#fff2cc;fontSize=25;fontStyle=1;" parent="1" vertex="1">
          <mxGeometry x="1010" y="-3176" width="60" height="60" as="geometry" />
        </mxCell>
        <mxCell id="6PFC0uBbz8MOIDidI4Xx-30" value="X" style="rounded=1;whiteSpace=wrap;html=1;fillColor=#fff2cc;fontSize=25;fontStyle=1;" parent="1" vertex="1">
          <mxGeometry x="1090" y="-3176" width="60" height="60" as="geometry" />
        </mxCell>
        <mxCell id="6PFC0uBbz8MOIDidI4Xx-31" value="" style="rounded=0;whiteSpace=wrap;html=1;" parent="1" vertex="1">
          <mxGeometry x="1080" y="-3106" width="80" height="80" as="geometry" />
        </mxCell>
        <mxCell id="6PFC0uBbz8MOIDidI4Xx-33" value="1" style="ellipse;whiteSpace=wrap;html=1;aspect=fixed;fillColor=#b0e3e6;fontSize=25;fontStyle=1" parent="1" vertex="1">
          <mxGeometry x="1241" y="-3096" width="60" height="60" as="geometry" />
        </mxCell>
        <mxCell id="6PFC0uBbz8MOIDidI4Xx-34" value="2" style="ellipse;whiteSpace=wrap;html=1;aspect=fixed;fillColor=#b0e3e6;fontSize=25;fontStyle=1" parent="1" vertex="1">
          <mxGeometry x="1241" y="-3016" width="60" height="60" as="geometry" />
        </mxCell>
        <mxCell id="6PFC0uBbz8MOIDidI4Xx-35" value="3" style="ellipse;whiteSpace=wrap;html=1;aspect=fixed;fillColor=#ffcccc;strokeColor=#36393d;fontSize=25;fontStyle=1" parent="1" vertex="1">
          <mxGeometry x="1241" y="-2936" width="60" height="60" as="geometry" />
        </mxCell>
        <mxCell id="6PFC0uBbz8MOIDidI4Xx-36" value="" style="rounded=0;whiteSpace=wrap;html=1;fillColor=#B2D3E2;" parent="1" vertex="1">
          <mxGeometry x="1311" y="-3106" width="80" height="80" as="geometry" />
        </mxCell>
        <mxCell id="6PFC0uBbz8MOIDidI4Xx-37" value="4" style="ellipse;whiteSpace=wrap;html=1;aspect=fixed;fillColor=#b0e3e6;fontSize=25;fontStyle=1" parent="1" vertex="1">
          <mxGeometry x="1241" y="-2856" width="60" height="60" as="geometry" />
        </mxCell>
        <mxCell id="6PFC0uBbz8MOIDidI4Xx-38" value="" style="rounded=0;whiteSpace=wrap;html=1;" parent="1" vertex="1">
          <mxGeometry x="1551" y="-3106" width="80" height="80" as="geometry" />
        </mxCell>
        <mxCell id="6PFC0uBbz8MOIDidI4Xx-39" value="1" style="ellipse;whiteSpace=wrap;html=1;aspect=fixed;fillColor=#b0e3e6;fontSize=25;fontStyle=1" parent="1" vertex="1">
          <mxGeometry x="1321" y="-3176" width="60" height="60" as="geometry" />
        </mxCell>
        <mxCell id="6PFC0uBbz8MOIDidI4Xx-40" value="2" style="ellipse;whiteSpace=wrap;html=1;aspect=fixed;fillColor=#b0e3e6;fontSize=25;fontStyle=1" parent="1" vertex="1">
          <mxGeometry x="1401" y="-3176" width="60" height="60" as="geometry" />
        </mxCell>
        <mxCell id="6PFC0uBbz8MOIDidI4Xx-41" value="3" style="ellipse;whiteSpace=wrap;html=1;aspect=fixed;fillColor=#ffcccc;strokeColor=#36393d;fontSize=25;fontStyle=1" parent="1" vertex="1">
          <mxGeometry x="1481" y="-3176" width="60" height="60" as="geometry" />
        </mxCell>
        <mxCell id="6PFC0uBbz8MOIDidI4Xx-42" value="4" style="ellipse;whiteSpace=wrap;html=1;aspect=fixed;fillColor=#b0e3e6;fontSize=25;fontStyle=1" parent="1" vertex="1">
          <mxGeometry x="1561" y="-3176" width="60" height="60" as="geometry" />
        </mxCell>
        <mxCell id="6PFC0uBbz8MOIDidI4Xx-43" value="" style="rounded=0;whiteSpace=wrap;html=1;fillColor=#B2D3E2;" parent="1" vertex="1">
          <mxGeometry x="1391" y="-3026" width="80" height="80" as="geometry" />
        </mxCell>
        <mxCell id="6PFC0uBbz8MOIDidI4Xx-44" value="" style="rounded=0;whiteSpace=wrap;html=1;fillColor=#B2D3E2;" parent="1" vertex="1">
          <mxGeometry x="1471" y="-2946" width="80" height="80" as="geometry" />
        </mxCell>
        <mxCell id="6PFC0uBbz8MOIDidI4Xx-45" value="" style="rounded=0;whiteSpace=wrap;html=1;fillColor=#B2D3E2;" parent="1" vertex="1">
          <mxGeometry x="1551" y="-2866" width="80" height="80" as="geometry" />
        </mxCell>
        <mxCell id="6PFC0uBbz8MOIDidI4Xx-46" value="" style="rounded=0;whiteSpace=wrap;html=1;fillColor=#B2D3E2;" parent="1" vertex="1">
          <mxGeometry x="1391" y="-3106" width="80" height="80" as="geometry" />
        </mxCell>
        <mxCell id="6PFC0uBbz8MOIDidI4Xx-47" value="" style="rounded=0;whiteSpace=wrap;html=1;fillColor=#B2D3E2;" parent="1" vertex="1">
          <mxGeometry x="1311" y="-3026" width="80" height="80" as="geometry" />
        </mxCell>
        <mxCell id="6PFC0uBbz8MOIDidI4Xx-48" value="" style="rounded=0;whiteSpace=wrap;html=1;fillColor=#B2D3E2;" parent="1" vertex="1">
          <mxGeometry x="1471" y="-3026" width="80" height="80" as="geometry" />
        </mxCell>
        <mxCell id="6PFC0uBbz8MOIDidI4Xx-49" value="" style="rounded=0;whiteSpace=wrap;html=1;fillColor=#B2D3E2;" parent="1" vertex="1">
          <mxGeometry x="1391" y="-2946" width="80" height="80" as="geometry" />
        </mxCell>
        <mxCell id="6PFC0uBbz8MOIDidI4Xx-50" value="" style="rounded=0;whiteSpace=wrap;html=1;fillColor=#B2D3E2;" parent="1" vertex="1">
          <mxGeometry x="1551" y="-3026" width="80" height="80" as="geometry" />
        </mxCell>
        <mxCell id="6PFC0uBbz8MOIDidI4Xx-51" value="" style="rounded=0;whiteSpace=wrap;html=1;fillColor=#B2D3E2;" parent="1" vertex="1">
          <mxGeometry x="1391" y="-2866" width="80" height="80" as="geometry" />
        </mxCell>
        <mxCell id="6PFC0uBbz8MOIDidI4Xx-52" value="" style="rounded=0;whiteSpace=wrap;html=1;" parent="1" vertex="1">
          <mxGeometry x="1471" y="-3106" width="80" height="80" as="geometry" />
        </mxCell>
        <mxCell id="6PFC0uBbz8MOIDidI4Xx-53" value="" style="rounded=0;whiteSpace=wrap;html=1;" parent="1" vertex="1">
          <mxGeometry x="1311" y="-2946" width="80" height="80" as="geometry" />
        </mxCell>
        <mxCell id="6PFC0uBbz8MOIDidI4Xx-54" value="" style="rounded=0;whiteSpace=wrap;html=1;" parent="1" vertex="1">
          <mxGeometry x="1311" y="-2866" width="80" height="80" as="geometry" />
        </mxCell>
        <mxCell id="6PFC0uBbz8MOIDidI4Xx-55" value="" style="rounded=0;whiteSpace=wrap;html=1;" parent="1" vertex="1">
          <mxGeometry x="1551" y="-2946" width="80" height="80" as="geometry" />
        </mxCell>
        <mxCell id="6PFC0uBbz8MOIDidI4Xx-56" value="" style="rounded=0;whiteSpace=wrap;html=1;" parent="1" vertex="1">
          <mxGeometry x="1471" y="-2866" width="80" height="80" as="geometry" />
        </mxCell>
        <mxCell id="6PFC0uBbz8MOIDidI4Xx-57" value="&lt;font style=&quot;font-size: 32px&quot;&gt;&lt;b&gt;Feature matrix&lt;/b&gt;&lt;/font&gt;" style="text;html=1;strokeColor=none;fillColor=none;align=center;verticalAlign=middle;whiteSpace=wrap;rounded=0;" parent="1" vertex="1">
          <mxGeometry x="840" y="-3226" width="320" height="40" as="geometry" />
        </mxCell>
        <mxCell id="6PFC0uBbz8MOIDidI4Xx-58" value="&lt;font&gt;&lt;span style=&quot;font-size: 32px&quot;&gt;&lt;b&gt;Adjacency&lt;/b&gt;&lt;/span&gt;&lt;b style=&quot;font-size: 32px&quot;&gt;&amp;nbsp;matrix&lt;/b&gt;&lt;/font&gt;" style="text;html=1;strokeColor=none;fillColor=none;align=center;verticalAlign=middle;whiteSpace=wrap;rounded=0;" parent="1" vertex="1">
          <mxGeometry x="1311" y="-3226" width="320" height="40" as="geometry" />
        </mxCell>
        <mxCell id="6PFC0uBbz8MOIDidI4Xx-59" value="&lt;span style=&quot;font-size: 32px&quot;&gt;&lt;b&gt;Edge Index&lt;/b&gt;&lt;/span&gt;" style="text;html=1;strokeColor=none;fillColor=none;align=center;verticalAlign=middle;whiteSpace=wrap;rounded=0;" parent="1" vertex="1">
          <mxGeometry x="-26" y="-2170" width="320" height="40" as="geometry" />
        </mxCell>
        <mxCell id="6PFC0uBbz8MOIDidI4Xx-60" value="" style="rounded=0;whiteSpace=wrap;html=1;" parent="1" vertex="1">
          <mxGeometry x="254" y="-2110" width="80" height="80" as="geometry" />
        </mxCell>
        <mxCell id="6PFC0uBbz8MOIDidI4Xx-61" value="" style="rounded=0;whiteSpace=wrap;html=1;" parent="1" vertex="1">
          <mxGeometry x="254" y="-2030" width="80" height="80" as="geometry" />
        </mxCell>
        <mxCell id="6PFC0uBbz8MOIDidI4Xx-62" value="" style="rounded=0;whiteSpace=wrap;html=1;" parent="1" vertex="1">
          <mxGeometry x="334" y="-2110" width="80" height="80" as="geometry" />
        </mxCell>
        <mxCell id="6PFC0uBbz8MOIDidI4Xx-63" value="" style="rounded=0;whiteSpace=wrap;html=1;" parent="1" vertex="1">
          <mxGeometry x="334" y="-2030" width="80" height="80" as="geometry" />
        </mxCell>
        <mxCell id="6PFC0uBbz8MOIDidI4Xx-64" value="" style="rounded=0;whiteSpace=wrap;html=1;" parent="1" vertex="1">
          <mxGeometry x="94" y="-2110" width="80" height="80" as="geometry" />
        </mxCell>
        <mxCell id="6PFC0uBbz8MOIDidI4Xx-65" value="" style="rounded=0;whiteSpace=wrap;html=1;" parent="1" vertex="1">
          <mxGeometry x="94" y="-2030" width="80" height="80" as="geometry" />
        </mxCell>
        <mxCell id="6PFC0uBbz8MOIDidI4Xx-66" value="" style="rounded=0;whiteSpace=wrap;html=1;" parent="1" vertex="1">
          <mxGeometry x="174" y="-2110" width="80" height="80" as="geometry" />
        </mxCell>
        <mxCell id="6PFC0uBbz8MOIDidI4Xx-67" value="" style="rounded=0;whiteSpace=wrap;html=1;" parent="1" vertex="1">
          <mxGeometry x="174" y="-2030" width="80" height="80" as="geometry" />
        </mxCell>
        <mxCell id="6PFC0uBbz8MOIDidI4Xx-68" value="" style="rounded=0;whiteSpace=wrap;html=1;" parent="1" vertex="1">
          <mxGeometry x="-66" y="-2110" width="80" height="80" as="geometry" />
        </mxCell>
        <mxCell id="6PFC0uBbz8MOIDidI4Xx-69" value="" style="rounded=0;whiteSpace=wrap;html=1;" parent="1" vertex="1">
          <mxGeometry x="-66" y="-2030" width="80" height="80" as="geometry" />
        </mxCell>
        <mxCell id="6PFC0uBbz8MOIDidI4Xx-70" value="" style="rounded=0;whiteSpace=wrap;html=1;" parent="1" vertex="1">
          <mxGeometry x="14" y="-2110" width="80" height="80" as="geometry" />
        </mxCell>
        <mxCell id="6PFC0uBbz8MOIDidI4Xx-71" value="" style="rounded=0;whiteSpace=wrap;html=1;" parent="1" vertex="1">
          <mxGeometry x="14" y="-2030" width="80" height="80" as="geometry" />
        </mxCell>
        <mxCell id="6PFC0uBbz8MOIDidI4Xx-72" style="edgeStyle=orthogonalEdgeStyle;rounded=0;orthogonalLoop=1;jettySize=auto;html=1;entryX=0;entryY=0.5;entryDx=0;entryDy=0;" parent="1" source="6PFC0uBbz8MOIDidI4Xx-73" target="6PFC0uBbz8MOIDidI4Xx-74" edge="1">
          <mxGeometry relative="1" as="geometry">
            <Array as="points">
              <mxPoint x="-166" y="-2070" />
              <mxPoint x="-166" y="-1990" />
            </Array>
          </mxGeometry>
        </mxCell>
        <mxCell id="6PFC0uBbz8MOIDidI4Xx-73" value="&#xa;&#xa;&lt;span style=&quot;color: rgb(0, 0, 0); font-family: helvetica; font-size: 25px; font-style: normal; font-weight: 700; letter-spacing: normal; text-align: center; text-indent: 0px; text-transform: none; word-spacing: 0px; background-color: rgb(248, 249, 250); display: inline; float: none;&quot;&gt;Start&lt;/span&gt;&#xa;&#xa;" style="rounded=0;whiteSpace=wrap;html=1;" parent="1" vertex="1">
          <mxGeometry x="-146" y="-2110" width="80" height="80" as="geometry" />
        </mxCell>
        <mxCell id="6PFC0uBbz8MOIDidI4Xx-74" value="&#xa;&#xa;&lt;span style=&quot;color: rgb(0, 0, 0); font-family: helvetica; font-size: 25px; font-style: normal; font-weight: 700; letter-spacing: normal; text-align: center; text-indent: 0px; text-transform: none; word-spacing: 0px; background-color: rgb(248, 249, 250); display: inline; float: none;&quot;&gt;End&lt;/span&gt;&#xa;&#xa;" style="rounded=0;whiteSpace=wrap;html=1;" parent="1" vertex="1">
          <mxGeometry x="-146" y="-2030" width="80" height="80" as="geometry" />
        </mxCell>
        <mxCell id="6PFC0uBbz8MOIDidI4Xx-75" value="1" style="ellipse;whiteSpace=wrap;html=1;aspect=fixed;fillColor=#b0e3e6;fontSize=25;fontStyle=1" parent="1" vertex="1">
          <mxGeometry x="-56" y="-2100" width="60" height="60" as="geometry" />
        </mxCell>
        <mxCell id="6PFC0uBbz8MOIDidI4Xx-76" value="2" style="ellipse;whiteSpace=wrap;html=1;aspect=fixed;fillColor=#b0e3e6;fontSize=25;fontStyle=1" parent="1" vertex="1">
          <mxGeometry x="24" y="-2100" width="60" height="60" as="geometry" />
        </mxCell>
        <mxCell id="6PFC0uBbz8MOIDidI4Xx-77" value="2" style="ellipse;whiteSpace=wrap;html=1;aspect=fixed;fillColor=#b0e3e6;fontSize=25;fontStyle=1" parent="1" vertex="1">
          <mxGeometry x="104" y="-2100" width="60" height="60" as="geometry" />
        </mxCell>
        <mxCell id="6PFC0uBbz8MOIDidI4Xx-78" value="2" style="ellipse;whiteSpace=wrap;html=1;aspect=fixed;fillColor=#b0e3e6;fontSize=25;fontStyle=1" parent="1" vertex="1">
          <mxGeometry x="-56" y="-2020" width="60" height="60" as="geometry" />
        </mxCell>
        <mxCell id="6PFC0uBbz8MOIDidI4Xx-79" value="2" style="ellipse;whiteSpace=wrap;html=1;aspect=fixed;fillColor=#b0e3e6;fontSize=25;fontStyle=1" parent="1" vertex="1">
          <mxGeometry x="184" y="-2020" width="60" height="60" as="geometry" />
        </mxCell>
        <mxCell id="6PFC0uBbz8MOIDidI4Xx-80" value="2" style="ellipse;whiteSpace=wrap;html=1;aspect=fixed;fillColor=#b0e3e6;fontSize=25;fontStyle=1" parent="1" vertex="1">
          <mxGeometry x="264" y="-2100" width="60" height="60" as="geometry" />
        </mxCell>
        <mxCell id="6PFC0uBbz8MOIDidI4Xx-81" value="2" style="ellipse;whiteSpace=wrap;html=1;aspect=fixed;fillColor=#b0e3e6;fontSize=25;fontStyle=1" parent="1" vertex="1">
          <mxGeometry x="344" y="-2020" width="60" height="60" as="geometry" />
        </mxCell>
        <mxCell id="6PFC0uBbz8MOIDidI4Xx-82" value="1" style="ellipse;whiteSpace=wrap;html=1;aspect=fixed;fillColor=#b0e3e6;fontSize=25;fontStyle=1" parent="1" vertex="1">
          <mxGeometry x="24" y="-2020" width="60" height="60" as="geometry" />
        </mxCell>
        <mxCell id="6PFC0uBbz8MOIDidI4Xx-83" value="3" style="ellipse;whiteSpace=wrap;html=1;aspect=fixed;fillColor=#ffcccc;strokeColor=#36393d;fontSize=25;fontStyle=1" parent="1" vertex="1">
          <mxGeometry x="184" y="-2100" width="60" height="60" as="geometry" />
        </mxCell>
        <mxCell id="6PFC0uBbz8MOIDidI4Xx-84" value="3" style="ellipse;whiteSpace=wrap;html=1;aspect=fixed;fillColor=#ffcccc;strokeColor=#36393d;fontSize=25;fontStyle=1" parent="1" vertex="1">
          <mxGeometry x="104" y="-2020" width="60" height="60" as="geometry" />
        </mxCell>
        <mxCell id="6PFC0uBbz8MOIDidI4Xx-85" value="4" style="ellipse;whiteSpace=wrap;html=1;aspect=fixed;fillColor=#b0e3e6;fontSize=25;fontStyle=1" parent="1" vertex="1">
          <mxGeometry x="344" y="-2100" width="60" height="60" as="geometry" />
        </mxCell>
        <mxCell id="6PFC0uBbz8MOIDidI4Xx-86" value="4" style="ellipse;whiteSpace=wrap;html=1;aspect=fixed;fillColor=#b0e3e6;fontSize=25;fontStyle=1" parent="1" vertex="1">
          <mxGeometry x="264" y="-2020" width="60" height="60" as="geometry" />
        </mxCell>
        <mxCell id="6PFC0uBbz8MOIDidI4Xx-87" value="" style="endArrow=none;html=1;strokeColor=#000000;strokeWidth=1;" parent="1" edge="1">
          <mxGeometry width="50" height="50" relative="1" as="geometry">
            <mxPoint x="720" y="-2640" as="sourcePoint" />
            <mxPoint x="720" y="-3320" as="targetPoint" />
          </mxGeometry>
        </mxCell>
        <mxCell id="6PFC0uBbz8MOIDidI4Xx-88" value="" style="rounded=1;whiteSpace=wrap;html=1;fillColor=none;arcSize=6;" parent="1" vertex="1">
          <mxGeometry x="280" y="-3320" width="1440" height="680" as="geometry" />
        </mxCell>
        <mxCell id="6PFC0uBbz8MOIDidI4Xx-89" value="&lt;font style=&quot;font-size: 32px&quot;&gt;&lt;b&gt;Molecule&lt;/b&gt;&lt;/font&gt;" style="text;html=1;strokeColor=none;fillColor=none;align=center;verticalAlign=middle;whiteSpace=wrap;rounded=0;" parent="1" vertex="1">
          <mxGeometry x="339" y="-3304.3" width="320" height="40" as="geometry" />
        </mxCell>
        <mxCell id="6PFC0uBbz8MOIDidI4Xx-90" value="&lt;font style=&quot;font-size: 32px&quot;&gt;&lt;b&gt;Graph&lt;/b&gt;&lt;/font&gt;" style="text;html=1;strokeColor=none;fillColor=none;align=center;verticalAlign=middle;whiteSpace=wrap;rounded=0;" parent="1" vertex="1">
          <mxGeometry x="339" y="-2985" width="320" height="40" as="geometry" />
        </mxCell>
        <mxCell id="6PFC0uBbz8MOIDidI4Xx-91" style="edgeStyle=orthogonalEdgeStyle;rounded=0;orthogonalLoop=1;jettySize=auto;html=1;exitX=1;exitY=0.5;exitDx=0;exitDy=0;entryX=0;entryY=0.5;entryDx=0;entryDy=0;fontStyle=1;endArrow=blockThin;endFill=1;fontSize=32;strokeWidth=2;" parent="1" source="6PFC0uBbz8MOIDidI4Xx-92" target="6PFC0uBbz8MOIDidI4Xx-98" edge="1">
          <mxGeometry relative="1" as="geometry">
            <mxPoint x="2520" y="-2850" as="sourcePoint" />
          </mxGeometry>
        </mxCell>
        <mxCell id="6PFC0uBbz8MOIDidI4Xx-92" value="CCCC" style="rounded=1;whiteSpace=wrap;html=1;fontSize=32;glass=0;strokeWidth=1;shadow=0;fillColor=#dae8fc;fontStyle=1" parent="1" vertex="1">
          <mxGeometry x="2060" y="-2880" width="240" height="200" as="geometry" />
        </mxCell>
        <mxCell id="6PFC0uBbz8MOIDidI4Xx-93" style="edgeStyle=orthogonalEdgeStyle;rounded=0;orthogonalLoop=1;jettySize=auto;html=1;exitX=1;exitY=0.5;exitDx=0;exitDy=0;fontStyle=1;endArrow=blockThin;endFill=1;fontSize=32;strokeWidth=2;" parent="1" source="6PFC0uBbz8MOIDidI4Xx-94" target="6PFC0uBbz8MOIDidI4Xx-102" edge="1">
          <mxGeometry relative="1" as="geometry" />
        </mxCell>
        <mxCell id="6PFC0uBbz8MOIDidI4Xx-94" value="" style="rounded=1;whiteSpace=wrap;html=1;fontSize=32;glass=0;strokeWidth=1;shadow=0;fillColor=#d5e8d4;fontStyle=1" parent="1" vertex="1">
          <mxGeometry x="2340" y="-2600" width="240" height="200" as="geometry" />
        </mxCell>
        <mxCell id="6PFC0uBbz8MOIDidI4Xx-95" style="edgeStyle=orthogonalEdgeStyle;rounded=0;orthogonalLoop=1;jettySize=auto;html=1;exitX=1;exitY=0.5;exitDx=0;exitDy=0;entryX=0;entryY=0.5;entryDx=0;entryDy=0;fontStyle=1;endArrow=blockThin;endFill=1;fontSize=32;strokeWidth=2;" parent="1" source="6PFC0uBbz8MOIDidI4Xx-96" target="6PFC0uBbz8MOIDidI4Xx-94" edge="1">
          <mxGeometry relative="1" as="geometry">
            <mxPoint x="2520" y="-2770" as="sourcePoint" />
          </mxGeometry>
        </mxCell>
        <mxCell id="6PFC0uBbz8MOIDidI4Xx-96" value="CC(=O)C" style="rounded=1;whiteSpace=wrap;html=1;fontSize=32;glass=0;strokeWidth=1;shadow=0;fillColor=#dae8fc;fontStyle=1" parent="1" vertex="1">
          <mxGeometry x="2060" y="-2600" width="240" height="200" as="geometry" />
        </mxCell>
        <mxCell id="6PFC0uBbz8MOIDidI4Xx-97" style="edgeStyle=orthogonalEdgeStyle;rounded=0;orthogonalLoop=1;jettySize=auto;html=1;entryX=0;entryY=0.5;entryDx=0;entryDy=0;fontSize=32;endArrow=blockThin;endFill=1;strokeWidth=2;" parent="1" source="6PFC0uBbz8MOIDidI4Xx-98" target="6PFC0uBbz8MOIDidI4Xx-100" edge="1">
          <mxGeometry relative="1" as="geometry" />
        </mxCell>
        <mxCell id="6PFC0uBbz8MOIDidI4Xx-98" value="" style="rounded=1;whiteSpace=wrap;html=1;fontSize=32;glass=0;strokeWidth=1;shadow=0;fillColor=#d5e8d4;fontStyle=1" parent="1" vertex="1">
          <mxGeometry x="2340" y="-2880" width="240" height="200" as="geometry" />
        </mxCell>
        <mxCell id="6PFC0uBbz8MOIDidI4Xx-99" style="edgeStyle=orthogonalEdgeStyle;curved=1;rounded=0;orthogonalLoop=1;jettySize=auto;html=1;entryX=0;entryY=0.208;entryDx=0;entryDy=0;entryPerimeter=0;endArrow=blockThin;endFill=1;fontSize=32;strokeWidth=2;" parent="1" source="6PFC0uBbz8MOIDidI4Xx-100" target="6PFC0uBbz8MOIDidI4Xx-104" edge="1">
          <mxGeometry relative="1" as="geometry" />
        </mxCell>
        <mxCell id="6PFC0uBbz8MOIDidI4Xx-100" value="" style="rounded=1;whiteSpace=wrap;html=1;fontSize=32;glass=0;strokeWidth=1;shadow=0;fillColor=#fff2cc;fontStyle=1" parent="1" vertex="1">
          <mxGeometry x="2620" y="-2880" width="240" height="200" as="geometry" />
        </mxCell>
        <mxCell id="6PFC0uBbz8MOIDidI4Xx-101" style="edgeStyle=orthogonalEdgeStyle;curved=1;rounded=0;orthogonalLoop=1;jettySize=auto;html=1;entryX=0;entryY=0.792;entryDx=0;entryDy=0;entryPerimeter=0;endArrow=blockThin;endFill=1;fontSize=32;strokeWidth=2;" parent="1" source="6PFC0uBbz8MOIDidI4Xx-102" target="6PFC0uBbz8MOIDidI4Xx-104" edge="1">
          <mxGeometry relative="1" as="geometry" />
        </mxCell>
        <mxCell id="6PFC0uBbz8MOIDidI4Xx-102" value="" style="rounded=1;whiteSpace=wrap;html=1;fontSize=32;glass=0;strokeWidth=1;shadow=0;fillColor=#fff2cc;fontStyle=1" parent="1" vertex="1">
          <mxGeometry x="2620" y="-2600" width="240" height="200" as="geometry" />
        </mxCell>
        <mxCell id="6PFC0uBbz8MOIDidI4Xx-103" style="edgeStyle=orthogonalEdgeStyle;curved=1;rounded=0;orthogonalLoop=1;jettySize=auto;html=1;entryX=0;entryY=0.5;entryDx=0;entryDy=0;endArrow=blockThin;endFill=1;fontSize=32;strokeWidth=2;" parent="1" source="6PFC0uBbz8MOIDidI4Xx-104" target="6PFC0uBbz8MOIDidI4Xx-106" edge="1">
          <mxGeometry relative="1" as="geometry" />
        </mxCell>
        <mxCell id="6PFC0uBbz8MOIDidI4Xx-104" value="" style="rounded=1;whiteSpace=wrap;html=1;fontSize=32;glass=0;strokeWidth=1;shadow=0;fillColor=#e1d5e7;fontStyle=1" parent="1" vertex="1">
          <mxGeometry x="2900" y="-2880" width="160" height="480" as="geometry" />
        </mxCell>
        <mxCell id="6PFC0uBbz8MOIDidI4Xx-105" style="edgeStyle=orthogonalEdgeStyle;rounded=0;orthogonalLoop=1;jettySize=auto;html=1;entryX=0;entryY=0.5;entryDx=0;entryDy=0;fontStyle=1;endArrow=blockThin;endFill=1;fontSize=32;strokeWidth=2;" parent="1" source="6PFC0uBbz8MOIDidI4Xx-106" target="6PFC0uBbz8MOIDidI4Xx-107" edge="1">
          <mxGeometry relative="1" as="geometry" />
        </mxCell>
        <mxCell id="6PFC0uBbz8MOIDidI4Xx-106" value="" style="rounded=1;whiteSpace=wrap;html=1;fontSize=32;glass=0;strokeWidth=1;shadow=0;fillColor=#ffe6cc;fontStyle=1" parent="1" vertex="1">
          <mxGeometry x="3100" y="-2740" width="240" height="200" as="geometry" />
        </mxCell>
        <mxCell id="6PFC0uBbz8MOIDidI4Xx-107" value="logS" style="rounded=1;whiteSpace=wrap;html=1;fontSize=32;glass=0;strokeWidth=1;shadow=0;fillColor=#b1ddf0;fontStyle=1" parent="1" vertex="1">
          <mxGeometry x="3380" y="-2740" width="240" height="200" as="geometry" />
        </mxCell>
        <mxCell id="6PFC0uBbz8MOIDidI4Xx-108" value="" style="endArrow=none;html=1;exitX=0;exitY=1;exitDx=0;exitDy=0;entryX=1;entryY=0;entryDx=0;entryDy=0;fillColor=#d5e8d4;" parent="1" source="6PFC0uBbz8MOIDidI4Xx-114" target="6PFC0uBbz8MOIDidI4Xx-113" edge="1">
          <mxGeometry width="50" height="50" relative="1" as="geometry">
            <mxPoint x="2530" y="-2690" as="sourcePoint" />
            <mxPoint x="2580" y="-2740" as="targetPoint" />
          </mxGeometry>
        </mxCell>
        <mxCell id="6PFC0uBbz8MOIDidI4Xx-109" value="" style="endArrow=none;html=1;exitX=1;exitY=1;exitDx=0;exitDy=0;entryX=0;entryY=0;entryDx=0;entryDy=0;fillColor=#d5e8d4;" parent="1" source="6PFC0uBbz8MOIDidI4Xx-112" target="6PFC0uBbz8MOIDidI4Xx-113" edge="1">
          <mxGeometry width="50" height="50" relative="1" as="geometry">
            <mxPoint x="2414.393398282202" y="-2744.393398282202" as="sourcePoint" />
            <mxPoint x="2465.606601717798" y="-2795.606601717798" as="targetPoint" />
          </mxGeometry>
        </mxCell>
        <mxCell id="6PFC0uBbz8MOIDidI4Xx-110" value="" style="endArrow=none;html=1;exitX=0;exitY=1;exitDx=0;exitDy=0;entryX=1;entryY=0;entryDx=0;entryDy=0;fillColor=#d5e8d4;" parent="1" source="6PFC0uBbz8MOIDidI4Xx-112" target="6PFC0uBbz8MOIDidI4Xx-111" edge="1">
          <mxGeometry width="50" height="50" relative="1" as="geometry">
            <mxPoint x="2414.393398282202" y="-2744.393398282202" as="sourcePoint" />
            <mxPoint x="2465.606601717798" y="-2795.606601717798" as="targetPoint" />
          </mxGeometry>
        </mxCell>
        <mxCell id="6PFC0uBbz8MOIDidI4Xx-111" value="" style="ellipse;whiteSpace=wrap;html=1;aspect=fixed;fillColor=#EAFFE9;" parent="1" vertex="1">
          <mxGeometry x="2490" y="-2810" width="30" height="30" as="geometry" />
        </mxCell>
        <mxCell id="6PFC0uBbz8MOIDidI4Xx-112" value="" style="ellipse;whiteSpace=wrap;html=1;aspect=fixed;fillColor=#EAFFE9;" parent="1" vertex="1">
          <mxGeometry x="2460" y="-2780" width="30" height="30" as="geometry" />
        </mxCell>
        <mxCell id="6PFC0uBbz8MOIDidI4Xx-113" value="" style="ellipse;whiteSpace=wrap;html=1;aspect=fixed;fillColor=#EAFFE9;" parent="1" vertex="1">
          <mxGeometry x="2430" y="-2810" width="30" height="30" as="geometry" />
        </mxCell>
        <mxCell id="6PFC0uBbz8MOIDidI4Xx-114" value="" style="ellipse;whiteSpace=wrap;html=1;aspect=fixed;fillColor=#EAFFE9;" parent="1" vertex="1">
          <mxGeometry x="2400" y="-2780" width="30" height="30" as="geometry" />
        </mxCell>
        <mxCell id="6PFC0uBbz8MOIDidI4Xx-115" value="" style="endArrow=none;html=1;exitX=0;exitY=1;exitDx=0;exitDy=0;entryX=1;entryY=0;entryDx=0;entryDy=0;fillColor=#d5e8d4;" parent="1" source="6PFC0uBbz8MOIDidI4Xx-121" target="6PFC0uBbz8MOIDidI4Xx-120" edge="1">
          <mxGeometry width="50" height="50" relative="1" as="geometry">
            <mxPoint x="2545" y="-2385" as="sourcePoint" />
            <mxPoint x="2595" y="-2435" as="targetPoint" />
          </mxGeometry>
        </mxCell>
        <mxCell id="6PFC0uBbz8MOIDidI4Xx-116" value="" style="endArrow=none;html=1;exitX=1;exitY=1;exitDx=0;exitDy=0;entryX=0;entryY=0;entryDx=0;entryDy=0;fillColor=#d5e8d4;" parent="1" source="6PFC0uBbz8MOIDidI4Xx-119" target="6PFC0uBbz8MOIDidI4Xx-120" edge="1">
          <mxGeometry width="50" height="50" relative="1" as="geometry">
            <mxPoint x="2429.393398282202" y="-2439.393398282202" as="sourcePoint" />
            <mxPoint x="2480.606601717798" y="-2490.606601717798" as="targetPoint" />
          </mxGeometry>
        </mxCell>
        <mxCell id="6PFC0uBbz8MOIDidI4Xx-117" value="" style="endArrow=none;html=1;exitX=0.5;exitY=1;exitDx=0;exitDy=0;entryX=0.5;entryY=0;entryDx=0;entryDy=0;fillColor=#d5e8d4;" parent="1" source="6PFC0uBbz8MOIDidI4Xx-120" target="6PFC0uBbz8MOIDidI4Xx-118" edge="1">
          <mxGeometry width="50" height="50" relative="1" as="geometry">
            <mxPoint x="2429.393398282202" y="-2439.393398282202" as="sourcePoint" />
            <mxPoint x="2480.606601717798" y="-2490.606601717798" as="targetPoint" />
          </mxGeometry>
        </mxCell>
        <mxCell id="6PFC0uBbz8MOIDidI4Xx-118" value="" style="ellipse;whiteSpace=wrap;html=1;aspect=fixed;fillColor=#EAFFE9;" parent="1" vertex="1">
          <mxGeometry x="2445" y="-2545" width="30" height="30" as="geometry" />
        </mxCell>
        <mxCell id="6PFC0uBbz8MOIDidI4Xx-119" value="" style="ellipse;whiteSpace=wrap;html=1;aspect=fixed;fillColor=#EAFFE9;" parent="1" vertex="1">
          <mxGeometry x="2485" y="-2485" width="30" height="30" as="geometry" />
        </mxCell>
        <mxCell id="6PFC0uBbz8MOIDidI4Xx-120" value="" style="ellipse;whiteSpace=wrap;html=1;aspect=fixed;fillColor=#EAFFE9;" parent="1" vertex="1">
          <mxGeometry x="2445" y="-2505" width="30" height="30" as="geometry" />
        </mxCell>
        <mxCell id="6PFC0uBbz8MOIDidI4Xx-121" value="" style="ellipse;whiteSpace=wrap;html=1;aspect=fixed;fillColor=#EAFFE9;" parent="1" vertex="1">
          <mxGeometry x="2405" y="-2485" width="30" height="30" as="geometry" />
        </mxCell>
        <mxCell id="6PFC0uBbz8MOIDidI4Xx-122" value="" style="endArrow=none;html=1;entryX=1;entryY=0.5;entryDx=0;entryDy=0;exitX=0;exitY=0;exitDx=0;exitDy=0;" parent="1" source="6PFC0uBbz8MOIDidI4Xx-138" target="6PFC0uBbz8MOIDidI4Xx-140" edge="1">
          <mxGeometry width="50" height="50" relative="1" as="geometry">
            <mxPoint x="2735" y="-2795" as="sourcePoint" />
            <mxPoint x="2785" y="-2845" as="targetPoint" />
          </mxGeometry>
        </mxCell>
        <mxCell id="6PFC0uBbz8MOIDidI4Xx-123" value="" style="endArrow=none;html=1;entryX=1;entryY=0.5;entryDx=0;entryDy=0;exitX=0;exitY=0.5;exitDx=0;exitDy=0;" parent="1" source="6PFC0uBbz8MOIDidI4Xx-135" target="6PFC0uBbz8MOIDidI4Xx-140" edge="1">
          <mxGeometry width="50" height="50" relative="1" as="geometry">
            <mxPoint x="2695" y="-2830" as="sourcePoint" />
            <mxPoint x="2764.999999999998" y="-2810" as="targetPoint" />
          </mxGeometry>
        </mxCell>
        <mxCell id="6PFC0uBbz8MOIDidI4Xx-124" value="" style="endArrow=none;html=1;entryX=1;entryY=0.5;entryDx=0;entryDy=0;exitX=0;exitY=0.5;exitDx=0;exitDy=0;" parent="1" source="6PFC0uBbz8MOIDidI4Xx-135" target="6PFC0uBbz8MOIDidI4Xx-141" edge="1">
          <mxGeometry width="50" height="50" relative="1" as="geometry">
            <mxPoint x="2695" y="-2790" as="sourcePoint" />
            <mxPoint x="2764.999999999998" y="-2810" as="targetPoint" />
          </mxGeometry>
        </mxCell>
        <mxCell id="6PFC0uBbz8MOIDidI4Xx-125" value="" style="endArrow=none;html=1;entryX=1;entryY=0.5;entryDx=0;entryDy=0;exitX=0;exitY=0.5;exitDx=0;exitDy=0;" parent="1" source="6PFC0uBbz8MOIDidI4Xx-136" target="6PFC0uBbz8MOIDidI4Xx-139" edge="1">
          <mxGeometry width="50" height="50" relative="1" as="geometry">
            <mxPoint x="2735" y="-2715" as="sourcePoint" />
            <mxPoint x="2785" y="-2765" as="targetPoint" />
          </mxGeometry>
        </mxCell>
        <mxCell id="6PFC0uBbz8MOIDidI4Xx-126" value="" style="endArrow=none;html=1;entryX=1;entryY=0.5;entryDx=0;entryDy=0;exitX=0;exitY=1;exitDx=0;exitDy=0;" parent="1" source="6PFC0uBbz8MOIDidI4Xx-137" target="6PFC0uBbz8MOIDidI4Xx-139" edge="1">
          <mxGeometry width="50" height="50" relative="1" as="geometry">
            <mxPoint x="2695" y="-2750" as="sourcePoint" />
            <mxPoint x="2764.999999999998" y="-2730" as="targetPoint" />
          </mxGeometry>
        </mxCell>
        <mxCell id="6PFC0uBbz8MOIDidI4Xx-127" value="" style="endArrow=none;html=1;entryX=1;entryY=0.5;entryDx=0;entryDy=0;exitX=0;exitY=0.5;exitDx=0;exitDy=0;" parent="1" source="6PFC0uBbz8MOIDidI4Xx-136" target="6PFC0uBbz8MOIDidI4Xx-141" edge="1">
          <mxGeometry width="50" height="50" relative="1" as="geometry">
            <mxPoint x="2725" y="-2765" as="sourcePoint" />
            <mxPoint x="2794.999999999998" y="-2785" as="targetPoint" />
          </mxGeometry>
        </mxCell>
        <mxCell id="6PFC0uBbz8MOIDidI4Xx-128" value="" style="endArrow=none;html=1;entryX=0;entryY=0;entryDx=0;entryDy=0;exitX=1;exitY=0.5;exitDx=0;exitDy=0;" parent="1" source="6PFC0uBbz8MOIDidI4Xx-141" target="6PFC0uBbz8MOIDidI4Xx-138" edge="1">
          <mxGeometry width="50" height="50" relative="1" as="geometry">
            <mxPoint x="2735" y="-2795" as="sourcePoint" />
            <mxPoint x="2785" y="-2845" as="targetPoint" />
          </mxGeometry>
        </mxCell>
        <mxCell id="6PFC0uBbz8MOIDidI4Xx-129" value="" style="endArrow=none;html=1;entryX=0;entryY=0;entryDx=0;entryDy=0;exitX=1;exitY=1;exitDx=0;exitDy=0;" parent="1" source="6PFC0uBbz8MOIDidI4Xx-139" target="6PFC0uBbz8MOIDidI4Xx-138" edge="1">
          <mxGeometry width="50" height="50" relative="1" as="geometry">
            <mxPoint x="2764.999999999998" y="-2770" as="sourcePoint" />
            <mxPoint x="2695" y="-2830" as="targetPoint" />
          </mxGeometry>
        </mxCell>
        <mxCell id="6PFC0uBbz8MOIDidI4Xx-130" value="" style="endArrow=none;html=1;entryX=0;entryY=0.5;entryDx=0;entryDy=0;exitX=1;exitY=0.5;exitDx=0;exitDy=0;" parent="1" source="6PFC0uBbz8MOIDidI4Xx-141" target="6PFC0uBbz8MOIDidI4Xx-135" edge="1">
          <mxGeometry width="50" height="50" relative="1" as="geometry">
            <mxPoint x="2760.6066017177955" y="-2719.3933982822045" as="sourcePoint" />
            <mxPoint x="2699.393398282202" y="-2840.606601717798" as="targetPoint" />
          </mxGeometry>
        </mxCell>
        <mxCell id="6PFC0uBbz8MOIDidI4Xx-131" value="" style="endArrow=none;html=1;entryX=0;entryY=0;entryDx=0;entryDy=0;exitX=1;exitY=1;exitDx=0;exitDy=0;" parent="1" source="6PFC0uBbz8MOIDidI4Xx-139" target="6PFC0uBbz8MOIDidI4Xx-135" edge="1">
          <mxGeometry width="50" height="50" relative="1" as="geometry">
            <mxPoint x="2764.999999999998" y="-2770" as="sourcePoint" />
            <mxPoint x="2695" y="-2790" as="targetPoint" />
          </mxGeometry>
        </mxCell>
        <mxCell id="6PFC0uBbz8MOIDidI4Xx-132" value="" style="endArrow=none;html=1;entryX=1;entryY=0.5;entryDx=0;entryDy=0;exitX=0;exitY=1;exitDx=0;exitDy=0;" parent="1" source="6PFC0uBbz8MOIDidI4Xx-137" target="6PFC0uBbz8MOIDidI4Xx-141" edge="1">
          <mxGeometry width="50" height="50" relative="1" as="geometry">
            <mxPoint x="2695" y="-2710" as="sourcePoint" />
            <mxPoint x="2775" y="-2730" as="targetPoint" />
          </mxGeometry>
        </mxCell>
        <mxCell id="6PFC0uBbz8MOIDidI4Xx-133" value="" style="endArrow=none;html=1;entryX=1;entryY=0;entryDx=0;entryDy=0;exitX=0;exitY=1;exitDx=0;exitDy=0;" parent="1" source="6PFC0uBbz8MOIDidI4Xx-137" target="6PFC0uBbz8MOIDidI4Xx-140" edge="1">
          <mxGeometry width="50" height="50" relative="1" as="geometry">
            <mxPoint x="2699.393398282202" y="-2699.393398282202" as="sourcePoint" />
            <mxPoint x="2770.606601717798" y="-2780.606601717798" as="targetPoint" />
          </mxGeometry>
        </mxCell>
        <mxCell id="6PFC0uBbz8MOIDidI4Xx-134" value="" style="endArrow=none;html=1;entryX=1;entryY=0;entryDx=0;entryDy=0;exitX=0;exitY=1;exitDx=0;exitDy=0;" parent="1" source="6PFC0uBbz8MOIDidI4Xx-136" target="6PFC0uBbz8MOIDidI4Xx-140" edge="1">
          <mxGeometry width="50" height="50" relative="1" as="geometry">
            <mxPoint x="2695" y="-2750" as="sourcePoint" />
            <mxPoint x="2775" y="-2730" as="targetPoint" />
          </mxGeometry>
        </mxCell>
        <mxCell id="6PFC0uBbz8MOIDidI4Xx-135" value="" style="ellipse;whiteSpace=wrap;html=1;aspect=fixed;fillColor=#FFFFE3;" parent="1" vertex="1">
          <mxGeometry x="2685" y="-2815" width="30" height="30" as="geometry" />
        </mxCell>
        <mxCell id="6PFC0uBbz8MOIDidI4Xx-136" value="" style="ellipse;whiteSpace=wrap;html=1;aspect=fixed;fillColor=#FFFFE3;" parent="1" vertex="1">
          <mxGeometry x="2685" y="-2775" width="30" height="30" as="geometry" />
        </mxCell>
        <mxCell id="6PFC0uBbz8MOIDidI4Xx-137" value="" style="ellipse;whiteSpace=wrap;html=1;aspect=fixed;fillColor=#FFFFE3;" parent="1" vertex="1">
          <mxGeometry x="2685" y="-2735" width="30" height="30" as="geometry" />
        </mxCell>
        <mxCell id="6PFC0uBbz8MOIDidI4Xx-138" value="" style="ellipse;whiteSpace=wrap;html=1;aspect=fixed;fillColor=#FFFFE3;" parent="1" vertex="1">
          <mxGeometry x="2685" y="-2855" width="30" height="30" as="geometry" />
        </mxCell>
        <mxCell id="6PFC0uBbz8MOIDidI4Xx-139" value="" style="ellipse;whiteSpace=wrap;html=1;aspect=fixed;fillColor=#FFFFE3;" parent="1" vertex="1">
          <mxGeometry x="2765" y="-2755" width="30" height="30" as="geometry" />
        </mxCell>
        <mxCell id="6PFC0uBbz8MOIDidI4Xx-140" value="" style="ellipse;whiteSpace=wrap;html=1;aspect=fixed;fillColor=#FFFFE3;" parent="1" vertex="1">
          <mxGeometry x="2765" y="-2835" width="30" height="30" as="geometry" />
        </mxCell>
        <mxCell id="6PFC0uBbz8MOIDidI4Xx-141" value="" style="ellipse;whiteSpace=wrap;html=1;aspect=fixed;fillColor=#FFFFE3;" parent="1" vertex="1">
          <mxGeometry x="2765" y="-2795" width="30" height="30" as="geometry" />
        </mxCell>
        <mxCell id="6PFC0uBbz8MOIDidI4Xx-142" value="" style="rounded=0;whiteSpace=wrap;html=1;strokeColor=#000000;gradientColor=none;fillColor=#3b6c8c;" parent="1" vertex="1">
          <mxGeometry x="2920" y="-2820" width="20" height="20" as="geometry" />
        </mxCell>
        <mxCell id="6PFC0uBbz8MOIDidI4Xx-143" style="edgeStyle=orthogonalEdgeStyle;rounded=0;orthogonalLoop=1;jettySize=auto;html=1;exitX=1;exitY=0;exitDx=0;exitDy=0;strokeColor=#000000;entryX=0.5;entryY=0;entryDx=0;entryDy=0;curved=1;endArrow=classicThin;endFill=1;" parent="1" source="6PFC0uBbz8MOIDidI4Xx-144" target="6PFC0uBbz8MOIDidI4Xx-166" edge="1">
          <mxGeometry relative="1" as="geometry">
            <Array as="points">
              <mxPoint x="3010" y="-2780" />
            </Array>
          </mxGeometry>
        </mxCell>
        <mxCell id="6PFC0uBbz8MOIDidI4Xx-144" value="" style="rounded=0;whiteSpace=wrap;html=1;strokeColor=#000000;gradientColor=none;fillColor=#4e89a9;" parent="1" vertex="1">
          <mxGeometry x="2920" y="-2780" width="20" height="20" as="geometry" />
        </mxCell>
        <mxCell id="6PFC0uBbz8MOIDidI4Xx-145" value="" style="rounded=0;whiteSpace=wrap;html=1;strokeColor=#000000;gradientColor=none;fillColor=#77B5C9;" parent="1" vertex="1">
          <mxGeometry x="2920" y="-2800" width="20" height="20" as="geometry" />
        </mxCell>
        <mxCell id="6PFC0uBbz8MOIDidI4Xx-146" value="" style="rounded=0;whiteSpace=wrap;html=1;strokeColor=#000000;gradientColor=none;fillColor=#3b6c8c;" parent="1" vertex="1">
          <mxGeometry x="2920" y="-2760" width="20" height="20" as="geometry" />
        </mxCell>
        <mxCell id="6PFC0uBbz8MOIDidI4Xx-147" value="" style="rounded=0;whiteSpace=wrap;html=1;strokeColor=#000000;gradientColor=none;fillColor=#b2d3e2;" parent="1" vertex="1">
          <mxGeometry x="2920" y="-2740" width="20" height="20" as="geometry" />
        </mxCell>
        <mxCell id="6PFC0uBbz8MOIDidI4Xx-148" value="" style="rounded=0;whiteSpace=wrap;html=1;strokeColor=#000000;gradientColor=none;fillColor=#4e89a9;" parent="1" vertex="1">
          <mxGeometry x="2920" y="-2520" width="20" height="20" as="geometry" />
        </mxCell>
        <mxCell id="6PFC0uBbz8MOIDidI4Xx-149" value="" style="rounded=0;whiteSpace=wrap;html=1;strokeColor=#000000;gradientColor=none;fillColor=#b2d3e2;" parent="1" vertex="1">
          <mxGeometry x="2920" y="-2560" width="20" height="20" as="geometry" />
        </mxCell>
        <mxCell id="6PFC0uBbz8MOIDidI4Xx-150" value="" style="rounded=0;whiteSpace=wrap;html=1;strokeColor=#000000;gradientColor=none;fillColor=#77B5C9;" parent="1" vertex="1">
          <mxGeometry x="2920" y="-2500" width="20" height="20" as="geometry" />
        </mxCell>
        <mxCell id="6PFC0uBbz8MOIDidI4Xx-151" value="" style="rounded=0;whiteSpace=wrap;html=1;strokeColor=#000000;gradientColor=none;fillColor=#3b6c8c;" parent="1" vertex="1">
          <mxGeometry x="2920" y="-2480" width="20" height="20" as="geometry" />
        </mxCell>
        <mxCell id="6PFC0uBbz8MOIDidI4Xx-152" value="" style="rounded=0;whiteSpace=wrap;html=1;strokeColor=#000000;gradientColor=none;fillColor=#b2d3e2;" parent="1" vertex="1">
          <mxGeometry x="2920" y="-2460" width="20" height="20" as="geometry" />
        </mxCell>
        <mxCell id="6PFC0uBbz8MOIDidI4Xx-153" value="" style="rounded=0;whiteSpace=wrap;html=1;strokeColor=#000000;gradientColor=none;fillColor=#77B5C9;" parent="1" vertex="1">
          <mxGeometry x="2920" y="-2540" width="20" height="20" as="geometry" />
        </mxCell>
        <mxCell id="6PFC0uBbz8MOIDidI4Xx-154" value="" style="rounded=0;whiteSpace=wrap;html=1;strokeColor=#000000;gradientColor=none;fillColor=#4e89a9;" parent="1" vertex="1">
          <mxGeometry x="3020" y="-2660" width="20" height="20" as="geometry" />
        </mxCell>
        <mxCell id="6PFC0uBbz8MOIDidI4Xx-155" value="" style="rounded=0;whiteSpace=wrap;html=1;strokeColor=#000000;gradientColor=none;fillColor=#b2d3e2;" parent="1" vertex="1">
          <mxGeometry x="3020" y="-2700" width="20" height="20" as="geometry" />
        </mxCell>
        <mxCell id="6PFC0uBbz8MOIDidI4Xx-156" value="" style="rounded=0;whiteSpace=wrap;html=1;strokeColor=#000000;gradientColor=none;fillColor=#77B5C9;" parent="1" vertex="1">
          <mxGeometry x="3020" y="-2640" width="20" height="20" as="geometry" />
        </mxCell>
        <mxCell id="6PFC0uBbz8MOIDidI4Xx-157" value="" style="rounded=0;whiteSpace=wrap;html=1;strokeColor=#000000;gradientColor=none;fillColor=#3b6c8c;" parent="1" vertex="1">
          <mxGeometry x="3020" y="-2620" width="20" height="20" as="geometry" />
        </mxCell>
        <mxCell id="6PFC0uBbz8MOIDidI4Xx-158" value="" style="rounded=0;whiteSpace=wrap;html=1;strokeColor=#000000;gradientColor=none;fillColor=#b2d3e2;" parent="1" vertex="1">
          <mxGeometry x="3020" y="-2600" width="20" height="20" as="geometry" />
        </mxCell>
        <mxCell id="6PFC0uBbz8MOIDidI4Xx-159" value="" style="rounded=0;whiteSpace=wrap;html=1;strokeColor=#000000;gradientColor=none;fillColor=#77B5C9;" parent="1" vertex="1">
          <mxGeometry x="3020" y="-2680" width="20" height="20" as="geometry" />
        </mxCell>
        <mxCell id="6PFC0uBbz8MOIDidI4Xx-160" value="" style="rounded=0;whiteSpace=wrap;html=1;strokeColor=#000000;gradientColor=none;fillColor=#3b6c8c;" parent="1" vertex="1">
          <mxGeometry x="3000" y="-2680" width="20" height="20" as="geometry" />
        </mxCell>
        <mxCell id="6PFC0uBbz8MOIDidI4Xx-161" value="" style="rounded=0;whiteSpace=wrap;html=1;strokeColor=#000000;gradientColor=none;fillColor=#4e89a9;" parent="1" vertex="1">
          <mxGeometry x="3000" y="-2640" width="20" height="20" as="geometry" />
        </mxCell>
        <mxCell id="6PFC0uBbz8MOIDidI4Xx-162" value="" style="rounded=0;whiteSpace=wrap;html=1;strokeColor=#000000;gradientColor=none;fillColor=#77B5C9;" parent="1" vertex="1">
          <mxGeometry x="3000" y="-2660" width="20" height="20" as="geometry" />
        </mxCell>
        <mxCell id="6PFC0uBbz8MOIDidI4Xx-163" value="" style="rounded=0;whiteSpace=wrap;html=1;strokeColor=#000000;gradientColor=none;fillColor=#3b6c8c;" parent="1" vertex="1">
          <mxGeometry x="3000" y="-2620" width="20" height="20" as="geometry" />
        </mxCell>
        <mxCell id="6PFC0uBbz8MOIDidI4Xx-164" value="" style="rounded=0;whiteSpace=wrap;html=1;strokeColor=#000000;gradientColor=none;fillColor=#b2d3e2;" parent="1" vertex="1">
          <mxGeometry x="3000" y="-2600" width="20" height="20" as="geometry" />
        </mxCell>
        <mxCell id="6PFC0uBbz8MOIDidI4Xx-165" value="" style="rounded=0;whiteSpace=wrap;html=1;strokeColor=#000000;gradientColor=none;fillColor=#77B5C9;" parent="1" vertex="1">
          <mxGeometry x="2920" y="-2840" width="20" height="20" as="geometry" />
        </mxCell>
        <mxCell id="6PFC0uBbz8MOIDidI4Xx-166" value="" style="rounded=0;whiteSpace=wrap;html=1;strokeColor=#000000;gradientColor=none;fillColor=#77B5C9;" parent="1" vertex="1">
          <mxGeometry x="3000" y="-2700" width="20" height="20" as="geometry" />
        </mxCell>
        <mxCell id="6PFC0uBbz8MOIDidI4Xx-167" value="" style="endArrow=none;html=1;entryX=1;entryY=0.5;entryDx=0;entryDy=0;exitX=0;exitY=0;exitDx=0;exitDy=0;" parent="1" source="6PFC0uBbz8MOIDidI4Xx-183" target="6PFC0uBbz8MOIDidI4Xx-185" edge="1">
          <mxGeometry width="50" height="50" relative="1" as="geometry">
            <mxPoint x="3215" y="-2655" as="sourcePoint" />
            <mxPoint x="3265" y="-2705" as="targetPoint" />
          </mxGeometry>
        </mxCell>
        <mxCell id="6PFC0uBbz8MOIDidI4Xx-168" value="" style="endArrow=none;html=1;entryX=1;entryY=0.5;entryDx=0;entryDy=0;exitX=0;exitY=0.5;exitDx=0;exitDy=0;" parent="1" source="6PFC0uBbz8MOIDidI4Xx-180" target="6PFC0uBbz8MOIDidI4Xx-185" edge="1">
          <mxGeometry width="50" height="50" relative="1" as="geometry">
            <mxPoint x="3175" y="-2690" as="sourcePoint" />
            <mxPoint x="3244.999999999998" y="-2670" as="targetPoint" />
          </mxGeometry>
        </mxCell>
        <mxCell id="6PFC0uBbz8MOIDidI4Xx-169" value="" style="endArrow=none;html=1;entryX=1;entryY=0.5;entryDx=0;entryDy=0;exitX=0;exitY=0.5;exitDx=0;exitDy=0;" parent="1" source="6PFC0uBbz8MOIDidI4Xx-180" target="6PFC0uBbz8MOIDidI4Xx-186" edge="1">
          <mxGeometry width="50" height="50" relative="1" as="geometry">
            <mxPoint x="3175" y="-2650" as="sourcePoint" />
            <mxPoint x="3244.999999999998" y="-2670" as="targetPoint" />
          </mxGeometry>
        </mxCell>
        <mxCell id="6PFC0uBbz8MOIDidI4Xx-170" value="" style="endArrow=none;html=1;entryX=1;entryY=0.5;entryDx=0;entryDy=0;exitX=0;exitY=0.5;exitDx=0;exitDy=0;" parent="1" source="6PFC0uBbz8MOIDidI4Xx-181" target="6PFC0uBbz8MOIDidI4Xx-184" edge="1">
          <mxGeometry width="50" height="50" relative="1" as="geometry">
            <mxPoint x="3215" y="-2575" as="sourcePoint" />
            <mxPoint x="3265" y="-2625" as="targetPoint" />
          </mxGeometry>
        </mxCell>
        <mxCell id="6PFC0uBbz8MOIDidI4Xx-171" value="" style="endArrow=none;html=1;entryX=1;entryY=0.5;entryDx=0;entryDy=0;exitX=0;exitY=1;exitDx=0;exitDy=0;" parent="1" source="6PFC0uBbz8MOIDidI4Xx-182" target="6PFC0uBbz8MOIDidI4Xx-184" edge="1">
          <mxGeometry width="50" height="50" relative="1" as="geometry">
            <mxPoint x="3175" y="-2610" as="sourcePoint" />
            <mxPoint x="3244.999999999998" y="-2590" as="targetPoint" />
          </mxGeometry>
        </mxCell>
        <mxCell id="6PFC0uBbz8MOIDidI4Xx-172" value="" style="endArrow=none;html=1;entryX=1;entryY=0.5;entryDx=0;entryDy=0;exitX=0;exitY=0.5;exitDx=0;exitDy=0;" parent="1" source="6PFC0uBbz8MOIDidI4Xx-181" target="6PFC0uBbz8MOIDidI4Xx-186" edge="1">
          <mxGeometry width="50" height="50" relative="1" as="geometry">
            <mxPoint x="3205" y="-2625" as="sourcePoint" />
            <mxPoint x="3274.999999999998" y="-2645" as="targetPoint" />
          </mxGeometry>
        </mxCell>
        <mxCell id="6PFC0uBbz8MOIDidI4Xx-173" value="" style="endArrow=none;html=1;entryX=0;entryY=0;entryDx=0;entryDy=0;exitX=1;exitY=0.5;exitDx=0;exitDy=0;" parent="1" source="6PFC0uBbz8MOIDidI4Xx-186" target="6PFC0uBbz8MOIDidI4Xx-183" edge="1">
          <mxGeometry width="50" height="50" relative="1" as="geometry">
            <mxPoint x="3215" y="-2655" as="sourcePoint" />
            <mxPoint x="3265" y="-2705" as="targetPoint" />
          </mxGeometry>
        </mxCell>
        <mxCell id="6PFC0uBbz8MOIDidI4Xx-174" value="" style="endArrow=none;html=1;entryX=0;entryY=0;entryDx=0;entryDy=0;exitX=1;exitY=1;exitDx=0;exitDy=0;" parent="1" source="6PFC0uBbz8MOIDidI4Xx-184" target="6PFC0uBbz8MOIDidI4Xx-183" edge="1">
          <mxGeometry width="50" height="50" relative="1" as="geometry">
            <mxPoint x="3244.999999999998" y="-2630" as="sourcePoint" />
            <mxPoint x="3175" y="-2690" as="targetPoint" />
          </mxGeometry>
        </mxCell>
        <mxCell id="6PFC0uBbz8MOIDidI4Xx-175" value="" style="endArrow=none;html=1;entryX=0;entryY=0.5;entryDx=0;entryDy=0;exitX=1;exitY=0.5;exitDx=0;exitDy=0;" parent="1" source="6PFC0uBbz8MOIDidI4Xx-186" target="6PFC0uBbz8MOIDidI4Xx-180" edge="1">
          <mxGeometry width="50" height="50" relative="1" as="geometry">
            <mxPoint x="3240.6066017177955" y="-2579.3933982822045" as="sourcePoint" />
            <mxPoint x="3179.393398282202" y="-2700.606601717798" as="targetPoint" />
          </mxGeometry>
        </mxCell>
        <mxCell id="6PFC0uBbz8MOIDidI4Xx-176" value="" style="endArrow=none;html=1;entryX=0;entryY=0;entryDx=0;entryDy=0;exitX=1;exitY=1;exitDx=0;exitDy=0;" parent="1" source="6PFC0uBbz8MOIDidI4Xx-184" target="6PFC0uBbz8MOIDidI4Xx-180" edge="1">
          <mxGeometry width="50" height="50" relative="1" as="geometry">
            <mxPoint x="3244.999999999998" y="-2630" as="sourcePoint" />
            <mxPoint x="3175" y="-2650" as="targetPoint" />
          </mxGeometry>
        </mxCell>
        <mxCell id="6PFC0uBbz8MOIDidI4Xx-177" value="" style="endArrow=none;html=1;entryX=1;entryY=0.5;entryDx=0;entryDy=0;exitX=0;exitY=1;exitDx=0;exitDy=0;" parent="1" source="6PFC0uBbz8MOIDidI4Xx-182" target="6PFC0uBbz8MOIDidI4Xx-186" edge="1">
          <mxGeometry width="50" height="50" relative="1" as="geometry">
            <mxPoint x="3175" y="-2570" as="sourcePoint" />
            <mxPoint x="3255" y="-2590" as="targetPoint" />
          </mxGeometry>
        </mxCell>
        <mxCell id="6PFC0uBbz8MOIDidI4Xx-178" value="" style="endArrow=none;html=1;entryX=1;entryY=0;entryDx=0;entryDy=0;exitX=0;exitY=1;exitDx=0;exitDy=0;" parent="1" source="6PFC0uBbz8MOIDidI4Xx-182" target="6PFC0uBbz8MOIDidI4Xx-185" edge="1">
          <mxGeometry width="50" height="50" relative="1" as="geometry">
            <mxPoint x="3179.393398282202" y="-2559.393398282202" as="sourcePoint" />
            <mxPoint x="3250.606601717798" y="-2640.606601717798" as="targetPoint" />
          </mxGeometry>
        </mxCell>
        <mxCell id="6PFC0uBbz8MOIDidI4Xx-179" value="" style="endArrow=none;html=1;entryX=1;entryY=0;entryDx=0;entryDy=0;exitX=0;exitY=1;exitDx=0;exitDy=0;" parent="1" source="6PFC0uBbz8MOIDidI4Xx-181" target="6PFC0uBbz8MOIDidI4Xx-185" edge="1">
          <mxGeometry width="50" height="50" relative="1" as="geometry">
            <mxPoint x="3175" y="-2610" as="sourcePoint" />
            <mxPoint x="3255" y="-2590" as="targetPoint" />
          </mxGeometry>
        </mxCell>
        <mxCell id="6PFC0uBbz8MOIDidI4Xx-180" value="" style="ellipse;whiteSpace=wrap;html=1;aspect=fixed;fillColor=#FFF5E8;" parent="1" vertex="1">
          <mxGeometry x="3165" y="-2675" width="30" height="30" as="geometry" />
        </mxCell>
        <mxCell id="6PFC0uBbz8MOIDidI4Xx-181" value="" style="ellipse;whiteSpace=wrap;html=1;aspect=fixed;fillColor=#FFF5E8;" parent="1" vertex="1">
          <mxGeometry x="3165" y="-2635" width="30" height="30" as="geometry" />
        </mxCell>
        <mxCell id="6PFC0uBbz8MOIDidI4Xx-182" value="" style="ellipse;whiteSpace=wrap;html=1;aspect=fixed;fillColor=#FFF5E8;" parent="1" vertex="1">
          <mxGeometry x="3165" y="-2595" width="30" height="30" as="geometry" />
        </mxCell>
        <mxCell id="6PFC0uBbz8MOIDidI4Xx-183" value="" style="ellipse;whiteSpace=wrap;html=1;aspect=fixed;fillColor=#FFF5E8;" parent="1" vertex="1">
          <mxGeometry x="3165" y="-2715" width="30" height="30" as="geometry" />
        </mxCell>
        <mxCell id="6PFC0uBbz8MOIDidI4Xx-184" value="" style="ellipse;whiteSpace=wrap;html=1;aspect=fixed;fillColor=#FFF5E8;" parent="1" vertex="1">
          <mxGeometry x="3245" y="-2615" width="30" height="30" as="geometry" />
        </mxCell>
        <mxCell id="6PFC0uBbz8MOIDidI4Xx-185" value="" style="ellipse;whiteSpace=wrap;html=1;aspect=fixed;fillColor=#FFF5E8;" parent="1" vertex="1">
          <mxGeometry x="3245" y="-2695" width="30" height="30" as="geometry" />
        </mxCell>
        <mxCell id="6PFC0uBbz8MOIDidI4Xx-186" value="" style="ellipse;whiteSpace=wrap;html=1;aspect=fixed;fillColor=#FFF5E8;" parent="1" vertex="1">
          <mxGeometry x="3245" y="-2655" width="30" height="30" as="geometry" />
        </mxCell>
        <mxCell id="6PFC0uBbz8MOIDidI4Xx-187" value="" style="endArrow=none;html=1;entryX=1;entryY=0.5;entryDx=0;entryDy=0;exitX=0;exitY=0;exitDx=0;exitDy=0;" parent="1" source="6PFC0uBbz8MOIDidI4Xx-203" target="6PFC0uBbz8MOIDidI4Xx-205" edge="1">
          <mxGeometry width="50" height="50" relative="1" as="geometry">
            <mxPoint x="2736.5" y="-2515" as="sourcePoint" />
            <mxPoint x="2786.5" y="-2565" as="targetPoint" />
          </mxGeometry>
        </mxCell>
        <mxCell id="6PFC0uBbz8MOIDidI4Xx-188" value="" style="endArrow=none;html=1;entryX=1;entryY=0.5;entryDx=0;entryDy=0;exitX=0;exitY=0.5;exitDx=0;exitDy=0;" parent="1" source="6PFC0uBbz8MOIDidI4Xx-200" target="6PFC0uBbz8MOIDidI4Xx-205" edge="1">
          <mxGeometry width="50" height="50" relative="1" as="geometry">
            <mxPoint x="2696.5" y="-2550" as="sourcePoint" />
            <mxPoint x="2766.499999999998" y="-2530" as="targetPoint" />
          </mxGeometry>
        </mxCell>
        <mxCell id="6PFC0uBbz8MOIDidI4Xx-189" value="" style="endArrow=none;html=1;entryX=1;entryY=0.5;entryDx=0;entryDy=0;exitX=0;exitY=0.5;exitDx=0;exitDy=0;" parent="1" source="6PFC0uBbz8MOIDidI4Xx-200" target="6PFC0uBbz8MOIDidI4Xx-206" edge="1">
          <mxGeometry width="50" height="50" relative="1" as="geometry">
            <mxPoint x="2696.5" y="-2510" as="sourcePoint" />
            <mxPoint x="2766.499999999998" y="-2530" as="targetPoint" />
          </mxGeometry>
        </mxCell>
        <mxCell id="6PFC0uBbz8MOIDidI4Xx-190" value="" style="endArrow=none;html=1;entryX=1;entryY=0.5;entryDx=0;entryDy=0;exitX=0;exitY=0.5;exitDx=0;exitDy=0;" parent="1" source="6PFC0uBbz8MOIDidI4Xx-201" target="6PFC0uBbz8MOIDidI4Xx-204" edge="1">
          <mxGeometry width="50" height="50" relative="1" as="geometry">
            <mxPoint x="2736.5" y="-2435" as="sourcePoint" />
            <mxPoint x="2786.5" y="-2485" as="targetPoint" />
          </mxGeometry>
        </mxCell>
        <mxCell id="6PFC0uBbz8MOIDidI4Xx-191" value="" style="endArrow=none;html=1;entryX=1;entryY=0.5;entryDx=0;entryDy=0;exitX=0;exitY=1;exitDx=0;exitDy=0;" parent="1" source="6PFC0uBbz8MOIDidI4Xx-202" target="6PFC0uBbz8MOIDidI4Xx-204" edge="1">
          <mxGeometry width="50" height="50" relative="1" as="geometry">
            <mxPoint x="2696.5" y="-2470" as="sourcePoint" />
            <mxPoint x="2766.499999999998" y="-2450" as="targetPoint" />
          </mxGeometry>
        </mxCell>
        <mxCell id="6PFC0uBbz8MOIDidI4Xx-192" value="" style="endArrow=none;html=1;entryX=1;entryY=0.5;entryDx=0;entryDy=0;exitX=0;exitY=0.5;exitDx=0;exitDy=0;" parent="1" source="6PFC0uBbz8MOIDidI4Xx-201" target="6PFC0uBbz8MOIDidI4Xx-206" edge="1">
          <mxGeometry width="50" height="50" relative="1" as="geometry">
            <mxPoint x="2726.5" y="-2485" as="sourcePoint" />
            <mxPoint x="2796.499999999998" y="-2505" as="targetPoint" />
          </mxGeometry>
        </mxCell>
        <mxCell id="6PFC0uBbz8MOIDidI4Xx-193" value="" style="endArrow=none;html=1;entryX=0;entryY=0;entryDx=0;entryDy=0;exitX=1;exitY=0.5;exitDx=0;exitDy=0;" parent="1" source="6PFC0uBbz8MOIDidI4Xx-206" target="6PFC0uBbz8MOIDidI4Xx-203" edge="1">
          <mxGeometry width="50" height="50" relative="1" as="geometry">
            <mxPoint x="2736.5" y="-2515" as="sourcePoint" />
            <mxPoint x="2786.5" y="-2565" as="targetPoint" />
          </mxGeometry>
        </mxCell>
        <mxCell id="6PFC0uBbz8MOIDidI4Xx-194" value="" style="endArrow=none;html=1;entryX=0;entryY=0;entryDx=0;entryDy=0;exitX=1;exitY=1;exitDx=0;exitDy=0;" parent="1" source="6PFC0uBbz8MOIDidI4Xx-204" target="6PFC0uBbz8MOIDidI4Xx-203" edge="1">
          <mxGeometry width="50" height="50" relative="1" as="geometry">
            <mxPoint x="2766.499999999998" y="-2490" as="sourcePoint" />
            <mxPoint x="2696.5" y="-2550" as="targetPoint" />
          </mxGeometry>
        </mxCell>
        <mxCell id="6PFC0uBbz8MOIDidI4Xx-195" value="" style="endArrow=none;html=1;entryX=0;entryY=0.5;entryDx=0;entryDy=0;exitX=1;exitY=0.5;exitDx=0;exitDy=0;" parent="1" source="6PFC0uBbz8MOIDidI4Xx-206" target="6PFC0uBbz8MOIDidI4Xx-200" edge="1">
          <mxGeometry width="50" height="50" relative="1" as="geometry">
            <mxPoint x="2762.1066017177955" y="-2439.3933982822045" as="sourcePoint" />
            <mxPoint x="2700.893398282202" y="-2560.606601717798" as="targetPoint" />
          </mxGeometry>
        </mxCell>
        <mxCell id="6PFC0uBbz8MOIDidI4Xx-196" value="" style="endArrow=none;html=1;entryX=0;entryY=0;entryDx=0;entryDy=0;exitX=1;exitY=1;exitDx=0;exitDy=0;" parent="1" source="6PFC0uBbz8MOIDidI4Xx-204" target="6PFC0uBbz8MOIDidI4Xx-200" edge="1">
          <mxGeometry width="50" height="50" relative="1" as="geometry">
            <mxPoint x="2766.499999999998" y="-2490" as="sourcePoint" />
            <mxPoint x="2696.5" y="-2510" as="targetPoint" />
          </mxGeometry>
        </mxCell>
        <mxCell id="6PFC0uBbz8MOIDidI4Xx-197" value="" style="endArrow=none;html=1;entryX=1;entryY=0.5;entryDx=0;entryDy=0;exitX=0;exitY=1;exitDx=0;exitDy=0;" parent="1" source="6PFC0uBbz8MOIDidI4Xx-202" target="6PFC0uBbz8MOIDidI4Xx-206" edge="1">
          <mxGeometry width="50" height="50" relative="1" as="geometry">
            <mxPoint x="2696.5" y="-2430" as="sourcePoint" />
            <mxPoint x="2776.5" y="-2450" as="targetPoint" />
          </mxGeometry>
        </mxCell>
        <mxCell id="6PFC0uBbz8MOIDidI4Xx-198" value="" style="endArrow=none;html=1;entryX=1;entryY=0;entryDx=0;entryDy=0;exitX=0;exitY=1;exitDx=0;exitDy=0;" parent="1" source="6PFC0uBbz8MOIDidI4Xx-202" target="6PFC0uBbz8MOIDidI4Xx-205" edge="1">
          <mxGeometry width="50" height="50" relative="1" as="geometry">
            <mxPoint x="2700.893398282202" y="-2419.393398282202" as="sourcePoint" />
            <mxPoint x="2772.106601717798" y="-2500.606601717798" as="targetPoint" />
          </mxGeometry>
        </mxCell>
        <mxCell id="6PFC0uBbz8MOIDidI4Xx-199" value="" style="endArrow=none;html=1;entryX=1;entryY=0;entryDx=0;entryDy=0;exitX=0;exitY=1;exitDx=0;exitDy=0;" parent="1" source="6PFC0uBbz8MOIDidI4Xx-201" target="6PFC0uBbz8MOIDidI4Xx-205" edge="1">
          <mxGeometry width="50" height="50" relative="1" as="geometry">
            <mxPoint x="2696.5" y="-2470" as="sourcePoint" />
            <mxPoint x="2776.5" y="-2450" as="targetPoint" />
          </mxGeometry>
        </mxCell>
        <mxCell id="6PFC0uBbz8MOIDidI4Xx-200" value="" style="ellipse;whiteSpace=wrap;html=1;aspect=fixed;fillColor=#FFFFE3;" parent="1" vertex="1">
          <mxGeometry x="2686.5" y="-2535" width="30" height="30" as="geometry" />
        </mxCell>
        <mxCell id="6PFC0uBbz8MOIDidI4Xx-201" value="" style="ellipse;whiteSpace=wrap;html=1;aspect=fixed;fillColor=#FFFFE3;" parent="1" vertex="1">
          <mxGeometry x="2686.5" y="-2495" width="30" height="30" as="geometry" />
        </mxCell>
        <mxCell id="6PFC0uBbz8MOIDidI4Xx-202" value="" style="ellipse;whiteSpace=wrap;html=1;aspect=fixed;fillColor=#FFFFE3;" parent="1" vertex="1">
          <mxGeometry x="2686.5" y="-2455" width="30" height="30" as="geometry" />
        </mxCell>
        <mxCell id="6PFC0uBbz8MOIDidI4Xx-203" value="" style="ellipse;whiteSpace=wrap;html=1;aspect=fixed;fillColor=#FFFFE3;" parent="1" vertex="1">
          <mxGeometry x="2686.5" y="-2575" width="30" height="30" as="geometry" />
        </mxCell>
        <mxCell id="6PFC0uBbz8MOIDidI4Xx-204" value="" style="ellipse;whiteSpace=wrap;html=1;aspect=fixed;fillColor=#FFFFE3;" parent="1" vertex="1">
          <mxGeometry x="2766.5" y="-2475" width="30" height="30" as="geometry" />
        </mxCell>
        <mxCell id="6PFC0uBbz8MOIDidI4Xx-205" value="" style="ellipse;whiteSpace=wrap;html=1;aspect=fixed;fillColor=#FFFFE3;" parent="1" vertex="1">
          <mxGeometry x="2766.5" y="-2555" width="30" height="30" as="geometry" />
        </mxCell>
        <mxCell id="6PFC0uBbz8MOIDidI4Xx-206" value="" style="ellipse;whiteSpace=wrap;html=1;aspect=fixed;fillColor=#FFFFE3;" parent="1" vertex="1">
          <mxGeometry x="2766.5" y="-2515" width="30" height="30" as="geometry" />
        </mxCell>
        <mxCell id="6PFC0uBbz8MOIDidI4Xx-207" style="edgeStyle=orthogonalEdgeStyle;rounded=0;orthogonalLoop=1;jettySize=auto;html=1;strokeColor=#000000;entryX=0.5;entryY=1;entryDx=0;entryDy=0;curved=1;endArrow=classicThin;endFill=1;" parent="1" target="6PFC0uBbz8MOIDidI4Xx-158" edge="1">
          <mxGeometry relative="1" as="geometry">
            <mxPoint x="2940" y="-2500" as="sourcePoint" />
            <mxPoint x="3020" y="-2690" as="targetPoint" />
            <Array as="points">
              <mxPoint x="3030" y="-2500" />
            </Array>
          </mxGeometry>
        </mxCell>
        <mxCell id="6PFC0uBbz8MOIDidI4Xx-208" value="&lt;font style=&quot;font-size: 25px;&quot;&gt;&lt;b style=&quot;font-size: 25px;&quot;&gt;Solute SMILES&lt;/b&gt;&lt;/font&gt;" style="text;html=1;strokeColor=none;fillColor=none;align=center;verticalAlign=middle;whiteSpace=wrap;rounded=0;fontSize=25;" parent="1" vertex="1">
          <mxGeometry x="2060" y="-2670" width="240" height="40" as="geometry" />
        </mxCell>
        <mxCell id="6PFC0uBbz8MOIDidI4Xx-209" value="&lt;font style=&quot;font-size: 25px;&quot;&gt;&lt;b style=&quot;font-size: 25px;&quot;&gt;Solvent SMILES&lt;/b&gt;&lt;/font&gt;" style="text;html=1;strokeColor=none;fillColor=none;align=center;verticalAlign=middle;whiteSpace=wrap;rounded=0;fontSize=25;" parent="1" vertex="1">
          <mxGeometry x="2060" y="-2390" width="240" height="40" as="geometry" />
        </mxCell>
        <mxCell id="6PFC0uBbz8MOIDidI4Xx-210" value="&lt;font style=&quot;font-size: 25px;&quot;&gt;&lt;b style=&quot;font-size: 25px;&quot;&gt;Solvent Graph&lt;/b&gt;&lt;/font&gt;" style="text;html=1;strokeColor=none;fillColor=none;align=center;verticalAlign=middle;whiteSpace=wrap;rounded=0;fontSize=25;" parent="1" vertex="1">
          <mxGeometry x="2340" y="-2390" width="240" height="40" as="geometry" />
        </mxCell>
        <mxCell id="6PFC0uBbz8MOIDidI4Xx-211" value="&lt;font style=&quot;font-size: 25px;&quot;&gt;&lt;b style=&quot;font-size: 25px;&quot;&gt;Solute Graph&lt;/b&gt;&lt;/font&gt;" style="text;html=1;strokeColor=none;fillColor=none;align=center;verticalAlign=middle;whiteSpace=wrap;rounded=0;fontSize=25;" parent="1" vertex="1">
          <mxGeometry x="2340" y="-2670" width="240" height="40" as="geometry" />
        </mxCell>
        <mxCell id="6PFC0uBbz8MOIDidI4Xx-212" value="&lt;font style=&quot;font-size: 25px;&quot;&gt;&lt;b style=&quot;font-size: 25px;&quot;&gt;Graph Convolution&lt;/b&gt;&lt;/font&gt;" style="text;html=1;strokeColor=none;fillColor=none;align=center;verticalAlign=middle;whiteSpace=wrap;rounded=0;fontSize=25;" parent="1" vertex="1">
          <mxGeometry x="2620" y="-2670" width="240" height="40" as="geometry" />
        </mxCell>
        <mxCell id="6PFC0uBbz8MOIDidI4Xx-213" value="&lt;font style=&quot;font-size: 25px;&quot;&gt;&lt;b style=&quot;font-size: 25px;&quot;&gt;Graph Convolution&lt;/b&gt;&lt;/font&gt;" style="text;html=1;strokeColor=none;fillColor=none;align=center;verticalAlign=middle;whiteSpace=wrap;rounded=0;fontSize=25;" parent="1" vertex="1">
          <mxGeometry x="2620" y="-2390" width="240" height="40" as="geometry" />
        </mxCell>
        <mxCell id="6PFC0uBbz8MOIDidI4Xx-214" value="&lt;font style=&quot;font-size: 25px;&quot;&gt;&lt;b style=&quot;font-size: 25px;&quot;&gt;Merge&lt;/b&gt;&lt;/font&gt;" style="text;html=1;strokeColor=none;fillColor=none;align=center;verticalAlign=middle;whiteSpace=wrap;rounded=0;fontSize=25;" parent="1" vertex="1">
          <mxGeometry x="2900" y="-2390" width="160" height="40" as="geometry" />
        </mxCell>
        <mxCell id="6PFC0uBbz8MOIDidI4Xx-215" value="&lt;font style=&quot;font-size: 25px;&quot;&gt;&lt;b style=&quot;font-size: 25px;&quot;&gt;Fully Connected&lt;/b&gt;&lt;/font&gt;" style="text;html=1;strokeColor=none;fillColor=none;align=center;verticalAlign=middle;whiteSpace=wrap;rounded=0;fontSize=25;" parent="1" vertex="1">
          <mxGeometry x="3100" y="-2530" width="240" height="40" as="geometry" />
        </mxCell>
        <mxCell id="6PFC0uBbz8MOIDidI4Xx-216" value="&lt;font style=&quot;font-size: 25px&quot;&gt;&lt;b style=&quot;font-size: 25px&quot;&gt;Solubility&lt;/b&gt;&lt;/font&gt;" style="text;html=1;strokeColor=none;fillColor=none;align=center;verticalAlign=middle;whiteSpace=wrap;rounded=0;fontSize=25;" parent="1" vertex="1">
          <mxGeometry x="3380" y="-2530" width="240" height="40" as="geometry" />
        </mxCell>
        <mxCell id="6PFC0uBbz8MOIDidI4Xx-217" value="" style="shape=image;verticalLabelPosition=bottom;labelBackgroundColor=#ffffff;verticalAlign=top;aspect=fixed;imageAspect=0;image=data:image/png,iVBORw0KGgoAAAANSUhEUgAAAa0AAAGgCAIAAACWqq++AAAgAElEQVR4nO29WXMc53n+3d3Ty+wbZsG+chcpkiK1WrTkJLZlR3EprnISx6nke6RykM+RIydOKqlKqewolfhvO7JkyZJjURJJkCJEYt8x+9493T3d/R5cmedtDkCKEkkMgL5/ByhgMMszTc6Fe795x3E4giAIDyP0+wAEQRB9hnSQIAivQzpIEITXIR0kCMLrkA4SBOF1SAcJgvA6pIMEQXgd0kGCILwO6SBBEF6HdJAgCK9DOkgQhNchHSQIwuuQDhIE4XVIBwmC8DqkgwRBeB3SQYIgvA7pIEEQXod0kCAIr0M6SBCE1yEdJAjC65AOEgThdUgHCYLwOqSDBEF4HdJBgiC8DukgQRBeh3SQIAivQzpIEITXIR0kCMLrkA4SBOF1SAcJgvA6pIMEQXgd0kGCILwO6SBBEF6HdJAgCK9DOkgQhNchHSQIwuuQDhIE4XVIBwmC8DqkgwRBeB3SQYIgvA7pIEEQXod0kCAIr0M6SBCE1yEdJAjC65AOEgThdUgHCYLwOqSDBEF4HdJBgiC8DukgQRBeh3SQIAivQzpIEITXIR0kCMLrkA4SBOF1SAcJgvA6pIMEQXgd0kGCILwO6SBBEF6HdJAgCK9DOkgQhNchHSQIwuuQDhIE4XVIBwmC8DqkgwRBeB3SQYIgvA7pIEEQXod0kCAIr0M6SBCE1yEdJAjC65AOEgThdUgHCYLwOqSDBEF4HdJBgiC8DukgQRBeh3SQIAivQzpIEITXIR0kCMLrkA4SBOF1SAcJgvA6pIMEQXgd0kGCILwO6SBBEF6HdJAgCK9DOkgQhNchHSQIwuuQDhIE4XVIBwmC8DqkgwRBeB3SQYIgvA7pIEEQXod0kCAIr0M6SBCE1yEdJAjC65AOEgThdcR+H4Agngi2bauqqmkaz/OdTofn+VQq5fP5+n0u4iDCO47T7zMQxGPDtm1N01RVzeVy7Xbb5/MJgmDbtiRJiqL4/f5sNivLcr+PSRwsSAeJo0On01lYWKhUKoIgJBKJcDgsiqIsy7ZtN5vNdrut67ppmhMTEwMDA/0+LHGAIB0kjgjNZnNjY+POnTsjIyPJZDIajQYCAUmSBEEQBMFxHE3TarVasVhUFGV6epqsQoJBOkgcBSzLunbtWqFQyGQyyWQyFosFg0G/3+++j23blmVVq9WtrS3TNE+ePBmJRPp1YOJAQfli4iiQz+eXl5d9Pl8gEAgGg4FAYLe5JwiCJEnhcDidTpumWSqV+nJU4gBCOkgcejqdzuzsrGVZ8XgcCiiKoiDs/X9bkqRAIBCPx7e2tmzb3uejEgcT0kHi0FMqlba2tvx+vyiKoihKkvSA+hhBEHie9/v9zWZzYWFhP89JHFhIB4lDz/b2NqTN5/PxPM9xHL7uCd9FEIRGo2FZ1j6elDigkA4Shxjbtsvl8uLiYr1etyzLdvGAh+CrKIq1Wo0qqwmO+kmIw4vjOEtLS/V6HY0ipmmaptnpAv9390PwW9M0IYiapgUCgX4cnzhAkA4Shw/DMFRVbTabuVwum81OTEwUCoXbt2+rqqrruq7roij6fD7mJjMsy9J1XdO0drvdarUsy5IkqV/vgjg4kA4Sh4xOp7O+vl6tVkOh0KlTp8LhsKIokUhE07R8Pq+qqqIoMAYVRRFFEVLoOA5EUFVV9B23Wq3p6WlRpI8AQTp4eLBtG94cz/Omafr9fg/aMqVSqVwuV6tV1EsHg0HUx8iyPDIygl/hsti23el0kDt2HAdXD63HzWazUqk0m81kMuk4zgOSKoRHIB086FiWZZpms9lstVqappmmyfO8YRiCIESj0eHh4Z6uiSMJpiesrq5CAWdmZsLhsCRJbgkbGBiYmpqanZ2VJAkiaJom7sPzPC5ju91uNpvorvP7/ZZlkQgSHOngQQaTo7a3txuNBrplw+Gw4ziiKFYqFV3XG43GzZs3o9Ho2NhYMBjs93mfFI7jrK+vl8tly7KmpqYikUggENid5/X5fNlsNhaL4Z6GYSiK4rYHERlsNpvlcrlUKl24cGF8fLwv74g4aJAOHlyKxWI+n9d1PZvNhkIhx3FgwgiCEAwGVVW1bbtarRYKhZ2dnWw2OzU1pShKv0/9OOl0Os1mc3t7u1QqZTKZVCoVjUZ3Zz8YoVAolUqtrq622+1oNIrKauggy5DU6/Wtra3BwcHp6WnKFBOAdPAggrK45eXleDwej8eRCpBlGbEwx3Ecx5FludVqwUJcXl5uNptwk/t99seGaZqLi4uNRiMYDCIfwq7AblAQY5pmOBwOBAIbGxuqqrJ5M/gtcsRoK3711VeHhob29w0RBxfSwYOIqqrr6+u2bSeTSVEUQ6EQy3ty3WYJRVEQ+XIcZ3R0dHt7e3Z2VhCEbDZ7BGJetVqtUCiUSqWhoaGBgYFQKPQAM9BxHAT+Wq1Wo9EQBKFardZqtUgkwuxB0zTr9Xqj0Th16tTFixcnJib2+R0RBxnSwQMHvN1SqTQ6OsrzfDAYdIsgQxAERVGYpROPxxcWFubn57PZbF+O/ViAoq2trVWr1Xg8fvLkyWg0+oChCRA4TdMajUa9Xq9Wq+VyOZ/PFwoFFNYoimLbNmbPZDKZ11577cqVK+QOEz2QDh44NE0rFAqyLIdCIUmS9hRBwPO8JEmyLCuKEggEksnkzs5OpVJJJpP7fObHxc7OTrFYbLfb4+Pj8HAfUN9nWRbMwEajUa1WK5VKsVhcXV0Nh8Pf/va3x8fHP/74Y7/fbxhGMpkcHBwcGRmZmJg4AsYy8dghHTxYOI5Tq9W2t7dHRkZ8Ph/CWw+4vyAIPp8PFpMsy1tbW/Pz888999wDPu2PpWIOJSm6rkuS9OhdGZZlqaq6s7NTKBSGhoZGR0fD4TBWi+x5f8dxDMOAGVir1WADbm9vN5vNZ5555vLlywMDA47jnDt3Dn3EGEn9KCckjjakgwcL27Y3NjagMg85Khwfcqghz/Ozs7Ojo6ODg4M9lSUsiKZpmuM4iqL4fD7YXF/4EoZhWJZVKBR0XS+VSrlcDrcIgqCq6uDgoKIo6XR6ZmYGovOlhhfYto3+EEmSUBgYCAQenA9hZYC1Wq1Sqezs7ORyuampqStXrly4cAH35HmeJu8TDwnp4MECIhIMBjEP6gul0LZtx4UoiuVy+eOPP47H42NjYyMjIwiQaZqGTgw8JBAIlEolzJ6SZXl0dPR+E+o1TatUKnNzc/l8fmlpqdPpGIZhmqYoijibz+ebm5uTJEmSpGg0OjMzMz4+HovFhoaGHqbAu1QqLS4urqysPPvss4lEoicjtBtd15EMQShwZ2dnZ2en0+lcvHjxlVdeOWJlQ8S+QTp4sICWVavVRCKBySiWZT0gRobKOEyagrfY6XQ4jut0OnNzcysrKxMTE4Ig5HK5SCQyNDQUiUTQbQaBy+VyhUKB5/lTp071PK2maXfv3r1z587y8nKj0cCjAOwsn88Hk1CWZah2uVwuFAoff/zx4ODg8ePHJyYmRkdH9yzwdhxH1/W7d+9evXq1VqtNTU0lEol4PH4/n53lQ2AGViqVcrm8vr5er9fPnj178uTJ48ePP+KVJ7wM6eDBQhCETqcDa8swDDRF3K9kBL1iMNBwZ5QKw+GVZVnX9bm5OcMwAoEAnE1ZlmFsSpIUDAbD4fDOzs7m5qamaadPn4YFZ9v2wsLCjRs3ZmdnNU3DmHvU7sFcRb0OzgA7FEKMChVd11dWVtbX14eGhi5evHj+/PlwONzj566srNy6dev27duyLPv9flVVK5VKLBa7nwhiOEKtVqvX68VicXt7u1Ao+Hy+F1544ZVXXqHUB/GIkA4eOGKxWLFYRDtEu91Ghyzq4Nx3Q+sYdvLquo7vTdN0HAd6JAiC3++XZbler6uqury8rKrq8PAwCrPxhJFIBKbWxsZGIpGYnJxUVXV1dfVnP/tZqVQSRTEYDCLyyAJ/PM/jJPCLmUvOzFKorWEY6+vr+Xx+ZWXlG9/4xujoKM7cbDaXlpY++OCDTqfDMsKO46ysrKBo3C1qOJuqqvV6HfmQYrG4tramadr58+cvXbo0ODi4v/84xNGEdPDAoShKMBjEbAXWDoERUhgnBd1h1l+73VZVtdVqtVqter2OO8iyzIbTIPeq6/rW1lY+n89ms0w+qtVqp9Px+/2BQGB7ezscDr/zzju3b99utVqyLMuyjMIdlpKGCPZIFQOLMdkMVFEUDcO4efNmrVZ79tlnn3766ZWVlevXr29tbYmiiIVKeF84ntskxLMhI4xoIPIz+Xw+nU6/+OKLL7zwQn/+eYijCOnggSOTyUQika2tLUgJmxmFkQGQORiDsAHRR9FsNqvVqqZpqVQqk8nALkMmxOfzwUDTNM0wjO3t7e3tbViOiMdFIhFZlj/77LO5ubmPPvooEomgjQ8iyGaa4tXdc57xcLdrjJeDFOIlOI67e/duo9FYXl5GTgN7NfHk8IvRCFwsFuPxOGZhoQcOb6pcLudyue3tbcuyXn755aeffjocDvf1n4g4apAOHjgURTlx4sTm5matVuN5HkYWPNweHYQ92Gq1arVatVrd2dkxTXNwcFAQBMMw2MYigGfA7CmEFJkni4JkdHEgsAjY7je3CMI+3TNECGccRiiD47hgMLi1tVWtVoeGhhKJBJ4W+ZZQKISgpKqqpVKp3W6fO3cOm0Pq9TqigRsbG81mc2Zm5qmnnjpx4kQf/2mIowrp4EFkcnIykUhsbW1xHNfpdHRdhwGFWCF00DRN6GCj0UDmt1wuh0Kh4eFheMeoQ4b55l7SJkkSjDIWUtR1fX19fX5+fmBgIBAIYFwVU0Bmh7Jn4+5dCAcdZPoIHXS/LtdNEGNkDp7c7/cj+IihMqiGqVQqfr8/lUpVq1WWD5Ek6cqVK8888wzNjiaeEPQf6yAiy/Lly5c//PDDjY2NgYEBTdNCoRBbT850EJHBer2ez+dzuZwgCENDQzAV3f6sWw2FLpIkKYqiKArUkPnOqqoiPYLQJHsGJoVcVwTZlAd3fJDpoNtahMlpmmatVhsaGoLJ6ff7HceBAqqqCjdfVdVPP/10fHwcSWfTNE+ePHnx4kUaFEg8UUgHDyKCIBw7dqzVav2///f/1tfXk8kkUhksbeKerlypVDCmcGhoCLlmhPYQgGNmHVNAJmcsdBgIBE6cOIFRBeg2sW07Ho/DXut5rFvjuK4mIg4IR5vrWohsACrigMj8NJvN4eFhnudREd1sNpHsZkNSc7lcLpdTFCWRSFy6dOmZZ56hljjiSUM6eHA5duzYt7/97Zs3b25sbJRKJRYidLrTldvtdqlUQhwtlUpJklSr1TB3D7YeYnBiFyZqTM7wI1zRVCqFsm3DMGq1GtpO4IkzHeQ4zm0Scl3Jw/c91iJ+iwZB27YVRVFVNZfLjYyMcBzXaDSQt0HdD1Le1WoVYcQ//uM/vnz5cjwe78N1J7yH7+///u/7fQZib2RZHhwcHBwclGUZKzXW1tbq9XqlUkGTXLPZxIxSv9+/vr7u3t6LoaSWZcFGY/lcJltMrVjqY3t72zAMKCOmNwuCgEpDtwi6A4XM194zaMjdW1UDM7bVasENb7fb7XYbeR5WGSOK4ssvv/z666+/+OKLXti7QhwQyB486GSzWWwgQtJgdnY2Eokgc3L+/Pmpqal4PF4ul+fn5z/55JOlpaVSqRSLxVCiDMMQhiQrhYG/LAgCOnlRFG0YBpxuWI6SJKFCG9WFXNfWc8cZOZcxyL667USO41glDSoQEYLc3t52HCcQCKBLpNVqVSqVTqczNDT0xhtvXLx40YN7+Ij+wjsPN9SEOAg0m03TNGG+SZIUCoXYrzAJZnV19ZNPPllYWEBzXjAYDAaD/i7MWWZqCGdZluVisTg7O9tsNlnXSqfT4Xke/SeCix4bkOM4ey9ghzLLFAMaYADCc49Go9gWUiwWMTHwueeeGxsb68NlJTwP2YOHiQfUDyuKMjw8jOFX+Xx+dnb21q1b8DoVRQmFQoFAAMkW2IYIHSJrjAnYlUoFA64hcFA6dA27XeCe3DGrkmEDctjDUUzjfiyqcERRhCMMfZyYmHjttddeeeWV/bqKBNEL2YNHEMuyGo1GsVhcXFy8fv16sViEFQlnGWqouGi323Nzc7VajQ1TgJz5fL7h4eFIJMJ8W+bhsgoe1kvHpuM8wB5EVqTdbjcaDdieb7zxxgsvvEBtwkR/IXvwCOLz+eLxeCwWGxkZOXv27MLCwsrKyvLyMrYXhUIhdLYFg0EYgOhFURQFcsmMOLYKipl4MOhgS8IehMxBENFMwnVLC3GYnipufAMZPX78+Pe+9z0qiyH6DungkYXn+UAgMDw8nM1mL1y4sLy8fPfu3e3t7bW1Nexyw9DTUqmE8YKO47CIIes8cU82hYXICrDZHji4z7D+WHE1HiIIArvRXX2NJzcMo1qtHt5tKsSRgXTwiAPjKxaLnT9//ty5c2tra3fu3NnY2Lhx48bCwgLa3RA0RMEzayOBtcha2dz6xbqPWTsd1JDfNQcQ0UOumz7m76VYLB7qrVLEkYF00CvAmpuampqamkL19eLiItraAoFALBZjLcw+n09RlGg0irSMu0+OFcpAK1ES6HZ48Vo9VYqcq5CQnUcQhFqttr6+PjMzs8+XgiB6IB30IsFgcHR0NJ1ODwwMtNttFGZjLKvP54vFYul0Op1OI5XM8sKsJBDy5/P5eraj9Chdz489tziOgwkL7CUIol+QDnqUzz//3LKsZDIpy/LQ0FCr1crn85qmQQQnJiYwvp9Vz/A8j+4UJEZYSoQ1rrB+FXfjCruFvS67A+xTTCrs32UgCI4jHfQmWG3O87yu67IsJ5PJVCo1NDTEcZzf749GowgXchzHuybKuGdNwx7kuusBsB+K9fAxBeRcHrFbH1mLdCAQYE9FEP2CdNCLBAIB2HGYdK1pGho82LTBTqeDrDEz5RD+M02T6y7JQ+wPaWLTNFk7MxNBpn1MATlX84llWbIsVyoVEkGi75AOehFMKnRcy5Uw7RULOVFAwzxfzjU8hhmGbDI2x3FWFxY6ZEqHH90Oslsi2+02Zs8QRH8hHfQiWJOk67rf73frFwKCTMVYxR8bsMq5AnzcLp+XSV5PlzH73v2j3V0n3+drQRCkg54F2zuZ/MERduc6eJ5n3jEeAilEwwlUkrm63K5pC26rEN+7b0EwkeO4iYmJPl4EggCkgx4F1cusL1gURbdOuds/YOWh45j1FPeUTDP17LEHoXdM+NiPmG+YSCSoeJA4CJAOepShoaFsNru8vCy6QA8c123/4O6NDAquTXX8rj1NuxMjzBJkIxhY2Q108OTJk5qmRaPRvlwBgmCQDnqUaDR66dKlu3fvYjMypMrdFrJb6ezuTmTc6G4lZgkTd6yQSeGes2cCgcDJkydTqVQ/3j1B3APpoEeRJOnMmTOJRELTNNM0MV7BXdLMZA42IBqNbVfvh1soe1Io7iAgvrp3BmDD1PDw8ODgIBXNEAcB0kHvMjMzMz09fe3aNTZVcHebMHTKPSrG2TV8n7s3cYyGORYcZDagaZrYH28YhuM4k5OTZ86c6cf7JoheSAe9SygU+uY3v7myslKv16GDuH23uqGYhmWK2XIS94gtd64Z8sd8YWYGQgTb7XY6nb506ZJ7rwBB9BHSQe8iCML58+fPnz//zjvvYDtdT2SQ+bnuZfDu+mr33XrsQRYZdA+jhgjatv3UU09dvny5D++ZIPaCdNDThMPhb3zjG3fv3t3a2mLLObmucYckMr5372ni7l1SbLuGKbhzI2xeP1NA7Cmenp5+5plnYrFY/943QdwD6aDXOX369Pe///2f/OQnlUqFu3cVJ1NDNNIxe9CdMnZcw7jcmWL4xcwXZvvaRVH85je/eenSpT6+ZYLogXTQ6yiKcuXKlfn5+bfeesttD2KxHNTN5/OxeatuHURFYU/9YE+pIMB6Jk3TXnvttVdfffUBi/cIYv8hHSQ4RVG+853vqKr661//GhLGdntalsW20zF7kOuudXdnVHoqqN25EXjE7XZ7enr6r//6r+PxeB/fLEHshnSQ4Hien5qa+t73vlcoFK5evequgsbGEhQYuv1iWIJ4OBtCw5LFLD0Cp1jX9Uaj8eKLL/7Jn/xJJpPp75sliN3Q/mLi/9B1fW5u7u233/7tb3/barX8fj9WMrEldu5USU/7HSuacadHmAgKgjA5Ofl3f/d32WxWkqS+vkuC2AOyB4n/Q1GUCxcupNNpx3Fu3LixtraGca2s+xi7me6XJ2H2oNsjRivxD3/4w29+85ujo6N9fX8EcV/IHiTuodPpVCqV2dnZN99889q1a1hVLMuyrwtMQjZwoWe8AiuUabfbsiyPjIx897vf/cEPfkD9c8RBhnSQ2ANVVZeXl2/evPnuu+9++umnkEKsNoZVyO4JdxjRQI7jMOtflmXDMP7mb/7mypUrp06d6t/7IIiHgnSQuC+qqq6urt68efODDz5YX19vNBo9Y2kwqFWW5UAgYNt2LBYTRREm5ODg4N/+7d/2+x0QxENBOkh8AZqmbW9vl8vlTz75pFqtGobx4Ycf1mq1eDyeSqWSyeTIyEgymRwYGOh0OrVazbKser1uWdaPfvQjigkShwLSQeKhQNRPEIR6vb6wsPDJJ58sLS2Nj48nEolwOJzNZiORSLFYLJVKjUajVqvlcrnvf//7zz//fM/kaoI4gFC+mHgokDLmOM7v92cymWq1urKyAnFEeaDf78ffVCxoFwShVCqRCBKHAuGL70IQ9+I4TjqdtizLMAz3SAUkUlhmuV6v67re78MSxBdDOkh8aXieDwaDmL+AskHTNDG0lZUZSpJUKBQURen3YQniiyEdJL4KmUwGw6XZljvsOWE9J36/v9Fo5HK5fp+UIL4Y0kHiq4AtS/CL2YwZnuclSUJ8UBTFWq1WLpf7fVKC+GJIB4mvQjgcTqfTTAFt2zYMA+ucmEnIcVw+n+/3SQniiyEdJL4KlmUNDAwYhoF5q2wvHSYywB6UZblYLKLPhCAOMqSDxFfB5/MFg0GO4zBjhg2ghgjCNfb5fIVCgTqLiYMP6SDxFRkfH4c7zCYsuPcgC4KgKEqj0cC4f4I4yJAOEl+RaDR68uRJdBwzq5CFCGEPorek3ycliC+AdJD4ikQikWg02m633aUzbEahIAiSJDUajY2NjX6flCC+ANJB4iti2/bw8DDcYbabCQueWMo4EAhsbm727DsmiIMG6SDxFREEIRQKYSYrm0LoOI47ZSwIAsUHiYMP6SDx1RkfH7csC64xAoU9m44VRanX681ms98nJYgHQTpIfHVkWR4bG8NAVqRKOp2Ou5paFMVWq0VdJcQBh3SQ+Oqk0+lQKMRSJVjX2TNtoVartdvtfp+UIB4E6SDxSJw4cULXdZYkwfgZFiL0+XzRaLRQKNC4X+IgQzpIPBKRSESSJLa+HV0lbr/Ytu3V1VXTNPt9UoK4L6SDxCMxNjbW6XR0XUfK2N1dx6oIq9Uqlc4QBxnSQeKREEVxeHiY4zjmF2OJHVLGCBGapkkpY+IgQzpIPBKpVCoQCPQM6IdHDDWUZblQKLRarX6flCDuC+kg8UgIgjA2NqaqqnsAF1IlKCGEIK6srPT7pARxX0gHiUdFFEW0lCBZ3JMyxkBWKiEkDjKkg8SjcvbsWUmSWPUM6yqBCOLr1tYWDWQlDiykg8SjEgwG0+k0102VQAeZAiJVoqoqmYTEgYV0kHhUYrEYSmdYNTW66zCYGqUz+Xxe07R+n5Qg9oZ0kHhUfD7fxMSEpmmWZXEcBzV0L3SXJMnv929ubvb7pASxN6SDxKPi8/lSqRTP82570HEc9yBCVVWphJA4sJAOEo+BY8eOQf5QPQMddIcIA4HA0tISdRkTBxPSQeIx4PP5YrEYK6VGDQ0TQZ/PJ8uyKIr9PiZB7A3pIPEYSCaTpmkiVeIeRMhSJbIs53K5nZ2dfp+UIPaAdJB4DPj9/vHxcaRKsLDJNE22xRipEl3XqauEOJiQDhKPAUVRxsfHZVlG8SBMQo7j2EBWpEpwI0EcNEgHicfD9PS0ruvQQdZjx6Zv+Xw+RVGWl5f7fUyC2APSQeLxoChKOBxGngT2oGVZ7p3usiwjbtjvkxJEL6SDxOMhkUgIgsAGcKGABjub2OCZjY0N6iohDiCkg8TjIRwODw0NYWcTy5awOmpRFGVZdhxnY2Oj3ycliF5IB4nHgyAIqVRKFEX4xQgRYlcJ7EFBEKrVKu2uIw4gpIPE40EQhPHxccMw4BGjqwS3I1uCLuOFhYV+n5QgeiEdJB4bQ0NDgUCAddcxe5B5x7Ist9ttmtFPHDSo1Yl4bITD4WAwiFQJ00GsdZckCVnjpaWlW7duDQwMZLNZqGQoFOr3wQmvQzpIPDYSiUQmk5mfn2dbOm3bxr66drtdr9crlUqz2fzJT34yMDAQCoVCodDw8PCJEyeGhoaSyWR/D094GZ5GgBCPC13Xf/rTn/7ud78bHByMRCIICzqOUy6XVVWt1WoYvgCVdBwHZYbpdPrEiRMnT56cmprKZrP9fhOEFyEdJB4Pd+7c+eSTT27dupXL5SKRCHrsTNOUJInjOL4L7oxECsdxnU7HMAxN01Kp1JkzZ55++uljx44lEgl2T4LYB0gHiUel0WgsLi7+8z//89bWlqIokiTJsswCgu6tdTzPM2MQUsjmtrbbbU3TRkZGnn322WeeeWZsbAwPIYh9gHSQeCRarda//Mu/fPbZZ7VaLRAISJIkSZLYhWWKYd/hq9OFiSC6kk3TNAxDFMVjx4698cYbExMT/X5zhFcgHSS+Opubm++9995Pf/rTSCSiKIqiKJi3ion80EEUUTOnmOd5GIPMJIQUYlQXNJHn+ampqeeff/7ChQuBQKDf75I4+lC+mPiK1Gq1t9566/r167FYzO/3K4qC5jl4xCifRjOJOzjoOI5bCnuWOu1If+cAACAASURBVBmGwfO8YRg3btwol8vpdPrYsWP9fqPE0Yd0kPgqLC8vv/POOx9++KGiKIFAQJZlKCCcYigg84h3+8WoK8RgLjbNnznRHMeFw+FisfjrX/9akiRykIknDekg8aXRdf3dd99lIgh3mOmgOzcCQ48lf2EVuuOD7D5wh905ZcMwrl+/LknS97///Vgs1r+3Sxx9SAeJL83s7OzNmzdN0wyHw3IXqQtzit32HaxCjuNYPBoL7eAdoxPZ7Tuz6OHs7Oz4+PjXv/511N8QxJOAdJD4cqiq+l//9V/FYhHusDs77LuX+yVJ8DxMByGFbhHkur6zZVmapr3zzjvDw8OnT5/u47smjjakg8SX49q1a3fu3AkGg8wG3O0Ru/3iHm8XMNeY6wYNsbqEiaAkSWy09fr6+m9+85uxsbFwONyPd0wcfUgHiS+Bpmm/+tWvsH+OWYJu7cOPLOq3Wwfd8UFWU90jlOi9gxR2Oh2/33/nzp1qtUo6SDwhqGSf+BJcv379zp07zB3usf7cMUHcyCawslvc37tbTdy6ycQUpYiSJGmadvXqVVp3RzwhSAeJh8U0zffee89xHMgTMwYFFxA+tyXICgn39Jp7BJQV3LCH4KvjOJ9++mm1Wu33NSCOJuQXEw/L1tZWsVh01wb2iKD7R2YJuq1CPA88YjjCtm2z2/F9jwnJvlYqlWKxODAw0Lf3TxxdyB4kHpZbt241Gg1Zlpm5x7n82Z7ssFvR0GciyzIqDWFLuhWTPaTnCd3etKqqd+7c6fc1II4mpIPEQ9Fut9vtdqFQ6LEB3ULmTom4PWLklANd0IHHKg2ZCPY8W094keO4ubk50zT7fSWIIwj5xcRD4ff7c7kcBij0WHCca7ygG2YMKori9/thA2KfJ8/zhmGgeFAQBHcNDe/qwOt5KlVVNU27X0G1rut4iGEYlFkmvhSkg8RD0Wg0dnZ2eqw//MqtWUK3e4R5zXCK4RFDB/HV3Ui357Oxehrmg+/s7Gxvb0ejUfSfiKLIcZyu6/l8fm1tTdd1bA31+/2JRCKbzSYSiT5cKeIQQjpIPBTNZpPpEegx3LhudXSPLLIYH/LLKAlkI7kAeyDfbTjpsTfx5LquX716dX19XRCEZDKZTqf9fv/HH3+8s7MTjUYTiQRc6VwuVygUCoVCMpkcGRmJx+P7e6n2D5ZlYped+GqQDhIPRTwez+fzD/68MfeWu7ePuOcO/L3ddT0KyG536yN8Z9u2S6WSIAi6rn/++efJZNIwjI2NjVQqJUlSPB5PpVKCIAwPD6uqWq1Wl5aW2u32pUuXHv/l6CuGYaiqur6+jpUGWGMQDoeHh4dhIxNfFrpqxENRq9Xi8XitVuNc1h/n6pDrkTb8yMYodDoduMOwBzGJmt2ffWX1NJxLVVnziSAIqVQqFovZto2F8YIgpNNp0zS3t7dRZT09PR0OhxEiDAaDpVLp5s2bJ06cUBRlfy/Y48dxHE3TFhYWVldXd3Z2OI6zbTscDudyOdM0Y7HY4uJiNps9duyYLMv9Puwhg3SQeCgSiYQgCGj4ZVuWuHvVkNslamzWNIsMQgdN02Ttw2wmK9dVWK4roD3aiifBqnhFUfBU4XC40+noul4oFILB4PT0dDQaNU0TBTqyLG9ubg4PDx8BHZyfn//kk0/W1tZkWU6n0/F4HFl4WZaxD6vT6eTz+WazOTg4ODQ0RBN6Hh7SQeKhcBxneHh4YWHBLV5svL5zL1zXssPWEfyIxIh7Cj+sQiZ2TDdRNGOapuOa3W9ZVrvdHhgYQNmN+0XZvifDMJrNZiQSQV4b+iiK4tra2qEuwLYs6+7du7/4xS+w2G9gYCASiQSDQb/fD7kXuhPMBEEolUpra2vFYnF8fDyVSvX77IcD0kHiofD7/T6fT9f1QCDAtMmtRG4dhAg6jmNZFt8dJ4NyGXyPHx3XdP5Wq6WqqqqqHMcJgqAoiltnscLp2LFjwWAQUxh8Ph+3yxo1DKNSqWSzWWRmgsFgq9WKRCJYoBwMBvt5BR+B2dnZ3/72t/V6fWJiIhqNxmKxWCzm1kG+u+rAMIx0Ol2v17e3t5E3x4UiHgzpIPFQdDqdkZER2GswvmCFQZWY4QbPl7s3g+y+vceWxMbOcrlcr9ebzSb0zrbt4eHheDxumiZexbIsURSTyST2HUNnWXaFFevge5yK4zhRFP1+fyAQWFtba7fbh1EHHccpFovvvvtupVIZHh6OdYE9KMsyCjNxKfAHQ9f1YDAYCARqtVqhUBgcHOz3mzgEkA4SX0w+n19ZWbl79y5LenQ6nR6r0K2MTnemFnC6GWGWFGYPaTQa5XJZ0zTTNFFVw3GcaZrFYrHdbiuKglc0TdPn87HX5Tiup5wbKgBfmOVMocWSJEWjUU3T+nDhHplWq/X+++8XCoVMJhOLxcLhcCQSQQooFAphWzREH9cWpZqtVgvXbWNjIxaL0c6/L4R0kHgQtVptcXHx008/nZubCwaDiqK02224xlAcJCtYazCriHanONyVgI6rOKbZbBaLRV3XeZ5HkAt11xzHlUqlWq0WjUZlWYY9iNxoo9HAq7ibmn3dFSi2bUciEfb8eGCz2Ww0Goe0w6Tdbn/22WeKooRCoVAoBEMPRi6cYneJJbsU4XAY13xxcbFUKo2OjvbxLRwKSAeJvXEcZ3Z29n//9383NzcdxxkcHPT7/SjK03Xd7/dDZTqdjq+7ZalnPiDrCUEUn9VXw6CzbTuXy7VaLWbOsDrtSCQiimKz2azVaohLWpYVCAQcx6nX65ZlKYqCe7JxXtDEWCw2MDAAaUCwrN1u27adSqUOqU10586dWq2WyWRYazYDfzl2P0QQBFmWEUCIRCKFQiGbzVLu+MGQDhJ7sLq6euPGjd///veWZcViMbhgoVBoamqqUCjAJGSTVvHVHRB0HAfeMeSppyYG4thqtZrNJhIpkELcE9EuPKTVammaZtu2pmmXLl2SZbler1cqlVAoJMsye0VBEILBYDKZHB8fh91n27au681ms9ls5nK5qampw9Vu4ThOu91eW1v78MMPOY5jyw/Qk8NGVDzgGTC/NpFI5HK5drtNOvhgSAeJ/59Op1OpVBYXF//nf/4HYheJRBBywudqbGxsY2Pj7t27qqr2jKHe3SnMMiQsj8FeiOf5RqOB7DBUjz0JNBEenyAI0LLh4eE/+7M/GxgYuHv3br1e1zQtl8vNz8/bto1EQSQSmZ6eHhwcRABR13VVVWu1Wq1WCwQCmUzmEAlBrVabn59fX1+v1+uohUTkAReHXfMHKztrZOQ4Dknz/Tr+oYR0kPg/6vX64uJioVDY3NxEAy/zv9gaJkVRTpw4USgUMIiQzaN2fyZ3G4Mw+nruY1kW3F5BEJhIufMe7P6iKIbD4c8///ypp546f/48aoZ1XX/zzTc3Nzenp6cFQRgcHEwkEs1mk+M4uIStVqtcLi8uLv7hH/7hYSmjKxaLq6uri4uL+Xw+nU4PDw9HIpHNzc3t7W1cT3d09cHg4suyjEjuEz32EYB0kOCazebW1tbq6qplWZlMJh6Pw6ry+/2QP+aIWZY1ODg4OTl569YteFvumhV3bkRwwUTN7cmiMa7Varn9O7eLjZwJhLJWq/3rv/7r5cuXf/SjH0WjUY7jJEl66aWXrl692ul04vG4bdvFYhHjG1BxXalUNE0bGRlBOeH+X9WHx7btra0tGNqmaQaDwdOnTyPPG4/H0+m0z+drt9s9pZpf+JyO46iqisvo0CCGB0I66HWWlpYWFhY6nU4kEsFuTEEQqtXqxsYGchSsXQFNIDzPj4yMLC0tVSoVZgm6P2MocsZnz13o15NKDgQCoihWKhXHcVgyl793Vg37EbMVFhcX33777XPnzk1OToqiODk5GY1Gf/Ob3ywvL0ciERTZiKIIpzgcDj/33HPoP9n/q/rwbG1tLS0tff75547jRKNRhDiDwSC+IkevqurNmzdVVY1Go6x5xnatNNgNzMBAICBJkrtrm9gT0kGP0mq1KpVKLpfb2tqKxWKDg4OoTQsGg4IgTE1NNRoNjuPgsSJExb7atj00NKSqarvdht7hOWGDQDpZpnjPSBZCXZlMptVqIWXMTDY2sh9qiB85jnMcxzCMN998c3V19c///M+HhoY4jkskEs8++yzigLqu12o1nucDgcDo6Ojp06cPci8dqseXl5fv3LnD83wqlYrH4/gnCAQCqI9hKxBGRka2trYMw8CfIlZQeT8dZEWXKFCfmJjY53d36CAd9ByWZVUqlbm5uVKplMlkjh8/Ho1Gw+EwvGBo1sTERC6Xy+fzqIxhHcEY9GQYRiAQCIfDoiiioI/rLl+HRWbbNpMz1lrnDm/hm4GBAVVVt7a2qtUqygOhpOwYrPAQcqzrejQanZ+f/8UvfnHlypXx8XFJkkZHR4eHhyGa5XI5Ho83m81QKHRgfeFOpwP5w8wY9AvD9AuHw6w+xv33Ix6PHz9+fG5uTlVVv9+Ppml32MH9/BBBlKaXy2U8VR/e56GCdNBbFIvF9fX1UqlkWdbMzIy7Q8v9cZJleXR0tFgswsLCwAJd1zVN0zSt1WplMpm/+qu/8vl8//3f/721tcVKAm3bRjCRFcT0pJJZPwkeEovFDMMoFouY88p1i7G5bqSf+cgwPCGs7777brlcfv3110+cOIF74tjJZJLjOAQQ70cfI2W6rm9sbMzNzW1sbIiiyFpEWH8ISqN3W9CCIGQymc3NzUqlgjET7CqhmIbrhhTgDuPfqNFotFqt48ePH8aGwn2GdNAroPd+eXnZMIzR0dFkMhmNRqGAe7pXmUwmk8lUKpV2u22aZrvdbjab9XpdFMU/+IM/uHTpUiqVwu6Rn//850tLS6ZpYvh+p9ORJMmyrN2pEufe2Vyou0YfcT6fr1ar7mEN+Hi7ZZTrJmSCweDdu3ffeuut73znO6dPn35wJV2n04FPLUnS0tIS6qtZcy56lpH7fhKXHWiatr29fevWre3t7XA4PDY2xv4CwQWGF7zbuGMEAoHh4eGdnZ1qtYoSS47j8FeHteIgdIjwqGEY5XI5GAzG4/FDVDPUL0gHjzioyN3e3p6fn0ckfnBwMBKJwPp4gIL4/f7p6en19fWdnR1N0+r1uiAI58+ff/bZZ8+ePcvudv78+UQi8f7773/00UeapmGQDIwUtrKd65ps7NOLr1YXQRD8fr+maaxtzl167Y4VMvPQsqzFxcVf/OIXPM9PT0/7/f6e88MyWlpampuby+VyHMdtbm7WarVGo+H3+3H/TCYDMcpmsyMjIzMzMzCdHqMjqWna3Nzc2tpaqVSybXt0dDSRSMAFDoVCaI9j268e8Dw+n29wcDAej5dKJcQf2KVmD0cQQ9d11Kjbtj0zM3NIGwr3GdLBowPTDncmcXV1dWFhwTCMbDYbiURYKPABhbiWZSEOiMkl8IUnJiZeeuml559/vufO0Wj07Nmz6XQ6FApdu3atUCioqgrThlUXss45Vl7jnssAFEXB3MBSqcS5Rmn1WIXsqXRd9/l8n3/+uaZpX//6169cucKOZJrmysrKnTt3bty4sbS0tLOzg1mtTJQNw2g0Gii1EQQBO/AmJiYGBgYmJiampqaw1WS3tn4p6vX6zs7OzZs3c7lcIBCAiuEvEP4IPaQCApQxpVKpjY2NQqGAGkmULrFRC2zALYZunT59enh4+FHegne4ZykEcUhRVTWfz7NWCiQxFEXZ2tpaWFiIRqMDAwMY3olqlft98OAzqqrabDbL5XKlUsnn87IsDw4OHjt2LJ1OP/gYS0tL77333tzcXLlczufz6PRg0/GQJxG6Q63hFMN+GR4ePnHixMWLFy3L+uCDD+bn5wVBYNs+AcuZQENZ/rrT6YyNjT3//PMXL14UBAFDm99///1SqYRQGop4epx0HNhxLQ8QBAGFJoqiTE9PX758eWJiIpPJfNkZ90hDzc/PLywstNttLJCKRCLMC8aUBHeM78HgH0XXdcMw8vn8r3/9a8dxkskkzEk2h5XvzrgtFovhcPipp54aGhqidSUPCeng4aZcLq+trW1vbxeLRfi5mqZ1Op1QKIQ2jLGxsVAoBC+M5WF3gyQjet0ajUaxWMzlcn6/f3Bw8MKFC1/q45TL5T799NNbt25tbGxUq1We5/ExxuB4yA3GNAwODo6Ojp46derUqVMzMzOw+NbW1v7xH/9xdnYWRhNijj2NK24phAWkadp3v/vdra2t69evFwoFNOSy3jL37nmua126J4ABNvVLEIRgMDgzM/P1r3/97NmzDx9f29nZWV1dXVpaKpfLsVgsk8lEo1F2/fF27jcfYfe/CBsV0Wq14O3u7OysrKy0221cyUgkghpyhBpQtJRIJCCCD/9PRpAOHlYcx8nlch999BEmjCYSCYSNbNtutVqmaabT6WQyiSkJ90uGANM0kWGs1+v5fL5QKDSbzePHj58+fToajT7Mh3Y3tVpteXm53W5Xq9W7d+9iwVMgEDAMIxqNIgkzNTWVyWQURXG/hG3bN2/e/NnPfrawsIA8DLSDBRyZFLJ5XK1Wq1qtYpw1EiCQTrcI4oHurIs7jMB0kG1NMQxDEITBwcGXX375ueeee/AqZNM06/X63NzcBx98YNv29PQ00lCQP2RCWJ73Cy8di/0hIqHreqlUKpfLlmWlUqmJiYlarba5ubm5udlqtYLBIJaxxOPxTCYzNjaG9BcVTn8pSAcPK9vb2wsLC7VaLZ1Oo+sAHhwyhjzP46MIs2jPZ4ANiGBZvV6vVqurq6vNZvPkyZOjo6Pj4+OPfkg2sDqXyw0MDDSbTUmS/H4/kh4PeOD8/PzPfvaz69ev+3w+iAizCt2RTejF2toadBYuJ0JmTATZUByIYI8UupPX7pAl1gYYhpFKpc6ePfu1r31taGho9/Auy7J2dnY+/PDDa9euNRoNy7JOnTr1wgsvRKNRlENDl79wPAxgCggbEGxtbXEcl06nJycnU6kU/jUtyyoWizg8yioRcCT5+2qQDh4+HMdpNptXr15VVXVoaAgWH5vPjg+SaZrJZLKnKtANK7Co1+ulUml7exsDZkZHRy9evLjP72hP5ufn//3f/312dhZSwiY+uJ1ctMSgs5j1YDAdZJagu4xRcPU7u+u6e1I3iDxiB4BhGE8//fTzzz//0ksvuU+4vLx8+/bta9eura6uyrKM2TypVOpb3/rW8PCwz+eDdj9kEJClp2DYlsvlWq3m8/mSyeTw8HAmk6Fg35ODruzhw7KslZWVarWKIox4PI7PPz7ebEnF/f7C4YONOlsUFZbL5VAo9PLLLycSiYMzr/TYsWNvvPGGLMuzs7OoAcTtaDixbVtV1eXlZVVVFUVhJXi7jUEoZo9f3PNa7gUDMAxZ0Q9aqm/fvt1qtWKx2KlTpwzDyOVyd+7c+c1vfpPP58PhcCqVcocy6/X68ePHH7L4BlY5atR1Xa/X641GY2trSxTF8fHxqampg9wbc2QgHTx8YEJnJBKJxWIIw7tHCTDbBx9s92cejh7SwbVaLZfLIRly+vTpU6dOPWKZyGOH5/kzZ84MDg7++Mc//uCDDyBkUEOkg7a2tprNJgbEohNDFEVIITIkbh1050k4VwsKd2+qBArYUwSOHPfq6urbb7+tquqtW7fm5uaq1SoKD/HSbF2y4zjlcrnVaj24rYXr2oDtdhs2IP5RGo2G4zjDw8PT09NfmKAnHhekg4ePjY2NZrM5PT3NPMGeO/A8L8uyYRj4PHOunlN82AqFQqlUMk1zcnLymWeeeXAWpb/E4/HXXnuN5/mbN29iNjXHcaZp7uzsoMkMFUJMiZgIuv1iFhlk5dxu15hZmlZ3Sz2kkJmESHlLknT79u319fVWq6UoCmxAtjnT7Yxrmlar1SKRyAPqk7Cor9VqGYaB0AReYnJycnR0FNMu9usaE6SDhxDLshAXZ7trd98Hn3N4x/im0WjUarVKpbK2tubz+bLZ7MzMzMGvsxUE4cyZM9PT0z/+8Y/ffvtt6FqhUKjVaogJMoeU1cowPeK7A5zdeRLONd2LvQrUEBWOMNOYVrqrDpEXRu0elJeVKLI5tbilXC7vuRSFRS2QoEeV0ubmZiaTuXDhAgo89/PyEoB08PARCoUMw+BdE/r2RBRFtgMEcfdcLof8yblz5w7XWltZlr/+9a9jUBVWlPh8Pvci856wICpUmAgyq5Dr/oXguq3K7BuEETiOY7sEeBc4BsKIwWAwFouxPSH4BiqMZA46VSKRyOTkZE/td7vdVrtgAVYwGDx37tz09DR1AfcR0sHDR7lcZsGsB6T78dtqF+zAhQIeOqMDVuHJkyf/4R/+4T//8z85juvxSd2JEXdrM0uScK6VeG6nmO+2PMMYdLpjE93GIFNMFnLFtFq8BGxAVp/EtgI4jjM4OBgMBlHvzeKASASbpplIJMbHxwcHBx+ysYR4cpAOHj5GRkYWFhbQR4GQ1p6fItZt2mq1VldXJycnv/GNb3zZLrHHDgQFA1yF7oK6h3ysIAhPP/30W2+9xVrTmAi69we4u+h8rjXHTODwukzdONfCAIxuZmO02ZlxTyxTVlWV5/lgMAgRRH7GcRyUK+m63ul0UN+3trY2OTmJUT3Yvbe6uioIwtjY2MjISDKZpETwAYF08PCBLgtVVRFmYu237vugFKPdbsMRa7fbMzMz/RXBfD7farUKhUKhUID9JUlSNpvFKOZQKPSFz+A4zp07dxzHYSUy7qYR/OguGGRWIdftpWOWl7Cry5iJICTSvVHAfR8onaqqWAoMt1fXdQypRYs3Gp/b7fb169cx1AstcbZtDwwMTE9PH/ywrNcgHTx8YHbW9vZ2JBLB5zwYDLJhnEgNQ/4QHyyVSmNjY5lMpi+nRR3J2traRx99ZBgGlouzUN3t27cTicT09PTIyEgmk3nwkKjt7e1f/vKXbgV0Z4QZPVMVhG5PcY9TzN27UplZiEwB2ZoBdmfHcfx+P2pcOI7z+XwYf4DUPMxAmOG4cWlpyTCMgYEBVgqDmvAnd7WJrwbp4OFDkqRTp04Vi8VKpYKSl06nw8avY+QMJgZWKpWdnR1d1y9fvtyXDbamac7NzV29ehWT8tAEzUat8DyPkQErKysbGxtDQ0MzMzPoON7z2d57771KpRIOh1lljDssuLt/jukj192E15Mq4e7dtOf2i3e/Ots/JUlSuVze2dlJp9OwBJkIQgHhGhuGUSqVBgcHx8fH4QU/qatMPDKkg4eSWCw2MzNz69YtTdOy2SxGCgrdYZyI0zebzVwuV6lUjh079liahb8szWbz008//eyzzxzHQREJMrxQLu7eQmJN0z777LONjY0TJ05cuHBht9FkWRaMQXcmhIUF0U6DBtseKeRcTrGwVz9JTyGhO/WEYhp8gyCgZVlIxKP8SJIkuMP4Clms1WrhcDibzb744osXLlygcuiDD+ngYeXEiROlUimfz6+vr2PXLcwoBLCazSa2rZ87d+7pp5/e/+MZhvH73//+5s2bsVgskUhgCAriemyYYE9TraIopVLp5s2bAwMDsViM53kMT8U8lY8++ggjnTmOQ+sb1AfvNxwOS5LUarUCgQC8V7R2QPV83bXI/F5zFna7w+xdMGVkqspkFw05GOvPlrcYhiGK4qlTp5599lkEZKkc+lBAcxYOMZZlLS8vLy4uNhoN0zQ5jguHw8if2LYdjUYnJiYuXbrUl7P9/ve/f//99+PxeDabxUZKzKCHDrq7XFhdcaPRaDab6JYJBAKapsmyjPZe27ar1eri4qLQHXPNfoXHyrKMr5hOmkql0uk0zEO+O8XanTtm8uQuiGEtxrYL5vPiG6ML1o0i52uaZrVaTafTZ86cOX78+MzMDM1EOFyQDh56bNvG7E/YVjzPZzKZdDo9MDAQCoX6Yo/ouv5P//RPjuNks1k2iY/14fb4xSg3QVanXq+Xy+X19fVisYjalE6nI4oiFApmINcN6vE8bxiG4zgYTIBNlShkCYfD4+PjY2Njfr+f1UUzHWSz/rluaTTrqHNLoXsSV8cFdBAH9vv9mDA4OTn54osvjo2NkQF4GKG/WoceQRCmpqampqbglFmW1ffOhOvXrzcajfHx8UgkglmkGAaB4CDLXXDdTlsMPYWnjAJjDLIOh8OshAX3Z/6sO8aHAaXr6+uapnFdMzOfzwcCgaGhIXdLCcursCghxA65JnYkfOM+ZE8Cmud5PFW9Xp+ZmXnjjTfi8Titxzy8kA4eHZBb6Ls9YhjG1atXY7EYdvIiLMgmpPYcj9X6cV1NNE0zHo+nUikMW1YUBePyd8sfu1EUxYGBAVEUV1ZW2H0wHSsej2OkNkv1uqWQ4ziW53XunUXId3vv3IFFlm5mBiYGQVM94GGHdJB4zMzNzbXbbYTnmAI+eC8HKsPh+WJJHgKdPp/PPQ2Mv3cyAktrQJhGRkZqtRo2LHMch03KmqbF43GW4oAU4jBcty4almBPSoTjOExb4LrCx1xyd/ZZFMVKpVKtVuPx+BO7osQTh3SQeMwsLi5iBox7MOqDlxPxPI/V7xhVAOlEvrhHB92dcO5sL8/z6XQ6Eom0221mwXU6nVarhUoXSCFSvWxOD8piUGyEWVvM72YvygSXWYWcy07sdDpra2vtdvuJXU5iPyAdJB4nrVYLSsE2JX2hCAK+OyOLmWyCIASDQWa47b6/+0ZBEBzHGRgYKJVKrGfO5/Mhs4HEsds7xpFY+sXdkcLCkUxhe9xkzjW5CzkZVVUf4zUk9h/SQeJxEgqFsFzcd+8MVP4h5qkwJcKjRFFUVTWTybgDdqBHngDCoxh7xXTQ7dv2SJi7307Ya8oWc4f5blHh7qfCstOHaY4mDjKkg8TjpN1uo3j4YYSvB7fXCVMO88H2dFR3935gho37RqTO2T3dk8pYFY7jgusmix3XPC72oj0vhzsgRYPiTeLwQjpIPE4wFhBr3tyVmxXUOAAAEHZJREFUyQ/zWLcYdTodSZKazWYqleJ29bqx4CDcYdxuWVatVsPEF7fh5vP5HNcuOpTp4LGsOpqVCnIuKezJILPv3bfoul6pVPqeoyceEdJB4nFi2zam4ECPWDXyFz6QlS6z9cGGYYRCoU6nw3dHv3D3jkVwP9bn82maVigUUIrIddfaYWCq0x0HLQgCbDe2WBkBRNM0dw+13fOF3IKIDEwkEul7wSbxiJAOEo8TQRDgJ6JbDlUpMLge3GrmdFeY44HIwIZCIUxzYfUx7hyxu9KF47iFhYVGo4GWZCyowgITrmvi4fm57uQY1uDs7hXp8X93W4XMyGXG4+jo6EFb9Ud8WUgHicdMOp0OhUKtVgtVLIFAwDAMNhRrz4egjq/dbmNoFfa9KYoCGWWOKrdLofjuiIR6vb66utpsNmGKWpaVTqfT6TRmTzAlRUk2+kNYBBAWaI8j78bdbOfc236HQhzSwcMO6SDxmEmn0ydPnrx27VoikdA0jbWRCIKwZwqFiSDmPDebTeyWEkWx2Wyi4w2zDJgwoR2Y+bmVSqVQKFSrVdwTG40nJiZQQQ3bsKdx2B3RYyMVnHsTKW6Ts0cimXqiqfErJIWIAwXpIPH4OXbs2N27d8vlMtulyYwvlNQw4WCJC6xwwx6Per2O0WFQQ9u2UfQ3Pz/PciO4neM4rCR1HCeZTJqmGY1GMekL64MhVewbzjVs1X3gHh3ssf6c+4xgcBxHluWRkRGaLnPYoX8/4vGTTqdPnz598+bNRqMBG5CF/3rmbmFGDhvf0mg0yuWypmnT09PRaNRxHDSWxGKxarW6ubl57do19CxjwL2iKLFYDHO9RFEMBAK2bSuKAi8YOZYeEXS6/SHstG4XmN2y5wwu9xAa3OH48ePkFB8BSAeJx48gCOfPny8UCqurq4jxQQTZwnXBNX8QMUG2SoXn+eeee+706dNoEHabWvPz85999hlrfRO6A/fZfTBxB94xO4nd3cmJb1hlNTsDd+8warf87Q4LMjXE80xPT6OyhzjUkA4ST4RAIHDu3LlOp4NGN9u22+02+o7d8wfdOlgul3Vd/6M/+qN0Oo3mkB5/8/Llyz//+c+bzSYTVsQHEUOE/+suHuyp13F3y3H3plzYN043Eey4Sg7dBT1sE5Nt2xhxSMHBIwDpIPGkmJycTCaT165dW1lZQTEgcibwW3Ef5Ijr9Xqj0RgeHj527NjIyMj9nnBkZOS55577n//5H9M03euZ4P+ySsOeVhDAAos9nXPcXjro/sp00F1kA0GcmpoaHR19EpeO2GdIB4knSDQafeWVV06dOnXnzp2tra1WqwXXFctDHMdB50k4HL506dLFixcfXHEdDodfe+212dnZUqnEltUxS9DdJsxxnNs7Zk50Twcx+y2Tzp6YoNsMZEXXOPPIyAgFB48MpIPEEyebzWazWV3X7969u7W1haoXhP8URUkkEqOjo4iyfWGD2vT09JUrV958801W+cxmCyIZAiHDKijkYbhulNBxTdDi7l1ezN2bLdmtg6zthFWGnzhxYmZm5sleOGK/IB0k9glFUc6dO3f69Gn0DkMEdV2/37biPRFF8aWXXrpz587c3Byz/tjMGK47bwadIcwXdg+V4e7dX8zYXTFjuVazQwRhDFqW9dRTT126dIkG8R8ZqD+c2FdEUfT7/ah25jjuS4kgOH78+F/+5V8mEgmsDIY8MUuNpad7YnmWa+1cj8O7542de0G/s2EYqPf+2te+RpHBowTZg8ThY3p6+tVXX/3lL3+JAag9Hi7rPnYcB8NmMFKBDRO0unOn2RP2OMXw3Jl0MhHEjy+++OLExATVTh8l6N+SOHwEg8Ef/vCHwWDwP/7jP1jzMn7FUsAs6sdKCN3DVnvuzO2qHHSbkKjsQXrk+PHjr776ajQa7c87J54MpIPEoUSSpCtXrmxtbX3wwQeqqrpLAuHkiqIIEXSvb3fDdQOFtmvgYE/NIAKCzOM+f/78K6+8Mj093d/3Tjx2SAeJw0o2m/2Lv/gLn8/329/+FnO6oGiYBgghw0Jnth5gt0kI7O4QLQbziOEU8zz/7LPPvv7665lMph/vlXiykA4Sh5hMJvP666/zPD87O1ur1ZzuOGvLsjDQwbZtVlLDFpJwuwp03MYgcs0s94JOmG9961uvvvrq4OBgX94m8aS5Z/MDQRxSrl+//m//9m/Ly8uCIKB1DzrItrYze5DjOHcBDeea0srKZeAR27ZtGEY8Hn/ppZeuXLmSTCaphe6oQjpIHAUMw7h9+/bVq1dv3bq1vb2NBfDu3jv38jzWW8Kiiu4uOiRG8Kvnnnvua1/72smTJ+83QZY4GpAOEkeHQqFw+/btGzduzM3NFYtFURQVRUG4EGroDhHiIe40MdsBIMvyiRMnTp8+/eKLL1Jq2AuQDhJHja2trbm5udu3b29ublYqFSR8sa4E5YS4G+SP53mkQaCAlmVFIpGLFy/+6Z/+aTqdJjPQI1CehDhqDA8PDw8Pnz17tl6vl8vlubm5paUlzHktlUpcd3c7q7LmOC4YDCaTSdZ+Z5omtu71+60Q+wTZg8RRBhXUjUZjeXlZVdWf/vSny8vLyWRSURTs24xGo/geQcNms9loNEKh0A9+8AMasOodyB4kjjJQt0gk8vTTT3McNz8/XywW0+l0KpUKBoPRaBQZFTQRt9ttJE/q9Xq9Xicd9A40Z4HwEEgiW5al67rjOLqu27aN7xErRFq50WgUi8V+H5bYP0gHCQ8xNjam6zobqorCafcdWIiw3W5jdiHhBUgHCQ/h9/vhBbM1TJxrSg2rLhRFcWdn58HDsYmjBOkg4SGOHTsWi8UQDWSDV/Er1neM2YiFQkHTtP6eltg3SAcJDxEIBIaGhtA17F5DzHV1EE6xZVnkF3sK0kHCWyBPYt8LMwyhg4qiGIZRLpf7fVhinyAdJDyEz+cbHx9nIwXdfjEbSIOphX6/n401JI48VD9IeItsNhsMBtmMVVmW0XWHgazoqxscHMQ+Jhow4xFIBwlvMTAwEA6HUUgoSRJMP57nsWY+FAoNDAxIkrSzs8NxHGa49vvIxBOHdJDwFoqijI6OKooyNjYWDoeTyWQwGLRtOxaLxeNx5Iur1arP56tUKrqu03JOL0A6SHiLdDodjUb9fn8mkxkfH4/FYrIso5kEd0CaOBaL1et1KiH0CJQnIbyF3+8fGBhoNpudTkdVVaieOw6IOmoMo6bSGY9AOkh4DkyXgcwha+z+LVxjGIm1Wq1fhyT2E9JBwnMMDQ01Gg2sYdrT4sPwalmW2+02lc54AdJBwnOoqspxnKZpWM65OwgIkzASiXQ6HSqd8QKkg4TnOHHiRDAY1HUdXca7TUKECMPhMMb69+WQxH5COkh4DlEUo9Fou93GwIXdni900DAMVVU7nU5fDknsJ6SDhOfAUmN01yFbsmeqJBKJWJZFqRIvQDpIeA5BENLptKZpD06V8Dzv9/vr9fr+n5DYZ0gHCS8SCAQwkR+L23ffAUvfHccxTXP/j0fsM6SDhBeJRqPIk8Ae3DNVIstyMBjEUuO+HJLYN0gHCS8iy7Lf79c0DSK4Z6oEVYTlcpl08MhDOkh4kWw2K8uypmmGYezZP4dUSTweh83Yl0MS+wbpIOFFAoHAwMBAq9ViI6l77gAd3LPxjjh6kA4SHiWRSPh8PlZNvbt0RhRFRVEcx6lUKv06JLE/kA4SHmVoaKjVamFA/54RQIQIJUlqtVpkEh5tSAcJj9JoNDqdjq7r95NC5ElCoRAN6D/ykA4SHuXMmTOJRAKl1HsGAeEaU5exFyAdJDyKIAihUAijWBEi3H0HSZIMw2g2m5QyPtqQDhIeRRRFnufhF99v6gxKZ7DDsy+HJPYH0kHCo4iimEqlkCqBFPa4xo7j+Hw+3FgoFPp0TGI/IB0kvEsymRQEAaUz9yul9vl8qqouLS0VCgWawXVUIR0kvEsmk0G7CAYR7g4RQgf9fv/6+vqvfvWr+fl5ksIjCekg4V2uXr1ar9dVVTUMY08d5HleEIRgMJhOpxuNxjvvvJPP56mW8OhBOkh4lHw+//nnn9dqNdZi7BY4x3E6nQ5mtQYCgWw2Oz4+LknSZ599pmlaH49NPAlojzvhUd599916vZ7JZLCqWNd1Xde57i5jeMqGYYiiGIlEJEmSJMmyrEqlsr6+fvz4cUEgG+LoQDpIeJFqtbq4uBgIBNLpdCKREARBVVUs85QkCWFBaJ+iKIqiyLIM4dvZ2blx48bIyEg4HO73myAeG6SDhBe5fft2p9OJxWKRSCQcDkcikVAohMEKsixjKD/P847jQA1xC4YVrq6ulstl0sGjBOkg4TlM08SyunA4HAgEAoGA3+8PBALBYFCWZUmS2D1ROiMIAjQRD0wkEpi8QE3HRwaKcRCeQ5IkTdOgfbIsy7IMM1CWZVHcwzLgeZ45yIqi+P1+2u9+xCAdJDyHbduFQgHeriRJkD9wP3WDFEIxA4FAoVBAUoU4GpAOEp7DNM1gMKhpGsoD8RURwAc8Csvd0X/iOM7uYkPi8EI6SHgORVEmJyf9fr/TheuWyzwYxASj0Wg2m6W6maME5UkILzI6OsrzvG3bmDy454qSHqCYoigahiEIgqIo+3NUYh+gv2mEF0mn00NDQ8gao78Yi4zvd39oJYqrTdNMJpP7eVriSUM6SHgRn883NDSk67qqqpqm6bqO7rr7WYW2beu6bllWvV7neT4Wi+3zgYknCvnFhBcRBOHSpUuNRqNarcZiMVVVFUVBGoS1jjAggq1WS9O0SqUyPDxMTvERg3SQ8CixWOyZZ5753e9+VygURFFkI1dt24YU4kfLsgzDgNlYrVYlSRoYGCAdPGKQDhLeZXh4+NSpU9euXSuXy+gbsSwLXSUoo0FMEF7zwsJCNps9c+YMBQePHjwNUyM8ztLS0q1btzRNy2QyiUTC7/ej0RixQl3X6/U6agZPnTqVSqX6fV7i8UM6SBDc9vY2Ju8LghAIBHw+n6IokiS1221VVWOx2Pj4eCqVkiSJygaPJKSDBMFxHNdoNPL5vCiKuVyu2WzCJIxEIp1OZ3R0lHzhow3pIEH0oqpqMBi0LAtdd/0+DvHEIR0kCMLrULCDIAivQzpIEITXIR0kCMLrkA4SBOF1SAcJgvA6pIMEQXgd0kGCILwO6SBBEF6HdJAgCK9DOkgQhNchHSQIwuuQDhIE4XVIBwmC8DqkgwRBeB3SQYIgvA7pIEEQXod0kCAIr0M6SBCE1yEdJAjC65AOEgThdUgHCYLwOqSDBEF4HdJBgiC8DukgQRBeh3SQIAivQzpIEITXIR0kCMLrkA4SBOF1SAcJgvA6pIMEQXgd0kGCILwO6SBBEF6HdJAgCK9DOkgQhNchHSQIwuuQDhIE4XVIBwmC8DqkgwRBeB3SQYIgvA7pIEEQXod0kCAIr0M6SBCE1yEdJAjC65AOEgThdUgHCYLwOqSDBEF4HdJBgiC8DukgQRBeh3SQIAivQzpIEITXIR0kCMLrkA4SBOF1SAcJgvA6pIMEQXgd0kGCILwO6SBBEF6HdJAgCK9DOkgQhNchHSQIwuuQDhIE4XVIBwmC8DqkgwRBeB3SQYIgvA7pIEEQXod0kCAIr/P/AeE8aE24ae6lAAAAAElFTkSuQmCC;" parent="1" vertex="1">
          <mxGeometry x="2080" y="-3440" width="536.25" height="520" as="geometry" />
        </mxCell>
        <mxCell id="6PFC0uBbz8MOIDidI4Xx-218" value="" style="endArrow=none;html=1;entryX=0;entryY=0;entryDx=0;entryDy=0;exitX=1;exitY=1;exitDx=0;exitDy=0;strokeWidth=8;fillColor=#b0e3e6;" parent="1" source="6PFC0uBbz8MOIDidI4Xx-219" target="6PFC0uBbz8MOIDidI4Xx-222" edge="1">
          <mxGeometry width="50" height="50" relative="1" as="geometry">
            <mxPoint x="2970" y="-3190" as="sourcePoint" />
            <mxPoint x="2970" y="-3230" as="targetPoint" />
          </mxGeometry>
        </mxCell>
        <mxCell id="6PFC0uBbz8MOIDidI4Xx-219" value="" style="ellipse;whiteSpace=wrap;html=1;aspect=fixed;fillColor=#b0e3e6;" parent="1" vertex="1">
          <mxGeometry x="3010" y="-3120" width="80" height="80" as="geometry" />
        </mxCell>
        <mxCell id="6PFC0uBbz8MOIDidI4Xx-220" value="" style="endArrow=none;html=1;entryX=0.5;entryY=1;entryDx=0;entryDy=0;exitX=0.5;exitY=0;exitDx=0;exitDy=0;strokeWidth=8;fillColor=#b0e3e6;" parent="1" source="6PFC0uBbz8MOIDidI4Xx-221" target="6PFC0uBbz8MOIDidI4Xx-222" edge="1">
          <mxGeometry width="50" height="50" relative="1" as="geometry">
            <mxPoint x="3040" y="-3300" as="sourcePoint" />
            <mxPoint x="2941.715728752538" y="-3178.284271247462" as="targetPoint" />
          </mxGeometry>
        </mxCell>
        <mxCell id="6PFC0uBbz8MOIDidI4Xx-221" value="" style="ellipse;whiteSpace=wrap;html=1;aspect=fixed;fillColor=#b0e3e6;" parent="1" vertex="1">
          <mxGeometry x="2920" y="-3330" width="80" height="80" as="geometry" />
        </mxCell>
        <mxCell id="6PFC0uBbz8MOIDidI4Xx-222" value="" style="ellipse;whiteSpace=wrap;html=1;aspect=fixed;fillColor=#b0e3e6;" parent="1" vertex="1">
          <mxGeometry x="2920" y="-3200" width="80" height="80" as="geometry" />
        </mxCell>
        <mxCell id="6PFC0uBbz8MOIDidI4Xx-223" value="" style="curved=1;endArrow=block;html=1;strokeColor=#000000;strokeWidth=2;fillColor=#000000;endFill=1;" parent="1" edge="1">
          <mxGeometry width="50" height="50" relative="1" as="geometry">
            <mxPoint x="2910" y="-3150.0000000000005" as="sourcePoint" />
            <mxPoint x="2920" y="-3130.0000000000005" as="targetPoint" />
            <Array as="points">
              <mxPoint x="2890" y="-3150" />
              <mxPoint x="2890" y="-3130" />
            </Array>
          </mxGeometry>
        </mxCell>
        <mxCell id="6PFC0uBbz8MOIDidI4Xx-224" value="" style="endArrow=block;html=1;strokeColor=#000000;strokeWidth=2;fillColor=#000000;endFill=1;" parent="1" edge="1">
          <mxGeometry width="50" height="50" relative="1" as="geometry">
            <mxPoint x="2980.24" y="-3240.0000000000005" as="sourcePoint" />
            <mxPoint x="2980" y="-3210.0000000000005" as="targetPoint" />
          </mxGeometry>
        </mxCell>
        <mxCell id="6PFC0uBbz8MOIDidI4Xx-225" value="" style="endArrow=block;html=1;strokeColor=#000000;strokeWidth=2;fillColor=#000000;endFill=1;" parent="1" edge="1">
          <mxGeometry width="50" height="50" relative="1" as="geometry">
            <mxPoint x="3028" y="-3128" as="sourcePoint" />
            <mxPoint x="3008" y="-3148" as="targetPoint" />
          </mxGeometry>
        </mxCell>
        <mxCell id="6PFC0uBbz8MOIDidI4Xx-226" value="" style="rounded=0;whiteSpace=wrap;html=1;strokeColor=#000000;gradientColor=none;fillColor=#3b6c8c;" parent="1" vertex="1">
          <mxGeometry x="3040" y="-3190" width="20" height="20" as="geometry" />
        </mxCell>
        <mxCell id="6PFC0uBbz8MOIDidI4Xx-227" value="" style="rounded=0;whiteSpace=wrap;html=1;strokeColor=#000000;gradientColor=none;fillColor=#4e89a9;" parent="1" vertex="1">
          <mxGeometry x="3060" y="-3190" width="20" height="20" as="geometry" />
        </mxCell>
        <mxCell id="6PFC0uBbz8MOIDidI4Xx-228" value="" style="rounded=0;whiteSpace=wrap;html=1;strokeColor=#000000;gradientColor=none;fillColor=#b2d3e2;" parent="1" vertex="1">
          <mxGeometry x="3020" y="-3190" width="20" height="20" as="geometry" />
        </mxCell>
        <mxCell id="6PFC0uBbz8MOIDidI4Xx-229" value="" style="endArrow=none;html=1;entryX=0;entryY=0;entryDx=0;entryDy=0;exitX=1;exitY=1;exitDx=0;exitDy=0;strokeWidth=8;fillColor=#b0e3e6;" parent="1" source="6PFC0uBbz8MOIDidI4Xx-230" target="6PFC0uBbz8MOIDidI4Xx-233" edge="1">
          <mxGeometry width="50" height="50" relative="1" as="geometry">
            <mxPoint x="3290" y="-3190" as="sourcePoint" />
            <mxPoint x="3290" y="-3230" as="targetPoint" />
          </mxGeometry>
        </mxCell>
        <mxCell id="6PFC0uBbz8MOIDidI4Xx-230" value="" style="ellipse;whiteSpace=wrap;html=1;aspect=fixed;fillColor=#b0e3e6;" parent="1" vertex="1">
          <mxGeometry x="3330" y="-3120" width="80" height="80" as="geometry" />
        </mxCell>
        <mxCell id="6PFC0uBbz8MOIDidI4Xx-231" value="" style="endArrow=none;html=1;entryX=0.5;entryY=1;entryDx=0;entryDy=0;exitX=0.5;exitY=0;exitDx=0;exitDy=0;strokeWidth=8;fillColor=#b0e3e6;" parent="1" source="6PFC0uBbz8MOIDidI4Xx-232" target="6PFC0uBbz8MOIDidI4Xx-233" edge="1">
          <mxGeometry width="50" height="50" relative="1" as="geometry">
            <mxPoint x="3360" y="-3300" as="sourcePoint" />
            <mxPoint x="3261.715728752538" y="-3178.284271247462" as="targetPoint" />
          </mxGeometry>
        </mxCell>
        <mxCell id="6PFC0uBbz8MOIDidI4Xx-232" value="" style="ellipse;whiteSpace=wrap;html=1;aspect=fixed;fillColor=#b0e3e6;" parent="1" vertex="1">
          <mxGeometry x="3240" y="-3330" width="80" height="80" as="geometry" />
        </mxCell>
        <mxCell id="6PFC0uBbz8MOIDidI4Xx-233" value="" style="ellipse;whiteSpace=wrap;html=1;aspect=fixed;fillColor=#b0e3e6;" parent="1" vertex="1">
          <mxGeometry x="3240" y="-3200" width="80" height="80" as="geometry" />
        </mxCell>
        <mxCell id="6PFC0uBbz8MOIDidI4Xx-234" value="" style="endArrow=none;html=1;entryX=0;entryY=0;entryDx=0;entryDy=0;exitX=1;exitY=1;exitDx=0;exitDy=0;strokeWidth=8;fillColor=#b0e3e6;" parent="1" source="6PFC0uBbz8MOIDidI4Xx-235" target="6PFC0uBbz8MOIDidI4Xx-238" edge="1">
          <mxGeometry width="50" height="50" relative="1" as="geometry">
            <mxPoint x="2650" y="-3190" as="sourcePoint" />
            <mxPoint x="2650" y="-3230" as="targetPoint" />
          </mxGeometry>
        </mxCell>
        <mxCell id="6PFC0uBbz8MOIDidI4Xx-235" value="" style="ellipse;whiteSpace=wrap;html=1;aspect=fixed;fillColor=#b0e3e6;" parent="1" vertex="1">
          <mxGeometry x="2690" y="-3120" width="80" height="80" as="geometry" />
        </mxCell>
        <mxCell id="6PFC0uBbz8MOIDidI4Xx-236" value="" style="endArrow=none;html=1;entryX=0.5;entryY=1;entryDx=0;entryDy=0;exitX=0.5;exitY=0;exitDx=0;exitDy=0;strokeWidth=8;fillColor=#b0e3e6;" parent="1" source="6PFC0uBbz8MOIDidI4Xx-237" target="6PFC0uBbz8MOIDidI4Xx-238" edge="1">
          <mxGeometry width="50" height="50" relative="1" as="geometry">
            <mxPoint x="2720" y="-3300" as="sourcePoint" />
            <mxPoint x="2621.715728752538" y="-3178.284271247462" as="targetPoint" />
          </mxGeometry>
        </mxCell>
        <mxCell id="6PFC0uBbz8MOIDidI4Xx-237" value="" style="ellipse;whiteSpace=wrap;html=1;aspect=fixed;fillColor=#b0e3e6;" parent="1" vertex="1">
          <mxGeometry x="2600" y="-3330" width="80" height="80" as="geometry" />
        </mxCell>
        <mxCell id="6PFC0uBbz8MOIDidI4Xx-238" value="" style="ellipse;whiteSpace=wrap;html=1;aspect=fixed;fillColor=#b0e3e6;" parent="1" vertex="1">
          <mxGeometry x="2600" y="-3200" width="80" height="80" as="geometry" />
        </mxCell>
        <mxCell id="6PFC0uBbz8MOIDidI4Xx-239" value="" style="rounded=0;whiteSpace=wrap;html=1;strokeColor=#000000;gradientColor=none;fillColor=#3b6c8c;" parent="1" vertex="1">
          <mxGeometry x="3040" y="-3300" width="20" height="20" as="geometry" />
        </mxCell>
        <mxCell id="6PFC0uBbz8MOIDidI4Xx-240" value="" style="rounded=0;whiteSpace=wrap;html=1;strokeColor=#000000;gradientColor=none;fillColor=#4e89a9;" parent="1" vertex="1">
          <mxGeometry x="3060" y="-3300" width="20" height="20" as="geometry" />
        </mxCell>
        <mxCell id="6PFC0uBbz8MOIDidI4Xx-241" value="" style="rounded=0;whiteSpace=wrap;html=1;strokeColor=#000000;gradientColor=none;fillColor=#b2d3e2;" parent="1" vertex="1">
          <mxGeometry x="3020" y="-3300" width="20" height="20" as="geometry" />
        </mxCell>
        <mxCell id="6PFC0uBbz8MOIDidI4Xx-242" value="" style="rounded=0;whiteSpace=wrap;html=1;strokeColor=#000000;gradientColor=none;fillColor=#3b6c8c;" parent="1" vertex="1">
          <mxGeometry x="3130" y="-3090" width="20" height="20" as="geometry" />
        </mxCell>
        <mxCell id="6PFC0uBbz8MOIDidI4Xx-243" value="" style="rounded=0;whiteSpace=wrap;html=1;strokeColor=#000000;gradientColor=none;fillColor=#4e89a9;" parent="1" vertex="1">
          <mxGeometry x="3150" y="-3090" width="20" height="20" as="geometry" />
        </mxCell>
        <mxCell id="6PFC0uBbz8MOIDidI4Xx-244" value="" style="rounded=0;whiteSpace=wrap;html=1;strokeColor=#000000;gradientColor=none;fillColor=#b2d3e2;" parent="1" vertex="1">
          <mxGeometry x="3110" y="-3090" width="20" height="20" as="geometry" />
        </mxCell>
        <mxCell id="6PFC0uBbz8MOIDidI4Xx-245" value="" style="rounded=0;whiteSpace=wrap;html=1;strokeColor=#000000;gradientColor=none;fillColor=#3b6c8c;" parent="1" vertex="1">
          <mxGeometry x="2720" y="-3300" width="20" height="20" as="geometry" />
        </mxCell>
        <mxCell id="6PFC0uBbz8MOIDidI4Xx-246" value="" style="rounded=0;whiteSpace=wrap;html=1;strokeColor=#000000;gradientColor=none;fillColor=#4e89a9;" parent="1" vertex="1">
          <mxGeometry x="2740" y="-3300" width="20" height="20" as="geometry" />
        </mxCell>
        <mxCell id="6PFC0uBbz8MOIDidI4Xx-247" value="" style="rounded=0;whiteSpace=wrap;html=1;strokeColor=#000000;gradientColor=none;fillColor=#77B5C9;" parent="1" vertex="1">
          <mxGeometry x="2760" y="-3300" width="20" height="20" as="geometry" />
        </mxCell>
        <mxCell id="6PFC0uBbz8MOIDidI4Xx-248" value="" style="rounded=0;whiteSpace=wrap;html=1;strokeColor=#000000;gradientColor=none;fillColor=#b2d3e2;" parent="1" vertex="1">
          <mxGeometry x="2700" y="-3300" width="20" height="20" as="geometry" />
        </mxCell>
        <mxCell id="6PFC0uBbz8MOIDidI4Xx-249" value="" style="rounded=0;whiteSpace=wrap;html=1;strokeColor=#000000;gradientColor=none;fillColor=#3b6c8c;" parent="1" vertex="1">
          <mxGeometry x="2720" y="-3190" width="20" height="20" as="geometry" />
        </mxCell>
        <mxCell id="6PFC0uBbz8MOIDidI4Xx-250" value="" style="rounded=0;whiteSpace=wrap;html=1;strokeColor=#000000;gradientColor=none;fillColor=#4e89a9;" parent="1" vertex="1">
          <mxGeometry x="2740" y="-3190" width="20" height="20" as="geometry" />
        </mxCell>
        <mxCell id="6PFC0uBbz8MOIDidI4Xx-251" value="" style="rounded=0;whiteSpace=wrap;html=1;strokeColor=#000000;gradientColor=none;fillColor=#b2d3e2;" parent="1" vertex="1">
          <mxGeometry x="2700" y="-3190" width="20" height="20" as="geometry" />
        </mxCell>
        <mxCell id="6PFC0uBbz8MOIDidI4Xx-252" value="" style="rounded=0;whiteSpace=wrap;html=1;strokeColor=#000000;gradientColor=none;fillColor=#3b6c8c;" parent="1" vertex="1">
          <mxGeometry x="2810" y="-3090" width="20" height="20" as="geometry" />
        </mxCell>
        <mxCell id="6PFC0uBbz8MOIDidI4Xx-253" value="" style="rounded=0;whiteSpace=wrap;html=1;strokeColor=#000000;gradientColor=none;fillColor=#4e89a9;" parent="1" vertex="1">
          <mxGeometry x="2830" y="-3090" width="20" height="20" as="geometry" />
        </mxCell>
        <mxCell id="6PFC0uBbz8MOIDidI4Xx-254" value="" style="rounded=0;whiteSpace=wrap;html=1;strokeColor=#000000;gradientColor=none;fillColor=#b2d3e2;" parent="1" vertex="1">
          <mxGeometry x="2790" y="-3090" width="20" height="20" as="geometry" />
        </mxCell>
        <mxCell id="6PFC0uBbz8MOIDidI4Xx-255" value="" style="rounded=0;whiteSpace=wrap;html=1;strokeColor=#000000;gradientColor=none;fillColor=#77B5C9;" parent="1" vertex="1">
          <mxGeometry x="2760" y="-3190" width="20" height="20" as="geometry" />
        </mxCell>
        <mxCell id="6PFC0uBbz8MOIDidI4Xx-256" value="" style="rounded=0;whiteSpace=wrap;html=1;strokeColor=#000000;gradientColor=none;fillColor=#77B5C9;" parent="1" vertex="1">
          <mxGeometry x="2850" y="-3090" width="20" height="20" as="geometry" />
        </mxCell>
        <mxCell id="6PFC0uBbz8MOIDidI4Xx-257" value="" style="rounded=0;whiteSpace=wrap;html=1;strokeColor=#000000;gradientColor=none;fillColor=#77B5C9;" parent="1" vertex="1">
          <mxGeometry x="3080" y="-3190" width="20" height="20" as="geometry" />
        </mxCell>
        <mxCell id="6PFC0uBbz8MOIDidI4Xx-258" value="" style="rounded=0;whiteSpace=wrap;html=1;strokeColor=#000000;gradientColor=none;fillColor=#77B5C9;" parent="1" vertex="1">
          <mxGeometry x="3080" y="-3300" width="20" height="20" as="geometry" />
        </mxCell>
        <mxCell id="6PFC0uBbz8MOIDidI4Xx-259" value="" style="rounded=0;whiteSpace=wrap;html=1;strokeColor=#000000;gradientColor=none;fillColor=#77B5C9;" parent="1" vertex="1">
          <mxGeometry x="3170" y="-3090" width="20" height="20" as="geometry" />
        </mxCell>
        <mxCell id="6PFC0uBbz8MOIDidI4Xx-260" value="" style="rounded=0;whiteSpace=wrap;html=1;strokeColor=#000000;gradientColor=none;fillColor=#3b6c8c;" parent="1" vertex="1">
          <mxGeometry x="3380" y="-3190" width="20" height="20" as="geometry" />
        </mxCell>
        <mxCell id="6PFC0uBbz8MOIDidI4Xx-261" value="" style="rounded=0;whiteSpace=wrap;html=1;strokeColor=#000000;gradientColor=none;fillColor=#4e89a9;" parent="1" vertex="1">
          <mxGeometry x="3400" y="-3190" width="20" height="20" as="geometry" />
        </mxCell>
        <mxCell id="6PFC0uBbz8MOIDidI4Xx-262" value="" style="rounded=0;whiteSpace=wrap;html=1;strokeColor=#000000;gradientColor=none;fillColor=#77B5C9;" parent="1" vertex="1">
          <mxGeometry x="3340" y="-3190" width="20" height="20" as="geometry" />
        </mxCell>
        <mxCell id="6PFC0uBbz8MOIDidI4Xx-263" value="" style="rounded=0;whiteSpace=wrap;html=1;strokeColor=#000000;gradientColor=none;fillColor=#26475C;" parent="1" vertex="1">
          <mxGeometry x="3360" y="-3190" width="20" height="20" as="geometry" />
        </mxCell>
        <mxCell id="6PFC0uBbz8MOIDidI4Xx-264" value="" style="rounded=1;whiteSpace=wrap;html=1;fillColor=none;arcSize=5;" parent="1" vertex="1">
          <mxGeometry x="2000" y="-3400" width="1680" height="1080" as="geometry" />
        </mxCell>
        <mxCell id="6PFC0uBbz8MOIDidI4Xx-265" value="" style="endArrow=none;html=1;strokeColor=#000000;strokeWidth=1;entryX=0;entryY=0.5;entryDx=0;entryDy=0;exitX=1;exitY=0.5;exitDx=0;exitDy=0;" parent="1" edge="1">
          <mxGeometry width="50" height="50" relative="1" as="geometry">
            <mxPoint x="1999.999999999999" y="-2960.0000000000005" as="sourcePoint" />
            <mxPoint x="3680" y="-2960.0000000000005" as="targetPoint" />
          </mxGeometry>
        </mxCell>
        <mxCell id="6PFC0uBbz8MOIDidI4Xx-266" value="" style="rounded=1;whiteSpace=wrap;html=1;" parent="1" vertex="1">
          <mxGeometry x="1920" y="-4400" width="120" height="60" as="geometry" />
        </mxCell>
        <mxCell id="6PFC0uBbz8MOIDidI4Xx-267" value="" style="rounded=1;whiteSpace=wrap;html=1;" parent="1" vertex="1">
          <mxGeometry x="4135" y="-2815" width="120" height="60" as="geometry" />
        </mxCell>
        <mxCell id="6PFC0uBbz8MOIDidI4Xx-268" value="" style="rounded=1;whiteSpace=wrap;html=1;" parent="1" vertex="1">
          <mxGeometry x="1970" y="-2060" width="120" height="60" as="geometry" />
        </mxCell>
        <mxCell id="6PFC0uBbz8MOIDidI4Xx-269" value="" style="rounded=1;whiteSpace=wrap;html=1;" parent="1" vertex="1">
          <mxGeometry x="-280" y="-3010" width="120" height="60" as="geometry" />
        </mxCell>
        <mxCell id="QD2wEx6Sj1sci9-Z6Yuq-1" value="" style="endArrow=none;html=1;entryX=0;entryY=0;entryDx=0;entryDy=0;exitX=1;exitY=1;exitDx=0;exitDy=0;strokeWidth=8;fillColor=#b0e3e6;" parent="1" source="QD2wEx6Sj1sci9-Z6Yuq-2" target="QD2wEx6Sj1sci9-Z6Yuq-5" edge="1">
          <mxGeometry width="50" height="50" relative="1" as="geometry">
            <mxPoint x="2970" y="-3190" as="sourcePoint" />
            <mxPoint x="2970" y="-3230" as="targetPoint" />
          </mxGeometry>
        </mxCell>
        <mxCell id="QD2wEx6Sj1sci9-Z6Yuq-2" value="" style="ellipse;whiteSpace=wrap;html=1;aspect=fixed;fillColor=#b0e3e6;" parent="1" vertex="1">
          <mxGeometry x="3010" y="-3120" width="80" height="80" as="geometry" />
        </mxCell>
        <mxCell id="QD2wEx6Sj1sci9-Z6Yuq-3" value="" style="endArrow=none;html=1;entryX=0.5;entryY=1;entryDx=0;entryDy=0;exitX=0.5;exitY=0;exitDx=0;exitDy=0;strokeWidth=8;fillColor=#b0e3e6;" parent="1" source="QD2wEx6Sj1sci9-Z6Yuq-4" target="QD2wEx6Sj1sci9-Z6Yuq-5" edge="1">
          <mxGeometry width="50" height="50" relative="1" as="geometry">
            <mxPoint x="3040" y="-3300" as="sourcePoint" />
            <mxPoint x="2941.715728752538" y="-3178.284271247462" as="targetPoint" />
          </mxGeometry>
        </mxCell>
        <mxCell id="QD2wEx6Sj1sci9-Z6Yuq-4" value="" style="ellipse;whiteSpace=wrap;html=1;aspect=fixed;fillColor=#b0e3e6;" parent="1" vertex="1">
          <mxGeometry x="2920" y="-3330" width="80" height="80" as="geometry" />
        </mxCell>
        <mxCell id="QD2wEx6Sj1sci9-Z6Yuq-5" value="" style="ellipse;whiteSpace=wrap;html=1;aspect=fixed;fillColor=#b0e3e6;" parent="1" vertex="1">
          <mxGeometry x="2920" y="-3200" width="80" height="80" as="geometry" />
        </mxCell>
        <mxCell id="QD2wEx6Sj1sci9-Z6Yuq-6" value="" style="curved=1;endArrow=block;html=1;strokeColor=#000000;strokeWidth=2;fillColor=#000000;endFill=1;" parent="1" edge="1">
          <mxGeometry width="50" height="50" relative="1" as="geometry">
            <mxPoint x="2910" y="-3150.0000000000005" as="sourcePoint" />
            <mxPoint x="2920" y="-3130.0000000000005" as="targetPoint" />
            <Array as="points">
              <mxPoint x="2890" y="-3150" />
              <mxPoint x="2890" y="-3130" />
            </Array>
          </mxGeometry>
        </mxCell>
        <mxCell id="QD2wEx6Sj1sci9-Z6Yuq-7" value="" style="endArrow=block;html=1;strokeColor=#000000;strokeWidth=2;fillColor=#000000;endFill=1;" parent="1" edge="1">
          <mxGeometry width="50" height="50" relative="1" as="geometry">
            <mxPoint x="2980.24" y="-3240.0000000000005" as="sourcePoint" />
            <mxPoint x="2980" y="-3210.0000000000005" as="targetPoint" />
          </mxGeometry>
        </mxCell>
        <mxCell id="QD2wEx6Sj1sci9-Z6Yuq-8" value="" style="endArrow=block;html=1;strokeColor=#000000;strokeWidth=2;fillColor=#000000;endFill=1;" parent="1" edge="1">
          <mxGeometry width="50" height="50" relative="1" as="geometry">
            <mxPoint x="3028" y="-3128" as="sourcePoint" />
            <mxPoint x="3008" y="-3148" as="targetPoint" />
          </mxGeometry>
        </mxCell>
        <mxCell id="QD2wEx6Sj1sci9-Z6Yuq-9" value="" style="rounded=0;whiteSpace=wrap;html=1;strokeColor=#000000;gradientColor=none;fillColor=#3b6c8c;" parent="1" vertex="1">
          <mxGeometry x="3040" y="-3190" width="20" height="20" as="geometry" />
        </mxCell>
        <mxCell id="QD2wEx6Sj1sci9-Z6Yuq-10" value="" style="rounded=0;whiteSpace=wrap;html=1;strokeColor=#000000;gradientColor=none;fillColor=#4e89a9;" parent="1" vertex="1">
          <mxGeometry x="3060" y="-3190" width="20" height="20" as="geometry" />
        </mxCell>
        <mxCell id="QD2wEx6Sj1sci9-Z6Yuq-11" value="" style="rounded=0;whiteSpace=wrap;html=1;strokeColor=#000000;gradientColor=none;fillColor=#b2d3e2;" parent="1" vertex="1">
          <mxGeometry x="3020" y="-3190" width="20" height="20" as="geometry" />
        </mxCell>
        <mxCell id="QD2wEx6Sj1sci9-Z6Yuq-12" value="" style="endArrow=none;html=1;entryX=0;entryY=0;entryDx=0;entryDy=0;exitX=1;exitY=1;exitDx=0;exitDy=0;strokeWidth=8;fillColor=#b0e3e6;" parent="1" source="QD2wEx6Sj1sci9-Z6Yuq-13" target="QD2wEx6Sj1sci9-Z6Yuq-16" edge="1">
          <mxGeometry width="50" height="50" relative="1" as="geometry">
            <mxPoint x="3290" y="-3190" as="sourcePoint" />
            <mxPoint x="3290" y="-3230" as="targetPoint" />
          </mxGeometry>
        </mxCell>
        <mxCell id="QD2wEx6Sj1sci9-Z6Yuq-13" value="" style="ellipse;whiteSpace=wrap;html=1;aspect=fixed;fillColor=#b0e3e6;" parent="1" vertex="1">
          <mxGeometry x="3330" y="-3120" width="80" height="80" as="geometry" />
        </mxCell>
        <mxCell id="QD2wEx6Sj1sci9-Z6Yuq-14" value="" style="endArrow=none;html=1;entryX=0.5;entryY=1;entryDx=0;entryDy=0;exitX=0.5;exitY=0;exitDx=0;exitDy=0;strokeWidth=8;fillColor=#b0e3e6;" parent="1" source="QD2wEx6Sj1sci9-Z6Yuq-15" target="QD2wEx6Sj1sci9-Z6Yuq-16" edge="1">
          <mxGeometry width="50" height="50" relative="1" as="geometry">
            <mxPoint x="3360" y="-3300" as="sourcePoint" />
            <mxPoint x="3261.715728752538" y="-3178.284271247462" as="targetPoint" />
          </mxGeometry>
        </mxCell>
        <mxCell id="QD2wEx6Sj1sci9-Z6Yuq-15" value="" style="ellipse;whiteSpace=wrap;html=1;aspect=fixed;fillColor=#b0e3e6;" parent="1" vertex="1">
          <mxGeometry x="3240" y="-3330" width="80" height="80" as="geometry" />
        </mxCell>
        <mxCell id="QD2wEx6Sj1sci9-Z6Yuq-16" value="" style="ellipse;whiteSpace=wrap;html=1;aspect=fixed;fillColor=#b0e3e6;" parent="1" vertex="1">
          <mxGeometry x="3240" y="-3200" width="80" height="80" as="geometry" />
        </mxCell>
        <mxCell id="QD2wEx6Sj1sci9-Z6Yuq-17" value="" style="endArrow=none;html=1;entryX=0;entryY=0;entryDx=0;entryDy=0;exitX=1;exitY=1;exitDx=0;exitDy=0;strokeWidth=8;fillColor=#b0e3e6;" parent="1" source="QD2wEx6Sj1sci9-Z6Yuq-18" target="QD2wEx6Sj1sci9-Z6Yuq-21" edge="1">
          <mxGeometry width="50" height="50" relative="1" as="geometry">
            <mxPoint x="2650" y="-3190" as="sourcePoint" />
            <mxPoint x="2650" y="-3230" as="targetPoint" />
          </mxGeometry>
        </mxCell>
        <mxCell id="QD2wEx6Sj1sci9-Z6Yuq-18" value="" style="ellipse;whiteSpace=wrap;html=1;aspect=fixed;fillColor=#b0e3e6;" parent="1" vertex="1">
          <mxGeometry x="2690" y="-3120" width="80" height="80" as="geometry" />
        </mxCell>
        <mxCell id="QD2wEx6Sj1sci9-Z6Yuq-19" value="" style="endArrow=none;html=1;entryX=0.5;entryY=1;entryDx=0;entryDy=0;exitX=0.5;exitY=0;exitDx=0;exitDy=0;strokeWidth=8;fillColor=#b0e3e6;" parent="1" source="QD2wEx6Sj1sci9-Z6Yuq-20" target="QD2wEx6Sj1sci9-Z6Yuq-21" edge="1">
          <mxGeometry width="50" height="50" relative="1" as="geometry">
            <mxPoint x="2720" y="-3300" as="sourcePoint" />
            <mxPoint x="2621.715728752538" y="-3178.284271247462" as="targetPoint" />
          </mxGeometry>
        </mxCell>
        <mxCell id="QD2wEx6Sj1sci9-Z6Yuq-20" value="" style="ellipse;whiteSpace=wrap;html=1;aspect=fixed;fillColor=#b0e3e6;" parent="1" vertex="1">
          <mxGeometry x="2600" y="-3330" width="80" height="80" as="geometry" />
        </mxCell>
        <mxCell id="QD2wEx6Sj1sci9-Z6Yuq-21" value="" style="ellipse;whiteSpace=wrap;html=1;aspect=fixed;fillColor=#b0e3e6;" parent="1" vertex="1">
          <mxGeometry x="2600" y="-3200" width="80" height="80" as="geometry" />
        </mxCell>
        <mxCell id="QD2wEx6Sj1sci9-Z6Yuq-22" value="" style="rounded=0;whiteSpace=wrap;html=1;strokeColor=#000000;gradientColor=none;fillColor=#3b6c8c;" parent="1" vertex="1">
          <mxGeometry x="3040" y="-3300" width="20" height="20" as="geometry" />
        </mxCell>
        <mxCell id="QD2wEx6Sj1sci9-Z6Yuq-23" value="" style="rounded=0;whiteSpace=wrap;html=1;strokeColor=#000000;gradientColor=none;fillColor=#4e89a9;" parent="1" vertex="1">
          <mxGeometry x="3060" y="-3300" width="20" height="20" as="geometry" />
        </mxCell>
        <mxCell id="QD2wEx6Sj1sci9-Z6Yuq-24" value="" style="rounded=0;whiteSpace=wrap;html=1;strokeColor=#000000;gradientColor=none;fillColor=#b2d3e2;" parent="1" vertex="1">
          <mxGeometry x="3020" y="-3300" width="20" height="20" as="geometry" />
        </mxCell>
        <mxCell id="QD2wEx6Sj1sci9-Z6Yuq-25" value="" style="rounded=0;whiteSpace=wrap;html=1;strokeColor=#000000;gradientColor=none;fillColor=#3b6c8c;" parent="1" vertex="1">
          <mxGeometry x="3130" y="-3090" width="20" height="20" as="geometry" />
        </mxCell>
        <mxCell id="QD2wEx6Sj1sci9-Z6Yuq-26" value="" style="rounded=0;whiteSpace=wrap;html=1;strokeColor=#000000;gradientColor=none;fillColor=#4e89a9;" parent="1" vertex="1">
          <mxGeometry x="3150" y="-3090" width="20" height="20" as="geometry" />
        </mxCell>
        <mxCell id="QD2wEx6Sj1sci9-Z6Yuq-27" value="" style="rounded=0;whiteSpace=wrap;html=1;strokeColor=#000000;gradientColor=none;fillColor=#b2d3e2;" parent="1" vertex="1">
          <mxGeometry x="3110" y="-3090" width="20" height="20" as="geometry" />
        </mxCell>
        <mxCell id="QD2wEx6Sj1sci9-Z6Yuq-28" value="" style="rounded=0;whiteSpace=wrap;html=1;strokeColor=#000000;gradientColor=none;fillColor=#3b6c8c;" parent="1" vertex="1">
          <mxGeometry x="2720" y="-3300" width="20" height="20" as="geometry" />
        </mxCell>
        <mxCell id="QD2wEx6Sj1sci9-Z6Yuq-29" value="" style="rounded=0;whiteSpace=wrap;html=1;strokeColor=#000000;gradientColor=none;fillColor=#4e89a9;" parent="1" vertex="1">
          <mxGeometry x="2740" y="-3300" width="20" height="20" as="geometry" />
        </mxCell>
        <mxCell id="QD2wEx6Sj1sci9-Z6Yuq-30" value="" style="rounded=0;whiteSpace=wrap;html=1;strokeColor=#000000;gradientColor=none;fillColor=#77B5C9;" parent="1" vertex="1">
          <mxGeometry x="2760" y="-3300" width="20" height="20" as="geometry" />
        </mxCell>
        <mxCell id="QD2wEx6Sj1sci9-Z6Yuq-31" value="" style="rounded=0;whiteSpace=wrap;html=1;strokeColor=#000000;gradientColor=none;fillColor=#b2d3e2;" parent="1" vertex="1">
          <mxGeometry x="2700" y="-3300" width="20" height="20" as="geometry" />
        </mxCell>
        <mxCell id="QD2wEx6Sj1sci9-Z6Yuq-32" value="" style="rounded=0;whiteSpace=wrap;html=1;strokeColor=#000000;gradientColor=none;fillColor=#3b6c8c;" parent="1" vertex="1">
          <mxGeometry x="2720" y="-3190" width="20" height="20" as="geometry" />
        </mxCell>
        <mxCell id="QD2wEx6Sj1sci9-Z6Yuq-33" value="" style="rounded=0;whiteSpace=wrap;html=1;strokeColor=#000000;gradientColor=none;fillColor=#4e89a9;" parent="1" vertex="1">
          <mxGeometry x="2740" y="-3190" width="20" height="20" as="geometry" />
        </mxCell>
        <mxCell id="QD2wEx6Sj1sci9-Z6Yuq-34" value="" style="rounded=0;whiteSpace=wrap;html=1;strokeColor=#000000;gradientColor=none;fillColor=#b2d3e2;" parent="1" vertex="1">
          <mxGeometry x="2700" y="-3190" width="20" height="20" as="geometry" />
        </mxCell>
        <mxCell id="QD2wEx6Sj1sci9-Z6Yuq-35" value="" style="rounded=0;whiteSpace=wrap;html=1;strokeColor=#000000;gradientColor=none;fillColor=#3b6c8c;" parent="1" vertex="1">
          <mxGeometry x="2810" y="-3090" width="20" height="20" as="geometry" />
        </mxCell>
        <mxCell id="QD2wEx6Sj1sci9-Z6Yuq-36" value="" style="rounded=0;whiteSpace=wrap;html=1;strokeColor=#000000;gradientColor=none;fillColor=#4e89a9;" parent="1" vertex="1">
          <mxGeometry x="2830" y="-3090" width="20" height="20" as="geometry" />
        </mxCell>
        <mxCell id="QD2wEx6Sj1sci9-Z6Yuq-37" value="" style="rounded=0;whiteSpace=wrap;html=1;strokeColor=#000000;gradientColor=none;fillColor=#b2d3e2;" parent="1" vertex="1">
          <mxGeometry x="2790" y="-3090" width="20" height="20" as="geometry" />
        </mxCell>
        <mxCell id="QD2wEx6Sj1sci9-Z6Yuq-38" value="" style="rounded=0;whiteSpace=wrap;html=1;strokeColor=#000000;gradientColor=none;fillColor=#77B5C9;" parent="1" vertex="1">
          <mxGeometry x="2760" y="-3190" width="20" height="20" as="geometry" />
        </mxCell>
        <mxCell id="QD2wEx6Sj1sci9-Z6Yuq-39" value="" style="rounded=0;whiteSpace=wrap;html=1;strokeColor=#000000;gradientColor=none;fillColor=#77B5C9;" parent="1" vertex="1">
          <mxGeometry x="2850" y="-3090" width="20" height="20" as="geometry" />
        </mxCell>
        <mxCell id="QD2wEx6Sj1sci9-Z6Yuq-40" value="" style="rounded=0;whiteSpace=wrap;html=1;strokeColor=#000000;gradientColor=none;fillColor=#77B5C9;" parent="1" vertex="1">
          <mxGeometry x="3080" y="-3190" width="20" height="20" as="geometry" />
        </mxCell>
        <mxCell id="QD2wEx6Sj1sci9-Z6Yuq-41" value="" style="rounded=0;whiteSpace=wrap;html=1;strokeColor=#000000;gradientColor=none;fillColor=#77B5C9;" parent="1" vertex="1">
          <mxGeometry x="3080" y="-3300" width="20" height="20" as="geometry" />
        </mxCell>
        <mxCell id="QD2wEx6Sj1sci9-Z6Yuq-42" value="" style="rounded=0;whiteSpace=wrap;html=1;strokeColor=#000000;gradientColor=none;fillColor=#77B5C9;" parent="1" vertex="1">
          <mxGeometry x="3170" y="-3090" width="20" height="20" as="geometry" />
        </mxCell>
        <mxCell id="QD2wEx6Sj1sci9-Z6Yuq-43" value="" style="rounded=0;whiteSpace=wrap;html=1;strokeColor=#000000;gradientColor=none;fillColor=#3b6c8c;" parent="1" vertex="1">
          <mxGeometry x="3380" y="-3190" width="20" height="20" as="geometry" />
        </mxCell>
        <mxCell id="QD2wEx6Sj1sci9-Z6Yuq-44" value="" style="rounded=0;whiteSpace=wrap;html=1;strokeColor=#000000;gradientColor=none;fillColor=#4e89a9;" parent="1" vertex="1">
          <mxGeometry x="3400" y="-3190" width="20" height="20" as="geometry" />
        </mxCell>
        <mxCell id="QD2wEx6Sj1sci9-Z6Yuq-45" value="" style="rounded=0;whiteSpace=wrap;html=1;strokeColor=#000000;gradientColor=none;fillColor=#77B5C9;" parent="1" vertex="1">
          <mxGeometry x="3340" y="-3190" width="20" height="20" as="geometry" />
        </mxCell>
        <mxCell id="QD2wEx6Sj1sci9-Z6Yuq-46" value="" style="rounded=0;whiteSpace=wrap;html=1;strokeColor=#000000;gradientColor=none;fillColor=#26475C;" parent="1" vertex="1">
          <mxGeometry x="3360" y="-3190" width="20" height="20" as="geometry" />
        </mxCell>
        <mxCell id="8Uk2gC8nPjYWDtuDnkii-3" value="" style="strokeWidth=2;html=1;shape=mxgraph.flowchart.annotation_2;align=left;labelPosition=right;pointerEvents=1;rotation=-90;" parent="1" vertex="1">
          <mxGeometry x="991.25" y="-2924.75" width="18.75" height="317.5" as="geometry" />
        </mxCell>
        <mxCell id="8Uk2gC8nPjYWDtuDnkii-4" value="" style="strokeWidth=2;html=1;shape=mxgraph.flowchart.annotation_2;align=left;labelPosition=right;pointerEvents=1;rotation=-180;" parent="1" vertex="1">
          <mxGeometry x="1170" y="-3103.5" width="18.75" height="317.5" as="geometry" />
        </mxCell>
        <mxCell id="8Uk2gC8nPjYWDtuDnkii-5" value="" style="strokeWidth=2;html=1;shape=mxgraph.flowchart.annotation_2;align=left;labelPosition=right;pointerEvents=1;rotation=-90;" parent="1" vertex="1">
          <mxGeometry x="1462.25" y="-2924.75" width="18.75" height="317.5" as="geometry" />
        </mxCell>
        <mxCell id="8Uk2gC8nPjYWDtuDnkii-6" value="" style="strokeWidth=2;html=1;shape=mxgraph.flowchart.annotation_2;align=left;labelPosition=right;pointerEvents=1;rotation=-180;" parent="1" vertex="1">
          <mxGeometry x="1641" y="-3103.5" width="18.75" height="317.5" as="geometry" />
        </mxCell>
        <mxCell id="8Uk2gC8nPjYWDtuDnkii-7" value="&lt;b&gt;&lt;font style=&quot;font-size: 25px&quot;&gt;N&lt;/font&gt;&lt;/b&gt;" style="text;html=1;strokeColor=none;fillColor=none;align=center;verticalAlign=middle;whiteSpace=wrap;rounded=0;" parent="1" vertex="1">
          <mxGeometry x="1659.75" y="-2954.75" width="40" height="20" as="geometry" />
        </mxCell>
        <mxCell id="8Uk2gC8nPjYWDtuDnkii-8" value="&lt;b&gt;&lt;font style=&quot;font-size: 25px&quot;&gt;N&lt;/font&gt;&lt;/b&gt;" style="text;html=1;strokeColor=none;fillColor=none;align=center;verticalAlign=middle;whiteSpace=wrap;rounded=0;" parent="1" vertex="1">
          <mxGeometry x="1451.6200000000001" y="-2756" width="40" height="20" as="geometry" />
        </mxCell>
        <mxCell id="8Uk2gC8nPjYWDtuDnkii-9" value="&lt;b&gt;&lt;font style=&quot;font-size: 25px&quot;&gt;N&lt;/font&gt;&lt;/b&gt;" style="text;html=1;strokeColor=none;fillColor=none;align=center;verticalAlign=middle;whiteSpace=wrap;rounded=0;" parent="1" vertex="1">
          <mxGeometry x="1451.6200000000001" y="-2756" width="40" height="20" as="geometry" />
        </mxCell>
        <mxCell id="8Uk2gC8nPjYWDtuDnkii-10" value="&lt;b&gt;&lt;font style=&quot;font-size: 25px&quot;&gt;N&lt;/font&gt;&lt;/b&gt;" style="text;html=1;strokeColor=none;fillColor=none;align=center;verticalAlign=middle;whiteSpace=wrap;rounded=0;" parent="1" vertex="1">
          <mxGeometry x="1188.13" y="-2954.75" width="40" height="20" as="geometry" />
        </mxCell>
        <mxCell id="8Uk2gC8nPjYWDtuDnkii-11" value="&lt;b&gt;&lt;font style=&quot;font-size: 25px&quot;&gt;T&lt;/font&gt;&lt;/b&gt;" style="text;html=1;strokeColor=none;fillColor=none;align=center;verticalAlign=middle;whiteSpace=wrap;rounded=0;" parent="1" vertex="1">
          <mxGeometry x="980.0000000000001" y="-2756" width="40" height="20" as="geometry" />
        </mxCell>
        <mxCell id="8Uk2gC8nPjYWDtuDnkii-13" value="" style="endArrow=none;html=1;entryX=1;entryY=0;entryDx=0;entryDy=0;exitX=0;exitY=1;exitDx=0;exitDy=0;strokeWidth=8;fillColor=#b0e3e6;fontStyle=1" parent="1" source="8Uk2gC8nPjYWDtuDnkii-31" target="8Uk2gC8nPjYWDtuDnkii-18" edge="1">
          <mxGeometry width="50" height="50" relative="1" as="geometry">
            <mxPoint x="727.8342712474621" y="-3642.025728752538" as="sourcePoint" />
            <mxPoint x="581.2657287525383" y="-3778.5942712474616" as="targetPoint" />
          </mxGeometry>
        </mxCell>
        <mxCell id="8Uk2gC8nPjYWDtuDnkii-14" value="" style="endArrow=none;html=1;entryX=0;entryY=0;entryDx=0;entryDy=0;exitX=1;exitY=1;exitDx=0;exitDy=0;strokeWidth=8;fillColor=#b0e3e6;fontStyle=1" parent="1" source="8Uk2gC8nPjYWDtuDnkii-15" target="8Uk2gC8nPjYWDtuDnkii-18" edge="1">
          <mxGeometry width="50" height="50" relative="1" as="geometry">
            <mxPoint x="609.55" y="-3790.31" as="sourcePoint" />
            <mxPoint x="609.55" y="-3830.31" as="targetPoint" />
          </mxGeometry>
        </mxCell>
        <mxCell id="8Uk2gC8nPjYWDtuDnkii-15" value="4" style="ellipse;whiteSpace=wrap;html=1;aspect=fixed;fillColor=#b0e3e6;fontSize=25;fontStyle=1" parent="1" vertex="1">
          <mxGeometry x="649.55" y="-3720.31" width="80" height="80" as="geometry" />
        </mxCell>
        <mxCell id="8Uk2gC8nPjYWDtuDnkii-16" value="" style="endArrow=none;html=1;entryX=0.5;entryY=1;entryDx=0;entryDy=0;exitX=0.5;exitY=0;exitDx=0;exitDy=0;strokeWidth=8;fillColor=#b0e3e6;fontStyle=1" parent="1" source="8Uk2gC8nPjYWDtuDnkii-17" target="8Uk2gC8nPjYWDtuDnkii-18" edge="1">
          <mxGeometry width="50" height="50" relative="1" as="geometry">
            <mxPoint x="679.55" y="-3900.31" as="sourcePoint" />
            <mxPoint x="581.2657287525378" y="-3778.594271247462" as="targetPoint" />
          </mxGeometry>
        </mxCell>
        <mxCell id="8Uk2gC8nPjYWDtuDnkii-17" value="3" style="ellipse;whiteSpace=wrap;html=1;aspect=fixed;fillColor=#ffcccc;strokeColor=#36393d;fontSize=25;fontStyle=1" parent="1" vertex="1">
          <mxGeometry x="559.55" y="-3920.31" width="80" height="80" as="geometry" />
        </mxCell>
        <mxCell id="8Uk2gC8nPjYWDtuDnkii-18" value="2" style="ellipse;whiteSpace=wrap;html=1;aspect=fixed;fillColor=#b0e3e6;fontSize=25;fontStyle=1" parent="1" vertex="1">
          <mxGeometry x="559.55" y="-3800.31" width="80" height="80" as="geometry" />
        </mxCell>
        <mxCell id="8Uk2gC8nPjYWDtuDnkii-19" value="1" style="ellipse;whiteSpace=wrap;html=1;aspect=fixed;fillColor=#b0e3e6;fontSize=25;fontStyle=1" parent="1" vertex="1">
          <mxGeometry x="830.5" y="-3940.31" width="60" height="60" as="geometry" />
        </mxCell>
        <mxCell id="8Uk2gC8nPjYWDtuDnkii-20" value="2" style="ellipse;whiteSpace=wrap;html=1;aspect=fixed;fillColor=#b0e3e6;fontSize=25;fontStyle=1" parent="1" vertex="1">
          <mxGeometry x="830.5" y="-3860.31" width="60" height="60" as="geometry" />
        </mxCell>
        <mxCell id="8Uk2gC8nPjYWDtuDnkii-21" value="3" style="ellipse;whiteSpace=wrap;html=1;aspect=fixed;fillColor=#ffcccc;strokeColor=#36393d;fontSize=25;fontStyle=1" parent="1" vertex="1">
          <mxGeometry x="830.5" y="-3780.31" width="60" height="60" as="geometry" />
        </mxCell>
        <mxCell id="8Uk2gC8nPjYWDtuDnkii-22" value="" style="rounded=0;whiteSpace=wrap;html=1;fillColor=#B2D3E2;" parent="1" vertex="1">
          <mxGeometry x="900.5" y="-3950.31" width="80" height="80" as="geometry" />
        </mxCell>
        <mxCell id="8Uk2gC8nPjYWDtuDnkii-23" value="" style="rounded=0;whiteSpace=wrap;html=1;" parent="1" vertex="1">
          <mxGeometry x="980.5" y="-3950.31" width="80" height="80" as="geometry" />
        </mxCell>
        <mxCell id="8Uk2gC8nPjYWDtuDnkii-24" value="" style="rounded=0;whiteSpace=wrap;html=1;fillColor=#B2D3E2;" parent="1" vertex="1">
          <mxGeometry x="900.5" y="-3870.31" width="80" height="80" as="geometry" />
        </mxCell>
        <mxCell id="8Uk2gC8nPjYWDtuDnkii-25" value="" style="rounded=0;whiteSpace=wrap;html=1;" parent="1" vertex="1">
          <mxGeometry x="980.5" y="-3870.31" width="80" height="80" as="geometry" />
        </mxCell>
        <mxCell id="8Uk2gC8nPjYWDtuDnkii-26" value="" style="rounded=0;whiteSpace=wrap;html=1;" parent="1" vertex="1">
          <mxGeometry x="900.5" y="-3790.31" width="80" height="80" as="geometry" />
        </mxCell>
        <mxCell id="8Uk2gC8nPjYWDtuDnkii-27" value="" style="rounded=0;whiteSpace=wrap;html=1;fillColor=#B2D3E2;" parent="1" vertex="1">
          <mxGeometry x="980.5" y="-3790.31" width="80" height="80" as="geometry" />
        </mxCell>
        <mxCell id="8Uk2gC8nPjYWDtuDnkii-28" value="" style="rounded=0;whiteSpace=wrap;html=1;" parent="1" vertex="1">
          <mxGeometry x="1060.5" y="-3790.31" width="80" height="80" as="geometry" />
        </mxCell>
        <mxCell id="8Uk2gC8nPjYWDtuDnkii-29" value="" style="rounded=0;whiteSpace=wrap;html=1;fillColor=#B2D3E2;" parent="1" vertex="1">
          <mxGeometry x="1140.5" y="-3790.31" width="80" height="80" as="geometry" />
        </mxCell>
        <mxCell id="8Uk2gC8nPjYWDtuDnkii-30" value="" style="rounded=0;whiteSpace=wrap;html=1;" parent="1" vertex="1">
          <mxGeometry x="1140.5" y="-3870.31" width="80" height="80" as="geometry" />
        </mxCell>
        <mxCell id="8Uk2gC8nPjYWDtuDnkii-31" value="1" style="ellipse;whiteSpace=wrap;html=1;aspect=fixed;fillColor=#b0e3e6;fontSize=25;fontStyle=1" parent="1" vertex="1">
          <mxGeometry x="469.54999999999995" y="-3720.31" width="80" height="80" as="geometry" />
        </mxCell>
        <mxCell id="8Uk2gC8nPjYWDtuDnkii-32" value="" style="rounded=0;whiteSpace=wrap;html=1;" parent="1" vertex="1">
          <mxGeometry x="1140.5" y="-3710.31" width="80" height="80" as="geometry" />
        </mxCell>
        <mxCell id="8Uk2gC8nPjYWDtuDnkii-33" value="" style="rounded=0;whiteSpace=wrap;html=1;" parent="1" vertex="1">
          <mxGeometry x="980.5" y="-3710.31" width="80" height="80" as="geometry" />
        </mxCell>
        <mxCell id="8Uk2gC8nPjYWDtuDnkii-34" value="4" style="ellipse;whiteSpace=wrap;html=1;aspect=fixed;fillColor=#b0e3e6;fontSize=25;fontStyle=1" parent="1" vertex="1">
          <mxGeometry x="830.5" y="-3700.31" width="60" height="60" as="geometry" />
        </mxCell>
        <mxCell id="8Uk2gC8nPjYWDtuDnkii-35" value="" style="rounded=0;whiteSpace=wrap;html=1;fillColor=#B2D3E2;" parent="1" vertex="1">
          <mxGeometry x="900.5" y="-3710.31" width="80" height="80" as="geometry" />
        </mxCell>
        <mxCell id="8Uk2gC8nPjYWDtuDnkii-36" value="" style="rounded=0;whiteSpace=wrap;html=1;fillColor=#B2D3E2;" parent="1" vertex="1">
          <mxGeometry x="1060.5" y="-3950.31" width="80" height="80" as="geometry" />
        </mxCell>
        <mxCell id="8Uk2gC8nPjYWDtuDnkii-37" value="" style="rounded=0;whiteSpace=wrap;html=1;fillColor=#B2D3E2;" parent="1" vertex="1">
          <mxGeometry x="1060.5" y="-3870.31" width="80" height="80" as="geometry" />
        </mxCell>
        <mxCell id="8Uk2gC8nPjYWDtuDnkii-38" value="" style="rounded=0;whiteSpace=wrap;html=1;fillColor=#B2D3E2;" parent="1" vertex="1">
          <mxGeometry x="1060.5" y="-3710.31" width="80" height="80" as="geometry" />
        </mxCell>
        <mxCell id="8Uk2gC8nPjYWDtuDnkii-39" value="C" style="rounded=1;whiteSpace=wrap;html=1;fillColor=#fff2cc;fontSize=25;fontStyle=1;" parent="1" vertex="1">
          <mxGeometry x="910.5" y="-4020.31" width="60" height="60" as="geometry" />
        </mxCell>
        <mxCell id="8Uk2gC8nPjYWDtuDnkii-40" value="O" style="rounded=1;whiteSpace=wrap;html=1;fillColor=#fff2cc;fontSize=25;fontStyle=1;" parent="1" vertex="1">
          <mxGeometry x="990.5" y="-4020.31" width="60" height="60" as="geometry" />
        </mxCell>
        <mxCell id="8Uk2gC8nPjYWDtuDnkii-41" value="H" style="rounded=1;whiteSpace=wrap;html=1;fillColor=#fff2cc;fontSize=25;fontStyle=1;" parent="1" vertex="1">
          <mxGeometry x="1070.5" y="-4020.31" width="60" height="60" as="geometry" />
        </mxCell>
        <mxCell id="8Uk2gC8nPjYWDtuDnkii-42" value="X" style="rounded=1;whiteSpace=wrap;html=1;fillColor=#fff2cc;fontSize=25;fontStyle=1;" parent="1" vertex="1">
          <mxGeometry x="1150.5" y="-4020.31" width="60" height="60" as="geometry" />
        </mxCell>
        <mxCell id="8Uk2gC8nPjYWDtuDnkii-43" value="" style="rounded=0;whiteSpace=wrap;html=1;" parent="1" vertex="1">
          <mxGeometry x="1140.5" y="-3950.31" width="80" height="80" as="geometry" />
        </mxCell>
        <mxCell id="8Uk2gC8nPjYWDtuDnkii-45" value="1" style="ellipse;whiteSpace=wrap;html=1;aspect=fixed;fillColor=#b0e3e6;fontSize=25;fontStyle=1" parent="1" vertex="1">
          <mxGeometry x="1301.5" y="-3940.31" width="60" height="60" as="geometry" />
        </mxCell>
        <mxCell id="8Uk2gC8nPjYWDtuDnkii-46" value="2" style="ellipse;whiteSpace=wrap;html=1;aspect=fixed;fillColor=#b0e3e6;fontSize=25;fontStyle=1" parent="1" vertex="1">
          <mxGeometry x="1301.5" y="-3860.31" width="60" height="60" as="geometry" />
        </mxCell>
        <mxCell id="8Uk2gC8nPjYWDtuDnkii-47" value="3" style="ellipse;whiteSpace=wrap;html=1;aspect=fixed;fillColor=#ffcccc;strokeColor=#36393d;fontSize=25;fontStyle=1" parent="1" vertex="1">
          <mxGeometry x="1301.5" y="-3780.31" width="60" height="60" as="geometry" />
        </mxCell>
        <mxCell id="8Uk2gC8nPjYWDtuDnkii-48" value="" style="rounded=0;whiteSpace=wrap;html=1;fillColor=#B2D3E2;" parent="1" vertex="1">
          <mxGeometry x="1371.5" y="-3950.31" width="80" height="80" as="geometry" />
        </mxCell>
        <mxCell id="8Uk2gC8nPjYWDtuDnkii-49" value="4" style="ellipse;whiteSpace=wrap;html=1;aspect=fixed;fillColor=#b0e3e6;fontSize=25;fontStyle=1" parent="1" vertex="1">
          <mxGeometry x="1301.5" y="-3700.31" width="60" height="60" as="geometry" />
        </mxCell>
        <mxCell id="8Uk2gC8nPjYWDtuDnkii-50" value="" style="rounded=0;whiteSpace=wrap;html=1;" parent="1" vertex="1">
          <mxGeometry x="1611.5" y="-3950.31" width="80" height="80" as="geometry" />
        </mxCell>
        <mxCell id="8Uk2gC8nPjYWDtuDnkii-51" value="1" style="ellipse;whiteSpace=wrap;html=1;aspect=fixed;fillColor=#b0e3e6;fontSize=25;fontStyle=1" parent="1" vertex="1">
          <mxGeometry x="1381.5" y="-4020.31" width="60" height="60" as="geometry" />
        </mxCell>
        <mxCell id="8Uk2gC8nPjYWDtuDnkii-52" value="2" style="ellipse;whiteSpace=wrap;html=1;aspect=fixed;fillColor=#b0e3e6;fontSize=25;fontStyle=1" parent="1" vertex="1">
          <mxGeometry x="1461.5" y="-4020.31" width="60" height="60" as="geometry" />
        </mxCell>
        <mxCell id="8Uk2gC8nPjYWDtuDnkii-53" value="3" style="ellipse;whiteSpace=wrap;html=1;aspect=fixed;fillColor=#ffcccc;strokeColor=#36393d;fontSize=25;fontStyle=1" parent="1" vertex="1">
          <mxGeometry x="1541.5" y="-4020.31" width="60" height="60" as="geometry" />
        </mxCell>
        <mxCell id="8Uk2gC8nPjYWDtuDnkii-54" value="4" style="ellipse;whiteSpace=wrap;html=1;aspect=fixed;fillColor=#b0e3e6;fontSize=25;fontStyle=1" parent="1" vertex="1">
          <mxGeometry x="1621.5" y="-4020.31" width="60" height="60" as="geometry" />
        </mxCell>
        <mxCell id="8Uk2gC8nPjYWDtuDnkii-55" value="" style="rounded=0;whiteSpace=wrap;html=1;fillColor=#B2D3E2;" parent="1" vertex="1">
          <mxGeometry x="1451.5" y="-3870.31" width="80" height="80" as="geometry" />
        </mxCell>
        <mxCell id="8Uk2gC8nPjYWDtuDnkii-56" value="" style="rounded=0;whiteSpace=wrap;html=1;fillColor=#B2D3E2;" parent="1" vertex="1">
          <mxGeometry x="1531.5" y="-3790.31" width="80" height="80" as="geometry" />
        </mxCell>
        <mxCell id="8Uk2gC8nPjYWDtuDnkii-57" value="" style="rounded=0;whiteSpace=wrap;html=1;fillColor=#B2D3E2;" parent="1" vertex="1">
          <mxGeometry x="1611.5" y="-3710.31" width="80" height="80" as="geometry" />
        </mxCell>
        <mxCell id="8Uk2gC8nPjYWDtuDnkii-58" value="" style="rounded=0;whiteSpace=wrap;html=1;fillColor=#B2D3E2;" parent="1" vertex="1">
          <mxGeometry x="1451.5" y="-3950.31" width="80" height="80" as="geometry" />
        </mxCell>
        <mxCell id="8Uk2gC8nPjYWDtuDnkii-59" value="" style="rounded=0;whiteSpace=wrap;html=1;fillColor=#B2D3E2;" parent="1" vertex="1">
          <mxGeometry x="1371.5" y="-3870.31" width="80" height="80" as="geometry" />
        </mxCell>
        <mxCell id="8Uk2gC8nPjYWDtuDnkii-60" value="" style="rounded=0;whiteSpace=wrap;html=1;fillColor=#B2D3E2;" parent="1" vertex="1">
          <mxGeometry x="1531.5" y="-3870.31" width="80" height="80" as="geometry" />
        </mxCell>
        <mxCell id="8Uk2gC8nPjYWDtuDnkii-61" value="" style="rounded=0;whiteSpace=wrap;html=1;fillColor=#B2D3E2;" parent="1" vertex="1">
          <mxGeometry x="1451.5" y="-3790.31" width="80" height="80" as="geometry" />
        </mxCell>
        <mxCell id="8Uk2gC8nPjYWDtuDnkii-62" value="" style="rounded=0;whiteSpace=wrap;html=1;fillColor=#B2D3E2;" parent="1" vertex="1">
          <mxGeometry x="1611.5" y="-3870.31" width="80" height="80" as="geometry" />
        </mxCell>
        <mxCell id="8Uk2gC8nPjYWDtuDnkii-63" value="" style="rounded=0;whiteSpace=wrap;html=1;fillColor=#B2D3E2;" parent="1" vertex="1">
          <mxGeometry x="1451.5" y="-3710.31" width="80" height="80" as="geometry" />
        </mxCell>
        <mxCell id="8Uk2gC8nPjYWDtuDnkii-64" value="" style="rounded=0;whiteSpace=wrap;html=1;" parent="1" vertex="1">
          <mxGeometry x="1531.5" y="-3950.31" width="80" height="80" as="geometry" />
        </mxCell>
        <mxCell id="8Uk2gC8nPjYWDtuDnkii-65" value="" style="rounded=0;whiteSpace=wrap;html=1;" parent="1" vertex="1">
          <mxGeometry x="1371.5" y="-3790.31" width="80" height="80" as="geometry" />
        </mxCell>
        <mxCell id="8Uk2gC8nPjYWDtuDnkii-66" value="" style="rounded=0;whiteSpace=wrap;html=1;" parent="1" vertex="1">
          <mxGeometry x="1371.5" y="-3710.31" width="80" height="80" as="geometry" />
        </mxCell>
        <mxCell id="8Uk2gC8nPjYWDtuDnkii-67" value="" style="rounded=0;whiteSpace=wrap;html=1;" parent="1" vertex="1">
          <mxGeometry x="1611.5" y="-3790.31" width="80" height="80" as="geometry" />
        </mxCell>
        <mxCell id="8Uk2gC8nPjYWDtuDnkii-68" value="" style="rounded=0;whiteSpace=wrap;html=1;" parent="1" vertex="1">
          <mxGeometry x="1531.5" y="-3710.31" width="80" height="80" as="geometry" />
        </mxCell>
        <mxCell id="8Uk2gC8nPjYWDtuDnkii-69" value="&lt;font style=&quot;font-size: 32px&quot;&gt;&lt;b&gt;Feature matrix&lt;/b&gt;&lt;/font&gt;" style="text;html=1;strokeColor=none;fillColor=none;align=center;verticalAlign=middle;whiteSpace=wrap;rounded=0;" parent="1" vertex="1">
          <mxGeometry x="900.5" y="-4070.31" width="320" height="40" as="geometry" />
        </mxCell>
        <mxCell id="8Uk2gC8nPjYWDtuDnkii-70" value="&lt;font&gt;&lt;span style=&quot;font-size: 32px&quot;&gt;&lt;b&gt;Adjacency&lt;/b&gt;&lt;/span&gt;&lt;b style=&quot;font-size: 32px&quot;&gt;&amp;nbsp;matrix&lt;/b&gt;&lt;/font&gt;" style="text;html=1;strokeColor=none;fillColor=none;align=center;verticalAlign=middle;whiteSpace=wrap;rounded=0;" parent="1" vertex="1">
          <mxGeometry x="1371.5" y="-4070.31" width="320" height="40" as="geometry" />
        </mxCell>
        <mxCell id="8Uk2gC8nPjYWDtuDnkii-71" value="" style="endArrow=none;html=1;strokeColor=#000000;strokeWidth=1;" parent="1" edge="1">
          <mxGeometry width="50" height="50" relative="1" as="geometry">
            <mxPoint x="780.5" y="-3520" as="sourcePoint" />
            <mxPoint x="780.5" y="-4120" as="targetPoint" />
          </mxGeometry>
        </mxCell>
        <mxCell id="8Uk2gC8nPjYWDtuDnkii-72" value="" style="rounded=1;whiteSpace=wrap;html=1;fillColor=none;arcSize=6;" parent="1" vertex="1">
          <mxGeometry x="40" y="-4120" width="1760" height="600" as="geometry" />
        </mxCell>
        <mxCell id="8Uk2gC8nPjYWDtuDnkii-73" value="&lt;font style=&quot;font-size: 32px&quot;&gt;&lt;b&gt;Molecule&lt;/b&gt;&lt;/font&gt;" style="text;html=1;strokeColor=none;fillColor=none;align=center;verticalAlign=middle;whiteSpace=wrap;rounded=0;" parent="1" vertex="1">
          <mxGeometry x="77.5599999999999" y="-4000.8700000000003" width="320" height="40" as="geometry" />
        </mxCell>
        <mxCell id="8Uk2gC8nPjYWDtuDnkii-74" value="&lt;font style=&quot;font-size: 32px&quot;&gt;&lt;b&gt;Graph&lt;/b&gt;&lt;/font&gt;" style="text;html=1;strokeColor=none;fillColor=none;align=center;verticalAlign=middle;whiteSpace=wrap;rounded=0;" parent="1" vertex="1">
          <mxGeometry x="439.54999999999995" y="-4000.31" width="320" height="40" as="geometry" />
        </mxCell>
        <mxCell id="8Uk2gC8nPjYWDtuDnkii-75" value="" style="strokeWidth=2;html=1;shape=mxgraph.flowchart.annotation_2;align=left;labelPosition=right;pointerEvents=1;rotation=-90;" parent="1" vertex="1">
          <mxGeometry x="1051.75" y="-3769.06" width="18.75" height="317.5" as="geometry" />
        </mxCell>
        <mxCell id="8Uk2gC8nPjYWDtuDnkii-76" value="" style="strokeWidth=2;html=1;shape=mxgraph.flowchart.annotation_2;align=left;labelPosition=right;pointerEvents=1;rotation=-180;" parent="1" vertex="1">
          <mxGeometry x="1230.5" y="-3947.81" width="18.75" height="317.5" as="geometry" />
        </mxCell>
        <mxCell id="8Uk2gC8nPjYWDtuDnkii-77" value="" style="strokeWidth=2;html=1;shape=mxgraph.flowchart.annotation_2;align=left;labelPosition=right;pointerEvents=1;rotation=-90;" parent="1" vertex="1">
          <mxGeometry x="1522.75" y="-3769.06" width="18.75" height="317.5" as="geometry" />
        </mxCell>
        <mxCell id="8Uk2gC8nPjYWDtuDnkii-78" value="" style="strokeWidth=2;html=1;shape=mxgraph.flowchart.annotation_2;align=left;labelPosition=right;pointerEvents=1;rotation=-180;" parent="1" vertex="1">
          <mxGeometry x="1701.5" y="-3947.81" width="18.75" height="317.5" as="geometry" />
        </mxCell>
        <mxCell id="8Uk2gC8nPjYWDtuDnkii-79" value="&lt;b&gt;&lt;font style=&quot;font-size: 25px&quot;&gt;N&lt;/font&gt;&lt;/b&gt;" style="text;html=1;strokeColor=none;fillColor=none;align=center;verticalAlign=middle;whiteSpace=wrap;rounded=0;" parent="1" vertex="1">
          <mxGeometry x="1720.25" y="-3799.06" width="40" height="20" as="geometry" />
        </mxCell>
        <mxCell id="8Uk2gC8nPjYWDtuDnkii-80" value="&lt;b&gt;&lt;font style=&quot;font-size: 25px&quot;&gt;N&lt;/font&gt;&lt;/b&gt;" style="text;html=1;strokeColor=none;fillColor=none;align=center;verticalAlign=middle;whiteSpace=wrap;rounded=0;" parent="1" vertex="1">
          <mxGeometry x="1512.1200000000001" y="-3600.31" width="40" height="20" as="geometry" />
        </mxCell>
        <mxCell id="8Uk2gC8nPjYWDtuDnkii-81" value="&lt;b&gt;&lt;font style=&quot;font-size: 25px&quot;&gt;N&lt;/font&gt;&lt;/b&gt;" style="text;html=1;strokeColor=none;fillColor=none;align=center;verticalAlign=middle;whiteSpace=wrap;rounded=0;" parent="1" vertex="1">
          <mxGeometry x="1512.1200000000001" y="-3600.31" width="40" height="20" as="geometry" />
        </mxCell>
        <mxCell id="8Uk2gC8nPjYWDtuDnkii-82" value="&lt;b&gt;&lt;font style=&quot;font-size: 25px&quot;&gt;N&lt;/font&gt;&lt;/b&gt;" style="text;html=1;strokeColor=none;fillColor=none;align=center;verticalAlign=middle;whiteSpace=wrap;rounded=0;" parent="1" vertex="1">
          <mxGeometry x="1248.63" y="-3799.06" width="40" height="20" as="geometry" />
        </mxCell>
        <mxCell id="8Uk2gC8nPjYWDtuDnkii-83" value="&lt;b&gt;&lt;font style=&quot;font-size: 25px&quot;&gt;T&lt;/font&gt;&lt;/b&gt;" style="text;html=1;strokeColor=none;fillColor=none;align=center;verticalAlign=middle;whiteSpace=wrap;rounded=0;" parent="1" vertex="1">
          <mxGeometry x="1040.5" y="-3600.31" width="40" height="20" as="geometry" />
        </mxCell>
        <mxCell id="gPy2aV80P3HncM_8l_sU-2" value="" style="shape=image;verticalLabelPosition=bottom;labelBackgroundColor=#ffffff;verticalAlign=top;aspect=fixed;imageAspect=0;image=data:image/png,iVBORw0KGgoAAAANSUhEUgAAAboAAAF2CAYAAAAY3V1KAAAAAXNSR0IArs4c6QAAAARnQU1BAACxjwv8YQUAAAAJcEhZcwAADsMAAA7DAcdvqGQAAAAhdEVYdENyZWF0aW9uIFRpbWUAMjAyMTowMzoxNCAxODoyNDowMloxQ4IAAH0zSURBVHhe7f0LkF3VfeeLn5aQeAnUQgKEhKSjB0i8Gz+wDbZ1ZMfBVSliMXaZZDK3aJXnhjj5+x/huTOepG6NpKSSO57rhGgmrgyZZKTOpJJybAwkQwzYWN0GY0DIiIfEWzoCCQmEQMK8ZJB0f5/t8z359dLep1tSq3uf7t+n6nfW2o+zn+u3vuu39qsSBEEQBEEQBEEQBEEQBEEQBEEQBEEQBEEQBEEQBEEQBEEQBEEQBEEQBEEQBEEQBEEQBEEQBEEQBEEQBEEQBEEQBEEQBEEQBEEQBEEQBEEQBEEQBEEQBEEQBEEQBEEQBEEQBEEQBEEQBEEQBEEQBEEQBEEQBEEQBEEQBEEQBEEQBEEQBEEQBEEQBEEQBEEQBEEQBEEQBEEQBEEQBEEQBEEQBEEQBEEQBEEQBEEQBEEQBEEQBEEQBEEQBEEQBEEQBEEQBEEQBEEQBEEQBEEQBEEQBEEQBEEQBEEQBEEQBEEQBEEQBEEQBEFQJjoaaRCMSv6fE0+sHqhUamdZfmJHx+IJlnZ2dFSZtu/Qofp7lv780KFt+yqV+uvvv1//owMHepkWBMHoIYQuGFUgbKeZsJ3R0XH9aR0dtfE2bkJHR4V0XMNU6A817KCZiWHlvUOHKu9b+raJ3msHD/bUK5W1X9+/35IgCNqZELqg7bnOxO2DJm7nmrhNMnE7yYTtRBt/grNxNk4ilwoddsBEDrFD6LCfm71r49400dttoveV/ftX2qggCNqQELqgbUHgPnDwYPe8E064/tRKpXqyidlEG48RxSFwPpLz0ZxIozoZ0R3dmvvNvOB9OQQvCNqOELqgLfl348fXPjhhwprJHR3VU0zUTrJxmcg1BE4ilwldTjQn0qhOgucju5/beATvbUvfMMHb/v77Pf/uvfdC8IKgTQihC9qK37Uo7uJKpXvauHErJpmAnWLj6KY80fLcaIJlImfDedFcK6GTyJG+b6KWRXYNa4qd2VuW33voUP2O995b9q24eSUISk8IXdA23GQiN62jY90Ui+IQuZNtHAKH0DVFriFw2XU5ZxK5rMDbPKSIW8VESyLnxU5GVKduTKK7/ZZ/x1LEzqK7yrPvv7/s/37vvbWWDYKgpFAnBEHpWTVhwsrq+PG3ntHR0XmaCRWRHNfk6LJUREe3ZXZ9rmFZF6aNS01dmlnEZ8NYFgGSZ5ymydz4DuUtZfmnjRu39KoTTqje+f77t9tgEAQlJCK6oPT8vyeeuHL2uHErJls+jeT8jSeypoCRNqwZzeWgrktFdFlUZxGbj+qyyM6MLswssjN7x/JvWfqGpTsPHer9/7377hIbDIKgZITQBaXm60RyJ5zQT+T0+AARnI/eEDgiNoRNEdmRFvB+Yoc1BE9C58XuXTOJ3T5LXzpwoPf///Ofh9gFQcmgPgiCUvKHJnJzx49fcbqJ16lO5LI7LJ3INcXOximqOxqRA/7jo0AiQ13TgyxlnGhMwyaMG1e9aty42p0HDvRk04IgKAUhdEEp+b8mTOheNH78TYic7q5sihxm+abAYTYskXMy9C/Y9JaWwBjEDshzbc7PxbDnUGN4fEdH9QM28YcHD8bdmEFQEkLogtLxtRNPrC4aN27dZBMPL3K6JqebThA1hI6bSMjnFmablidkh1EwX7/IsDGdX7o4hURO6YSOjtpFhw713XvoULw+LAhKgBqtQVAKPlepVM85dGhN86YTM383pSI3RC1L3XA/EB3sSMn5H06i9fl16yYYtottJNrkTlDuCp0zYcK6xbYvNioIghEmhC4oFZdOmNA9Zdy4mqK4psBhDWFBaDKzYdLDCrGNP2aSZaTrbAqeDbN9MoQZgT7V7FcmTlxjSRAEIwy+GgSl4IYTT6yeN27crXRZIhTZNTmzrLvSjAiqKXpmuUJn44aMZFkMZV2WNl6PIwB3aGbDjfEHLGWczVc979Chvp9EF2YQjCgR0QWlYd6hQ2sygTPTzSapqMn8c3KDwuZvaUW4aeS0zuZ2kNo82k4MUWYfiEpnjh8fUV0QjDCDrieC4HjCOyxPGzcu+8ROU+AaAtJP4BLrR55gMc6P17A3P34Amuu2eUn9tmHNrkxLeah90rhx1d+dMKHbRgVBMEIcVlcEwUhwhkVzenRAN3nkCRvWfA2XWUtsvmaKjbN/KFXem+ZNcePIsV6lTbN5vOAhduwL1+suiKguCEYUfDQIRpTrLZqb3NFR40YOdf9JMCQiCIuMcaT9SAVKw6SYxG28LTUvr/n0nxYw1f7Rb3u8advZD7pgebPK9RHVBcGIgV8GwYgy7eDB7uwzO2YtI7nECvGChXlhw06wtWAaTgVP/y2AKZnZPM28GduYmY23JTa7MRHwOR0diy0JgmAEwC+DYESZYiJAN18mciYOEgsvIt4Ghf2/n8hJ3CaY9HjzgpeKnSdnHGNSy7bdGYKH2J3e0dF9dTxXFwQjAr4YBCMG3ZYnd3TUEANEwYtEnpAgOM18HhIkL3KImERuoklqahI7iZy3HBirKcqnxvazP5gtPbteN2vChJolQRAMM/hjEIwYkw4e7EYIvMghFCDR8KTDGakgeaGSyHmhO/HEXxj5NLIriuhyyJuLcd4ywbPl0Y15RnRfBsGIEEIXjCinVSqLEQHdrp8KxVGBUGFpROejOJmETiLnozotK0EPinuYSy96zvLO2C+EfFJHR9yQEgQjAD4YBCPGKR0dNURAojAQeiNJntj0Q2Llhc5Hdt6Y7qM5bwWk25C3Pfwbk9DZmitxnS4Ihp8QumDE4KXH/s5F8NKSCkk2fChPUhqk4qRhTNGaRE1dlRI4WbqMHHK3i7TFtrFEW3plalynC4JhB98LghFh+vjxVSIdREDSkkqFhCTPmgxG/FLTNJ8OkuY22Hq1Zp96A5aOsa8nHzwYEV0QDDMhdMGI8X6l0oxuJAqQikUr6weCl4qexh08mG+aLivCTSM3kHk0jNhN7OiY84uhIAiGixC6YMSYZOZjqVQsWplJVJYWIuHyonbggKmryWtqjM8TPi3HYXM01+/zPk0NlOfdl9mIIAiGjRC6YMQYZ9GNBMCLhESkKSAmNv2mNYY1/TAkVKnAvffeL+znP/+FaThP7LScBMZk1tiGItO2+Ty8m7PMIAiOLyF0wYiCCGRCYALQzDeGvUhoWmpN2UgFhGEM4coTuTyx80Lnl9fIa525ZvPkjjfj35jyQRAMLyF0wYjhK/+mMLQQjH6WzNcEUZIhWkRqPqJD3Pbv7y92iugw/3+sAbnm+mx8M59nNr3V/EEQDC8hdMGIYbKSVfwHTAjI51k2nbRAXDRPJkk2TwapTGLnozoJnkROQucjOmF5hljHkRjbxX418w1jOAiC4SWELhgx3j50aNv7JgapEDStMc2LhaZl+YaQaDiTJxuXQSrhktilgudFTkLH/5yxNC2f1G+TxhcJdXM61pjHpDUIgmEmhC4YMX5+6FDdZIbHDP5FEArMi4yGs7wTHlKEKRMppZgXOy9s3jSP/sPfzbTcLLXxzbzG27iB5sHYx/ds2n7bZ8sGQTCMhNAFI8YbZkQ4Flv9QuxMCDLha6SZSDSEo8gQlDTyIy0UOwlekcA17DBRdcODMe1DM23YmxbFWhIEwTASQheMGH0HD661qC4TOqKdpuA1LM1nw0WCk4xnXsTKZOtfBCxH0PqNa/zHLyezvHGN8c3tIk3m07Rs/8z2m71ZqfRaEgTBMBJCF4wo7xw6VEfsJAq5kVAiIF54NE+WZ3zjf/3mNZPoZe+jdMa4TNzMDlsPljMuWz7z+/GN+bLtsbxEO0ttmMhV+xkEwfASQheMKD+zCCcTATNFPhKJltYQltSY5kWn3zTGIzaJ+Xmy+fy8GnbTvMj56bKmyNl85CVyb5mo9x04EBFdEAwzIXTBiLLv4MG+dy2lW++wbsyGoGTm8y3GNcXKpjVFzU3z8+aOa/xP4w9L3fKa1hinbW/mG8MIHfv4RqUSN6IEwQgQQheMKO8ePNj7tonB/oYgpJGdhMMLSj9z4/KELDPmcZYJWdG4nP83l5s3vTGObdU4bTcpAs6+8eqvPQcP9thgEATDDF8OCYIRY1ulsnfBuHHdJ3d0dE7o6Mg+TjreUgomXx3PPnHTSIW+5J1yqDE+uxZXYNxBqTTPEDWlskwIlXepxKxpNixhI33H0ncsfdNsz6FD9X88cGCZZYMgGGYiogtGnFcPHlxFVEfUkwlFw5rRnY1PBUV5RVGZMb4xrd/4xPL+m7s8zJaXTs/yOduk7VVkyj6wT2+Z7Y1uyyAYMULoghHnhwcPriXqIfrJrtc1RINrdhKN5vU7WTps1k+cGtOb48zS4cJx/FfGsMbL3HgNs43ktc3NqM7sbbM3Dh1aZUkQBCNAdF0GpeCcjo7qqR0dXb7rUl2Wvusyr9uSLsu0i1LmuyWZzw/LsutzpM6y8WYInFJFdzIvcl7ciOIQOCI5E7jK7oMH63cdOHCjjQqCYAQIoQtKwbnjxu2bWKl0TzQxQuwQNLobuE6XoRQsj4iBTw82xntLRQ3TeC9oqUnMmnkTrKa4yWwcadbNannSZhRnw0SpvP1l18GDN247dGijZYMgGAFC6IJSYEJQnz1uXM3ErtrvZhTsF7P0i+YQK4lfKmyK8LyoeZOYpcOHmYkVqUQPUWuKXUPk1K0qkSOao6vyLTOiuZctmvv+wYNxE0oQjCAhdEFpmHHwYN+4ceOWE9EhcrrrEkFrSlxDxCATt8awNwlYlrfpGs4zhEwpIpalJlASN2+HCRyWiJy6LN8022f2WqVyLSJuo4MgGCFC6ILSwKMGZx061DGho6OWRXRmzYjOUkC8DhM7zAleKmYa50WtyPLELUtNtDScJ3JcnyOSU5flPrOXDh1a23fgwGrLBkEwgoTQBaXCxK73zEqlduK4cdXsGh0jGyIHEjTw1+SawmbjJG4Ilxc2zaPh1BAypU0z4WqKnRkCpxtQvMj1uy5nKTegvHfgwDLE20YFQTCC/EsNEgQlYXGlUj31hBO2TjXRmmzDp1p6itlJlse4YWWipRPM6OY8wYazuzWd6UYWCngWGTYsD4llUzBNqFJRTIXPR3Q8EsHD4RK5V03kflapLIv3WgZBOYiILigdREEzOjr6TFi6q+PGVa4aP75ygaVnmHC9aEKSiZLlEaKmOLlxCJPGKS/ByrOmiCWGoMkQtTSKI1Ukx3ZwXW6P2b6DB1fzCSIbFQRBCYiILigti8ePr/3yCSesu9KEbraJ2Jlmp5ltMzHZfPBg5ZkDByq8NkyRHa023cjSjOrMFM3lRXUIFGRC2UibImnr8WKYiZ6NI0XkTjZbaAI8y9ZnEVxlk23Td997b+2d8aqvICgVIXRBqfnTiRO3Xn7CCVUvdNk1OxOYfRMmVH6yf3/labPmezIbhsAp1Q0tMk8/oTMRa4pcI0XgyOtmlJNtvTPMLrVlzjUjmnvVbLsZQveb776briIIghGGeiAI2pLJJjifPe20SrcZ1/MQHb1IuZ/ZOG79z27/z8k30+R/3EXJNJY7wda14MQTK79u6/rcxImVuTacgsJxffEXQ0EQlIUQuqDUDFhATeAQvOtMhK61CI8HtSV4pJlYMa5hab6fqGH6X8NY3oLx4yu/fsoplV81keu0fBERygVBOQmhC0pProCYwKXMMcH7P03sZlmKQEn0WhkPd2PNfON/GF2hv3bCCZXP2TI7cyK4jJztCIKgXITQBW3BYMWu08b9kkVdXYidCRd3QmJewAqtMS/X7S61/39l4sTKPC9wWl+yXn8NMAiC8hFCF5QaLx6FQpIjeAtMoC4y427IzEzAZBI/WXOazccNJ58yoeROzyAIRgchdEGpmTRu3FHd3EFUNs0E8BRLeYib906SemOcxpMiekSC2Z2dg8TPyV2aQRCUjxC6oL0ZQJTOsuk8xP16ju1tpK81DFHkLSwtOQIRDIKgHITQBaUGWTkWaSGyQ8x41u0Vs92N1BvTELpp/nrcURASGATlJIQuKDXHKnKNdMmhQ4eWHTp4cNUBs4OVyloZ47JpNs/Jx/A5nRC5ICgv4Z9BqVl70kmHeDib12zxZpRJdB1i3Cxy0kmVygknVCo//3mlsn9/pXLwYPZCZrokidResGFeFXbj/v2DKuffmDhx6/njx1d5v+bZto4pZrxejLewVCZO/MX6DhyoVN59t1J5/31epZI9e0dEuKOxrr959925fZVKfH8uCEpERHRBqeEGERiuFpmiwCMhWotBUG5C6IJSg4i0FBKiu+GkxfpC8IKgnITQBUGDPa2u0Q23oAZBMGSE0AWlhreOHAtH0xV5NLCVIYVBUE5C6ILSIwE5TEgGIYJDKj4R1QVBWxJCF5SaQUnLEAnQoKM/t76QviAoPyF0QamRkBQKygAidzRdly3/02J9IXpBUE5C6IL2pETdiGxJiFwQlJcQuqD0DKeIHPPNK+PHxxfGg6BkhNAFpaalyB3HqC5X8EoURQZBMHhC6IJS007SEjIYBOUkhC4oNQN2JeZEWfrPMXdD5lEQ1YXIBUF5CaELSk1EdEEQHCshdEFpWVypVBGPYxGQI4nqhuIL4Sc00iAIykMIXdAW5Irdce62PGwZWh+pW7dyh29NEARlIHwzKC1EdP/HSSdtvWDcuMqUKVMqB84/v/LGhRdWTjjhhMp7M2ZUTp40Kcvvf/fdyjtvvVWZuHNnZeKuXZWDr7xSOfXhh7Pv0W0y+3eD/B7d70+cuO6K8eNrfP+O79FNmDq18t60aZV3zz67csJJJ1Xenz27csiW93PW9dJLlZNtPZ3PPMPLoCsv2finzNa+996Sew4c6G0sMgiCEhBCF5QWhG7Jhz60dcLHPlY5qVqtnHbaaZWTTz65MnHixMpJJjyTTOgmTJhQeeeddypvvvlmZf/+/ZV3TfTefvvtyhtvvFF5u16vnHDHHZWVO3YMqpz/ngndnAsuqJ20cGHljY9/vHLKKadk6zvxxBOz/Kmnnlo5aGLGulgP62PdlR07Kqf8+MeVdx55pPL3r78eQhcEJSO6LoPSsssE58XLLqu8M3lyY8yR8Y4J41Of+ERjaGC22bo2L15cefGSSxpjBsdbnZ2VZ6+6qrL+85+vvGkRYBAE5SKELig1RFBF8AmfY/2Mj+eNs89u5PLR+vw6lT/U+BJ6CF0QlI8QuqDtSMXmeCDhUhoEQfsSQhcEQ8DxFt4gCI6eELqgLWgHIQmxC4JyEkIXlJqyiUeIWRC0HyF0QduC6Ayn8ITIBUF7EkIXBIMgRC4I2pcQuqDUDHfUNhhabc+hQ4fiw6tBUDJC6IK2ZziFMCK7IGg/QuiCtmWoo71WD6e3QtsRIhgE5SSELmhLjqeoFD0kHkIWBO1JCF0QHCV5wjd+/PhGLgiCshBCFwSOgV75FVFdELQfIXRBqWklLIMRneF+V+W4ceFSQVA2wiuDMjPgrfojEWEVrZPx0XUZBOUjhC4oNYiHt5FAUaFf/0htSxAER04IXRAcAanAaTiELwjKSwhd0LaEuARBMBiipghKy8KFC2uf/OQn151zzjmVKVOmVCZNmlQ56aSTKieeeGLllFNOqZx++umVCRMmVH72s59ltn///sq7775befvttyu7du2qvPzyy5Xdu3dX3n///bU2X9X+W7V8ZeLEidm1v/fee6/OQ+I2zH967b+1M844o7po0aLK5MmTK6eeempzfayb9dGN+cYbb2Tr0PrefPPNyr59+7J1PvDAA8t++tOfrs12IAiCUhARXVBaTjjhhEZucCA4mzdvrjzyyCOV559/vvLOO+9kgnXWWWd1m4DVTKyqnZ2dVQQMI28CWjXRrNr07unTp1dZ51NPPVVZv359lj755JONpf+CVlEk0+JmlCAoHyF0QVvz2muvVTZt2lS55557Kr29vVkEB6eddlpmRGISNqJApakxnnkx/kck9+qrr1a2bdtWueOOOyoPPfRQZc+ePdmyo8s0CNqL8NigtFx00UW1q666ap1FWs2uy5NPPjnranzvvfcqL7zwQmXjxo3ZMEY0hhFV8TybDGHy5tEdlaR0Yyo9cOBA0+juZH0///nPK9OmTatceeWVWZepui7feuutyt69e7OuUhPEZRYNRtdlUFoWL15cpXfj3HPPpTdjccOvqviQlfW6lfltdM9bme69+eabext/a2tC6ILSkid0iM327dsrW7Zsya6d4ZyIjgRO1krklHqRAy90slTsMASObenq6soivxC6oOwgbp2dnd1z5sxZTDe+ejYov2kjUf5BuSe/b9++3q1bt/b94R/+4cpsQhsSQheUFgkdN6OYk2ZOt2HDhkyMvMjhnHmRXJHQpbC81LzQkSJ05CV2CC6ChwjPmzcvhC4oJQicRW4rzj777G58iG55RI6eEd1olSd08hWVfcq7NejqVsZ7vvzlL7ed4IXQBaUFofv4xz++jrsdubGEa2bqukTgWkVyeSIn501pJXQyH9kpukPoMKZfcMEFlVdeeaXy4IMPrjKha9uWbzA6aHRPEsGtsAguayjSC+FFTtGcfMn7kPxFvqAyjx++8cYb9SeeeKLn937v99qmnIfQBaUFobviiivWcSs/gnakIucdFtIUJxZe5OTcqXmxSyM78mzb5s2bQ+iCEQWRmzFjxjqL4ribOHssRpGcuislcnlCh8lHQP6gcq9Haqxh1/uFL3xhSWO2UhNCF5SWD37wg7W5c+eu890srURODjqQ0KXgyEq90ClNhS5P7HB+WrsvvPDCWp6lyxYYBMOMidxKuirPOuusCiLH4zVe5LwveX/KEzrvLyr/lHuVd65Nv/baa/Wrr756bmO20hIP/QSlhFbpnDlzHsEp84QOQ+wkeKnwYQidTMPpeJzZp3njZemwxvn5rTLpspb0tq1bt25s7EoQDAuInEVy/USOaE5dlgidj+jwJ1KiOvKK8NJIL/U5n7f5Oi2q6963b9/tTz/99N7GppSOiOiC0oHImbNulVN6gfPilidoXnQkRuDzKXkRnaI5pWrR+siO1q2MVq5auo03syzr6+uLm1KCYQGRmzZt2gpujuIRGK7JeZGjsagGo8RNJvFKfUo+gw+AL/v0ZNBl37hmRzdm/Zd+6ZdKG9mF0AWl4iMf+Uh2feG0006r4ph5UVzqkN4xWwmdTz1yZAmcLBU6mZzdi526MDGcH7F7+eWXl5jYjYrnkILyYiLH4wLrzG8qZ555ZvYoDtEcIoflRXLyKwmdb0DiO63AB9Rtry5MXoG3ffv23l/5lV8p5TW76LoMSsNll11WnTVr1jpzzqbI4Yhe5FKnVJqKXpFJBJXXsE8HMshL03G2zd22H307d+6sZyOCYIih98PK7a1nnXVWp7/xBGFLIzn5k0xCJ//CVHZbwTz4Han3GfO96sc+9rG+22+/vXTlPV4BFpQGri+Yg/Ly5VyBk6B5w9FkGh7MPH6+dLyfrjTPvNjK2F62nUqFCsaEe01j94LgeNBN74dELY3YUh/yw348dqTwf8o662TdCOx5551XyvIeQheUgk984hM4bHdRFOeFBcsTIC9O3lpNG8j8f/PMb5O2FXNiV/3sZz+7rrGbQTBkNKK5FanIyXe8/3jz5Vfl9mhhHRI7okhE92//9m+7G5NLQwhdMOLQZXnmmWeu8Y6a55AyL0De8sYdjQ20nHQ6wzK2W5WMKgBzft7wUmvsbhAMCR0dHSsajanMb/IaiKkfpeUVO1Z8eUfs5s6du6IxqTSE0AUjzjnnnJOJHI7iHTTPSeWoyg/G/LWEomkDjcszv22pafupANg3E/KI6oIhg2jOylW3/EbillcWU0vL8bGCv6isI7i2TdWbbrop++ZjWQihC0YUi+b4TlzNO2uew6bOmWeDES2GvRXNN5Cl25RuLybnVwXALeCN3Q6CY6XKHY9FPSC+bKps55X5oULlHWObpk+fXqruyxC6YEThBpQikZNDDsZSZ5al0/NM09L/pNPyxueZtl/7I6GbMmXKioULF5aqpRu0LVlXeCt/8eVZeW+MHyq0TpX3qVOnzmlMKgUhdMGIwSu+TjnllCyakyh4h81zXkxOmg6n4zXOT0/n8dP8OD+vT/341HyF41PtG2J3zjnnlO76RdB+WBlc7P3Fl9HG9GZepMNDiV8/qZX1Ul2TDqELRgxr9WXRnHdYUuXzzDuUrGi8xvnp6Tx+mh/vzU/TMvz/0uF0XzD2kZbu5MmTS3dHWtB+WJnijstmucSEz3t4+cHxRtti5T2u0QUBd1oSzaXXFyQacuLUmdPhwZpfbqt1pePSZaTjvPnpWobWJaHDPvKRj4TYBceEiVaVcpaH3uwjYcvL+3FDxfFY5lARQheMCCZy3VT6EpxUeGReNCQigzG/DG9+Pek685bTyvx/lPfLk7EeWSOqW9w4DEFwVHixwvR6urzxad7PO1Sk6ykbIXTBiEBlnxfJSThSAUnzgzUt14sN6/XrlmnevOW0Mv0n/a+WJ9O6uS08bkoJjgWu9/KuVURF6ZEa/xsqsdPyZO+8806pXgMWQhcMO1TyXKyW2KSC4MXCGwxmvJah5UnIJHB5pnnytkHLVzqQpf/XOG0LUd3pp58eD5AHRwWPqSBQCAovFCdNhUbmx0vgZBp/rLAterm5XnC+f//+ELpgbNPZ2VlFXFT55wnD0Rgo74XFi5yuk3mT0A1mW1LScRr2y9FyZaxv0qRJ0X0ZHDGI3Lx581acf/752bAXGERL6WBN8x8Lfhv4egef73n77bdD6IKxzUknnVSjwpe4SBDyzJMOC433/8O8sEjkuMvTm4SuSOy0XKHx6fTBjNeyMYvo4oaUYNDwJhREzgRuxaxZsyoLFiyodHV1ZaKiT+ZgiI1SbxK1dJzGE+EdDfxX6/bfZNy1a1dPY5ZSEEIXDDsnnnjiYkQlFYLUoNWwxkE6XoKiaM6LHNc3sFTsvNBhWpZffkredOXzTMs+2oolGHsgclZmui+44IIVM2fOzD6syjfnarVaha+JI3YIjAQnNYmRBE6WN/1I8MtQJNf4EGv9K1/5Sqm+wxhCFww7Ji5ZROfFBEtJxw1mHtDyWD7ilSd2XuS80GH6vzdPOi4v79PUtF08YpHNFAQFIHK88PzCCy9cwYdVETm+O8eHVfkszr/9t/+2cvbZZ2dRFEIj0WslfLJU8DD+R5RXdJOKrg1qHRjrZP364PCrr75auo8Nh9AFwwo3ouRV/nk2WPy8/v8SUwmdTOJWJHJegFP8uLzpoPHpdIa92frihpSgEETOhG3dOeecUzNrRnL6uCqf5+FrAb/5m7/JuyWbYudFKM+8qGm4aLzEUIKoaRJVCZxEjnE//elPS9VtCSF0wbBiotJ8o8NQ45cpMfFiJ8FTqrzmkR0P8rbN1h0RXZALImeR27pZs2ZVi0TOf4Pui1/8YlPsZBIjTAIlkWo17MdrmvKYlu1F7s0336zs27evsmXLlrWrV6+OiC4Y2yAu4Cv+Y0XdLEXdLVqXBAYxU96b8PmUonUMFr8+uk6DIEWR3Ny5c6uI19SpU7lT+TCR80LHfNddd12WEllJhLwoKZ9aKmyp6b/eFMFhiNwbb7xR2b17d/0HP/jBqsZulIoQumDYaSUkrcgTmcEIjxfCViZ8Po+8/xwJ+p8dh1K94T0YeRC5+fPnb503b15T5BTJTZo0KVfkdK2Za3W/9mu/xovDK2+99VYz2pLgyYrEayDTshA3lo/97Gc/y0QOe/TRR1d961vfKtVjBSKELhhWDh48mHXXpSKhYQlIOl2k86VovMw/HKuU6w2kMs0jS5chKyKdlvcf5dN5g0CYyHXPnj1765lnnpmJliI5orhWIudvqpLYIZISI0VeXviwVMCU9+Mw/d8LnKI4uiv37NlTeeqpp1Z9/etfX9vYldIRQhcMO4iJ8IKQioCm+XlgoPlkEi6Jmy6266K68l74UqHzFI1TWjTdzxMEeZjI8SD4mnPPPTcTK91ZmRfJ+ShON1PpejO9JQjkl7/85ezRAwQJk0DJvHh5QcsTNqVaFlEcArd3795M5J5//vlVv/d7v1fqjwqPb6RBMCycc845nXyqBmeVk+KgeTeFeNN1rSKDvPGYpgFiI/GTAHrzgpeKnoQqHefn0/9S8+tDXOk+sgrj9u3bt5fuwn0wvCBy8+fPz56RQ5zoqtTjAwicRE5RXBrJSehUxsWHP/zhyqZNmyqvvfbaYWVVZVxlUmVfDT81Bv21OyI9RM+L3bPPPrvqP/2n/1T6L+eH0AXDCq//stbqoIVOYqW8H4dBmvepR87uRSc1VQCqELz5ZXjTvD71pvVpnRI6qyj6XnrppRC6MQrX44zlCxcuzJ6Ro8syvbPSixyWJ3BYEVdccUVlx44dlRdffLGwPPpySSqBk8ipKxORk8C9/PLL9UceeWT1TTfdVHqRgxC6YFjZs2dP3VqvKxE6L3IDCV2RQVHe40XJO7sc3ZvmwfS/gcz/JzUtV5WJhM5a2j1WYWxsbGIwhkDkrHx3L1q0qPkgeCuRS6M430hsBeXvggsuyP7/6KOP9ivvEjaVSQmbUt+lSdelrsm98sorvXfeeee13/3ud29rrKb0HF4jBMFx5pprrjmEA/Owa6trDnlCmAoiopbm/TgZ//PTYTAihWmeVvOq8pCgeaPikLip+4dK47nnnlvy9NNPR0Q3xkDkeNvJ9OnTa+n1OMRNfuF9Iy+Koyy3wpdHyt/mzZsra9asyZbvI0Qvmql/6P+UYSuz9SeffHLZ7bff3nZlNoQuGHY+9alPbbXWa1Ut1iJnxvGUygmVylJxK0qVl4GETibRUr4oTY3KQCmVglJVML61jNDpAv///t//O/xvjIHI8YzczJkzq1yP48aR9HqcRAi/wNQAxOQTlOciVE59GaT8UfboxvzOd77Da7r6RYpapvxEZdvKaX3v3r2927Zt6+nr62vbRlk4WjDsfOxjH1tjLdlu7iYbqNUqkZPhiEpTEVMqyxsG8kCFoNSLWd6w8qoAvCFs3tTlozvV2CcqFXUHMf7111+v//CHP5ybbUAwJkDkTNjWzZ49OxM5/85KfMFHWq0afyrHeVBGVQ59I8vfSEJvwhNPPFGxyGytraeq5bNs+3+dcmrz9tky6u0sbp4QumDYueyyy7pnzZq1BgdH6HBs79Te8bzY4eBKvaWi5vOp5SExKzLELE29yCn1FYwiOISNygVxY38ldLz49r777lvS2IRglNPorlw3Z84c0n4ip+7KVOS8L8iKyjBQNil/iuQog6nI8UhA40aSnna5kWQoiJtRgmGHGzDmzp270gtaKmA4dJ5gQd6wT4ugIlAqk3gNZJpPAifz09gXbb/2h3HaTyocKhoqI0uX7dy5s5RvkQiGFkRuwYIFW2fOnNmpB8F1TW6wD4IPJHKUwbShhalhxd2SPGbw0ksv1X/0ox/1/MVf/MWYETkIoRsEFFSjE9u2bdvexujgGJg9e3a3OXKnhM6LAyYhyzOPhv145REfD8Ma5wXKm6Z5SwXNj9c4Kiltt08l4uwnRuVFRbRjx44e7kDNVhiMWqzu4G0n63hTSV53pRe5Vt2VvnynUAYVyam7Ur0JRHISue3bt9cffvjhJX/1V3/VNndLDhXFR28Mg7B1dXXV5s2bd70VxhqFjMKkbgBeXvrcc8/1fPvb3x5TraKh5AMf+ED3jBkz1ug6nbov1YKVo0skJIJKU/MC4w18XjCMQAnlJWKpSdAkbqpcGEcFxbr9vGpdq4WtVjblhwqIysfEbtU999wTZWiUYvVI9iA4Ikd3pV7MLIFTdyXlJ6+7UmW/FSpr6U0nmI/kELl/+Id/WNLX1zcmG1chdA4E7sorr+z+4Ac/uEL95RQ0KkUKlAoRfd2vv/569vqbjRs3rrr11lujsjoKfvmXf/kQLVvv8GlrVg7vzQucjHOkNDVQCsojSkJ5iVVqnH+l3theVUZMBz+vxK6otc1NKc8888yyRx99NB4zGEUgcgsWLGg+I+dFjvLuo7hW5b4VadnyDSlEjptOELm68dWvfnVM3/gUXZcNrrvuuurnP//5FZdeeulyuhhUOOlmSLsYqJRVSKdMmVKbO3dut1XYj27bti26oo4APihpx7CKU6eihZEHDcuOFAkQqc8rHYx58ZIxTAUl0u2U+X3DqMBUmdn+d1pZ6+Z282efffb2xqKCNoXGst52wiu99CB4euNJXuMujeaKUDlE5NR48iKnm054hGDnzp1rly9fPuZvegqhM66//vrqr/7qr66zAlrTu+bS1hcF0hdKVVSqrGwxtRC7I8OO6zY7Zt1ybEzC4IUC0vyRQMWg1OclVoMxL26qZLS9nnQ7U/Nih7HvlCc7Fl3nnXdet+Wn7Nq1K6K7NgSRs3PbfcEFFxS+7SQVubROUbkogvLnIzkETiKn63G8vYTeps2bN6/62te+dmPjr2OaEDrjxhtvvNWisi69a06FUtEbhdGLmyqrpALrtJZV7bHHHlvdWGwwANyMQVRnx7aKc+cdVwyKUsD5fZripx+NeYHz5rcB/DB5v60y7aPMCx4NpqlTp9bmzJlTs/X12fGJG5/aBETu7LPPXkPvjr4InvYIqdGcF8mpbhmMyCFweSKnSM4aSvWHHnpo9de//vW4pNJgzAvdihUruru6urLuSkROURyFUJUQpsLoK2LwFaAVQu4i7LCoLlrkg+AjH/kID9Au379/f3b3pSp/Lww6zkoHgvOB5eWVpsa582mraY3znJnmKSLdfm/aV5nEjnJmFSEPFC+3ijLKUhuAyPGMnAlcV9HHUr3IUbfIvMhRDoqg3GF513rTxwfuvvvunr/6q78KkXOMaaGjgP76r//6GqtUOrntV5FcUYFThURFpUpOlZ5aWJavWSuuJx5DaA0it2jRoq18todWKE7MsVXFnwoDJnze40UnL+9TmQTMD3vz8/jxVDKkWl5Kur0aVt6b9hmjwlPDyirJ2vz587ttnke50zdbQFAqqEP0thOJXN7dlT6SUw+RRE7lvgjKmeoY1TN5jw+8+OKL9Q0bNixZu3btmHt8YCDGtND9m3/zb7oWLly4nC5LuhgokK0KHGi6Ch+WXgzetWsX1+rirfQF8GjBRRddtE7dxDxEW6/XC4XOw3CesAimpabxSlPjXCpV3g/nGZUL82iZPs3D709q2mcZx0HRXaM7s3vatGkdW7dujeiuRCiS4+4TPQiOyFGmMeqTVOTyuis550VQ1iRyqmd8JMedlVyPe+GFF+rf+ta3ltxyyy3RIMphTAvdv/7X/7p77ty5NXVZUggHA5VTXuFD6Ogn37Fjx16ruOMOuhw+9rGPrbz44otvkshRCZDi+C+//HKzsvdCIHy+CInUkZoEzOeLjHNPC1r/1Xp9mqJt9/ukvPZXqQSfFOPY2DHiuU5uVnmUVzhlCwhGDETuvPPO2zpjxozct514kZPApV2VnFuVhTzUkPb1jL8ep5tOXnnllfpv//Zvz41epGLGtND9xm/8Bg9zVimcFEoK3mCgcKobQX3lFED1lZt1Pvnkk3FTSsKSJUtWnn/++SvU6vXXLKgszFGz46gKH0iLKoNUVLzYHKlJxJSngtE4DcsY3r17d5b69Snv0zy0T95ScfdCp4qR6C4eRRh5TOS658yZs44yy7V9LnuoTHuR812VaSQ3WJGjfvEi5x8f4Fle7qz86le/em3jb0EBYz2iW2kVRyeFk0p3sEKHwNGa4pMXL7zwQmXr1q1Zy4rnVqjgbFrn448/vqoxe2B85jOfWWnRcyZyOt6qAOT4CxcuzL6EjDN7sWuFRCYVGD9+IEOwlKYmYfPDGEJHy5r/CeXTNEX7JVFTHthv7bvymBc9O3bxKMIIYSLH205u4hk5iZyekUtFLu2uVIMF0/lOUTlUQxqB85EcDWlFck888cSqFStWxE0ng2BMC90Xv/jF5VOnTu3kgjGFciChoxASvdFtRaGjpaXKj75yKmnGm+DVn3rqqYjoDBOv6kc/+tHls2fPzkROF+e9yGEceyp0Kg9rJDQre5knT1Bk6bA3iVXecJqXwPlURgVEpcb5pgxoeX7dyvs0D7+PqXmhw7zY2bHLHkWYNWtWzRYTjyIMA4gcbzvxIqdn5PJEzkdxPpIrgnKiMqZITr1F6q4kiuNl4Pfdd9/qb3zjGyFyg2RMC91111233FpjnRROFcoiKIS0rKjkqIQgTSnEjZb+3ui6/IXILVq0iK62FbR6ETkiOd/ClcDpGFJBIIjPPfdcc5zIEw4/biDzQpbm02EqG6V5RjngOiPnmy5rbYNQPk1TfBlK894kdF7wOIZ2vLgRIh5FOI5Qji+++OLlVpYzkdPztork1HiTyKkRl5ZzrAjKh8pVKnL+8YEdO3bU77rrrlVr1679s8Zfg0EwpoXuqquu6rKWWZcqXwokFUkKhZCCB1Q6Hg0r5f9WIDsfe+yxMd11SeVw6aWXZh9Y9SKXdld6keM4Y1Qe/CdP7ISEQ/8ZjKViVmRUOD7vxc0bZYLKjX2g25r5tS6/bZ502MO+ytJhHSdSTBUnx5HK1CKKeBThOEA5tqQbkatWq4Wv9KJsS+QwzolETmW9CJUzlSsa1Iic7qxE5Oiq5MXMPD7Q09MTDZojZEwL3bnnnjvFKoelFFQKpSoPKhIPrSoqKF/xgFLw41jWGWecUdu8eXNPNnKMcdlll1V5fMBavl2pyMn5dZx13CQKcnr+g3H9U3iR0PxF5kXHD5OmxvqUpnkZFZBSBE4Vko/yeVjX0k7Wo21UKtNwHr4MFZmETmKnlONqDYjsZhVrvHVs2bIlKsNjBJE7/fTTec6WY1qxuqL5IHiRyCmKUznHOEdFqKypXKUip8cHLFrPvj4Qjw8cHWNa6H76059uvPrqq7utsHZSMFUgfcWirgOm+fGYn9fnmdcKfNUcoMbnfLKJYwQeBD/vvPMQuexuVioDKgFVAHJ8HU+QCKROz/+4bZvHDnB+4QWjyFiW0tQ0nnVpHPnU2A6ZhlORU6X05ptv1vfu3dtjtsymd9m+VVmP307lhc+n+DKlNDUdRzXQOLYcY6I7HkWw8vdofNz16GiIHM96Zo01ju/s2bOza3NcjxuMyKkhUoQvZ17kdD1ON508++yzvV/96lcvj8cHjp4xLXRwzjnn7DNbqgqYykcVHwWQLinyKrSYr2yEzwPD5gC8w9HK59h4eByRW7BgwTqLKvqJnCI5jqGOo46XREBOj3mnZ5hl4fRUAJpf50lpq3xqWo8fVso5T1NVRDKJHI0gRO5nP/tZ3SqkJU8//fRt3BTy4osv9lh56jDjRpHm9mJ+WPk8dHxIi8yXR1IdX8qyHXPe9tPNzSrPPPPMmOxZOFoQOYvY1lkjq6q7hBE1jrE14oYkkqNsqXz58iSR4/EBrsnx+MDv//7vL2v8LThKxrzQrV+/fuPll19es0JbpcLwFR6VGjcbgCpoVSzeQCkoz7zmCEvNEfroeshGjlL0Si+rXDvp1qEiUAUgx+cY+mNGJe/FRsccp0fk5Phco2DeF154Ya0d0y79R4LhlzOQsR6fT41tUKrtIWWbyLNdPoqz8rH6kUceuRaBy3aqgY3vtX1GYJaa8XWLfturYeHzKWkZ0zGUqUyqjHrBo7HFowh2LqZYdBfdmQOgSI7GGpGcRA5R4xyRWuMhV+TScp4Hy6Ds+fKVlnUadTSweURppdH4a3AM5J+NMch/+S//Zd28efNq3DJM4aYAU2i5RkR3BX3zjKeAKzoBCq4qQl9YaZEhki+99FLFWtS0zPi676isaHilFzeetHpGzjcQQA6fOj3GccTchfjsi+4WMa2kIrLldtv5WJFXyaiiJ9U6lUJaAUlgSLVNSlMB1HlmG60yWmtCt8q2acAGzCWXXLJyxowZ/e489ZGuTOKUt/3gtz3d3nRb2UY1GHS9xyrPXtveZYPZ5uGAc2n72zQ7BnPsfGZdvn6/2Uejbvu2jX2y4V4aGUO9H2zP9OnTt3KO1CORJ2if/vSnK9x9qWFM5w1Ly5jw50llPRU56g3efHP//ff33HzzzSFyQ0T+GRmjWOOJl7NmrwSjgFOQeSgc8ePTG3oOjIJP4faOqEqQSoVCy0VkCu0rr7ySLeOJJ56o/83f/M2o+8ovr/Ti+1s6NhI57/yqsFUBqILOq5glcnTf4Pg8k2iNjUzksj83oFKy89BtFVImeFqfr3C8UPj1++1QKmO7ZNo2bR+pnd/666+/jlgcUaOF7bUytM6OU1VRAuUIK6owtQ9++7XtoO1nW7Xt/phiHFMdV8ol5dMi41Xr1q0b9kqUY2D7VLN9X2zHoGb7kn2eye9n0b4K7Sep7Sc3/1BOemzfejds2HDUDUnbNt4nugbf140mEjnOj4zzw3n6zGc+k4mdyhymbc+jsb39zotEjkYI5Z1n5Hh84O6771717W9/e23jr8EQkH9WxjDXXXddzVrga0zcuJkkK8AUQvrmiexolatbToUbVIh94dWn7BE7Hi7GEW+99dZR87VfXullUXA/kVOlzbHxFZhwlVRmatmqMlb0wbGjZbt9+3aufRW23Kk8bV3ddr5WsL503aRUPr4SUsp2KMXYNokFKeez0equU5HatiG4xxSVX3bZZStN8FYQMfjoV2ItY7tVvrQv2g/wFaq2X/vgtz+tWN3xrW/evHnZpk2bjmsvg86PicdiKxt8e7B5fmTsk4z9Ss3DPirV+dI+27mqWxnqYd/Wr18/aKGwbVx59tlnZxE350VdlTovKtPadoz5Pv/5z/fblyK0fSrv/lwokqOesDqifvvtty+56667RvVljpEghK6Az33uc1Vu1bbCv9icqvbBD34w65u3cU1nUAtPzqiCrEKMQErsuHOQN/Q/+OCDa63F1vYXl6+++uqVvO1E3XG0fFVZy/k5LqqYfUWM+QrYi5yOGSL30ksvtRS5FCpVOydEedfbeqlg+1WkRRWnTAJBattEpdlrFVGfbcOQtq5tO2szZsxYY8euGd2pYk0rVVWiefvh94XtB7Zfx1mVq8qlr2SpYDnWO3fuXPX9739/SKM7zoMlfHH/eisXNe2T9oeU/fD7lO6XtxTtq86bypT2mXJF44SGiTWU1g7QUFo5ffr05qvpfK+EPx9sM6k/H9QDX/jCF7J8EX6bUpGjwSGR4+sD3/nOd7i8ESJ3HAihGyQ33HBD7VOf+tQ6xI6uTLo3FMFQ0HFInE6Viq9MdJvwrl27smt+DzzwwDIr0G3ZNUEltmDBgu5zzz03i0okcmllpooLfIWUVrwcJ0SOY4Xj093LF5LvvffeY+rmbVS2VduOmm3fHNuu7DqQVV5VKh22h+1F0BrnjaitbtvUZ//j+s9xv55KdMe1Ox3H4xHd+WOuytYf98Yxr2/ZsmXZsXT9gQTO9meFHXMaHc19ULmQse2psR+pgVLBvikdzP6aqPRao2nZo48+2hSRxrZ2c/zVI6GyrPKct/3peaAeILLLg21hG1KRU1mnXkDkuHHpt37rt0ZNT08ZCaE7Am688caVtVptBdfrdNMKTqHKCHA4FWxV4IgdFTh3UlkLuvL8889XHnnkkba7OYXKgVd6qestFTlfialy8pVQUWXrGwTcWfnQQw+Nmdup7ZjWZs6cuY7jSaVJdMcx9dGEr2j9MU7FwZNW/v74pxWvogtuVvmnf/qno6pwbT90vZTGRLbtbLMs3XalbHea+v1JU8G+KfX7qpR9JfX7i+C9+OKLyyhzRrOx5o97KnJ5+8B2ytgu6oFrr+3/AYFUbFXWOdYq61yT27RpU7yYeRgY848XHAkWifVeeumlfEGcO8RyC70sD41nXhMJbvlum8cOEDnurJw+fToVWlPkfYXgKy9QBSSnx3wFK5Gj+want2h3lUUVN2Z/HiNwR6kdQ26m2GfHrqZjhsFAqdAxz0tTU3nV+VJFbuezev755x/RowiUi9mzZ99kZWKliUVn2u2n8iHTuryxHUq9tZqGaR8GGqf12Pqrto3LTQCXTps2bSmRHCKnaDqvgaFt1rJ07DCOJVCeLSLO7sxmWanAepGjrCNyiJ2V9VV/8Ad/ECI3DITQHSH33HNPz1VXXVWzAp2JHU7gC743KMpTUZkD1B577LHSv/yZV3pdcsklzVd6pVFHegyA/cPh1bqW03uRI4rgehx3Vj777LOrH3/88THp9DyDx+d2rCLtszLVzTHj+HkDpQORlrfUdK5kXhDsfPKgeW3OnDmIbsuvIpjIrbTycKv5Qva+WF8mZF4sisyvX3m/Xel2Fk3PG+fnZfl8VssaaZ2U4yKR03an26hlYhxHD2Wa3hrEk2VR1r3I0aCjrNOg41VxVo+s/rM/+7MQuWEihO4osILfN2vWrOU4Bg6ROpevVCB1CmCc/df8orP21FNPlfbNFTwIbq385iu9EDkqBlUGft+1n1TIEjnfsk27ynD83bt3159//vkeOwZj3umJ7uyY9ljF2GXHk2tIuUJXlIq03PnUm8qrjPOoit3KNs+ULTfR66jX6/2iO6K4s846iy8mrEgbPZQJmZZVZCo7Wq8fxrRNPvXbWjRNljcd0UHg/I0n2n75s9/+vGXoeIKOPWWdZVuDLSvvRHdpg47rcTw+8KMf/WjZ//yf/zMeHxhGQuiOgqeffnqvOXqfGd08/RxCjkAK3imAYfXTY1Y5cOdddcuWLaX7YjQiN3/+/H4iR6XgW7zsN/uk/cTxFcWlkRxOL5Gj+4Y7Kw2eSQunb0AEZS3+His/fXacj2t0p7KqvIzzqnNrZTN7b6aNz76KgMhZmV9nEVH2MnQJRCuRYzlKB2tsR5rX9rUy5kv3x5v8FZHzAue3P29b9X+WLfw5UcOOMs9LInh2li+QS+SI5LhMweNFt9xyy5h4JWCZCKE7SjZs2FBfsGBBh7Xcstun5RzeIbwB3Rd8emb9+vXZHZi08LhJxRyly5xtm1X8pXEARO6CCy7IXulVJHJ+P73TS+TUfeNFThfiubOy8YxcOH0Oiu7s2GXRHccVBpsKlb005dwp1XlUHqMsc44xK5vZVxEsguuw83+rRUHZtTiVBy8SKhukfhkSjCLz69b6NT6dznC6vakVTWdbmca2S+j89qfbq//xH0xwnGW+Yadyj7Bt3LgxK+/MQ4uOxwfuueeeeHxgBPiXMxccFd/4xjfWXXzxxTVab/TP01LEeXAaHAS4AM1rwCj4vuLX3YZ6g4q1+Kj4c28CoCVtDslbJWhRZ7fL2/Kz7i1Si5yy2+Rh//79dbM+lm9O2PI5ojz0Si+6X+jioVLTPqkS8M7vHR5TdyX76feV1q0eHzBRP6Jn5MYydu65Q5Dn7prno6iSVgWdV0n7ihp03nTuqKT9+fPnkAhl8+bN2box1qt1s15S1pmKRJpqe9JUedAwpmGfeth24ffHm8qljP1kewcjcH77RLpsCRzHS/6tLnr828r7WhO5eDHzCHJ4yQmOmP/xP/7H1nnz5nHdovkwuYSByp07shA5nELOoP57BAAhRACI8Kzh1xQ7bgKxiq3bxDN7q4R3wtTpU8dL1lW37chek1QkpOKqq65ayUcmfaXqKzS/fizP4eXsXuQk6Nx0cd9998UzQ0cIDR07J2vOPPNMHsRuXl+S2KXniJTz5M8XKeSVHc5feh51LonAf/CDH+SKXCoSvoyQKp+atkflyA+Dxinv0xS2O029sU/p/rHdHDu2l7y2Nd1evx2QLhNTowBTmZfIvfTSS6tuvfXWuOlkhImuyyHACvujc+fO7faVDU5CBf/4449zTe8wJ02dlxSnMUepzZ49e99FF110k1Vqf8bNKlapZa8j890taQXn0zRv83aa+LIcnoHj8YApPKSardjBK73OO++87AFaKlNfkfr9Ylsx7/RUHhLWIiE3EV/14IMPRsv2KODanUVVXLvrsHPRfAwBlPfjBkLlDnQ+vek801D753/+58PutKU8qEx4k1j4fGos2+cHa9quovE+9ebHKc9xYp/8PqTbqP8IHV8JnBoDKve+YWflvf7iiy+u/sd//McQuRIQQjcEPPvss3UTkOzmFCoBOQ23Gz/xxBP9HCbNC1qAtJyt1c41saUWTQ0obt5Yp3dab34++y/XV2qp4PFKLxPrw0ROy/SVEtstp5ezY3J2ddvoQjz2zDPPrLKoNpz+GDHB67Vz0u/aHQY+L/w0T1oGSVOjgXLnnXdm51/lsJXIeaO8KE2NMpSmecY2+FR5Pz6d5sd7yxuPQBEZp9vm5xEcP8RNqQQuFblG93ydO6ktCo7yXhJC6IaI9evX1xctWsSHGruoDCj4fX19hY6jPOm2bduyt6ZQeVCZSOBaiVtaqcjyhtkGP4zZMjptHTVuMrj44ou7TOS4XbzfNTnWqeVpP0DO7h0+FTlatXp8wCLa1Zs3bw6nHyIU3dn5OCy6Aw37ca3QeQXlEbkf/vCHWeWt8jjYMqjy5std0TRSGcOs34/TcNH4dNineeancXwot5R5LcdPBx1DlXeVeTXsVO7VsHv99dfrjz766LIHHngg7iQuESF0Q4gJ2+0f/vCHuYZStcoo+x5dK6ejMuEBVualMkm7h3zFklYqaZ50IGNb/DBObFFd55w5c7IHwWnd+gpNy9U+AP+Rw6ctWh/J6fEB3nZiQvdn2Z+DIUXRnR3/Ljs/QxrdPfLII9kXN3yjx5cLXz5alT+Jh0zj/LS8+diGNE9aZOl86fzar9QkWpR9/x/QMcS8yKncU+a9yNn5qJvALXn88cfjTuKSEUI3xFgLuO/SSy9dvn379qzw4zyp02FM27BhQ9ZixslUoQwkcnmVCstP81pv3jCGOLGO6dOnZ58e8tvAeNajedleVY6+RSuRQ+AkclyA1+MDVlEW3kUaDA1Ed1bWsujOzluNcaqcfV7DeTCNcwykmzZtqjz00EO5kRzlwpdJypYvk5QXn3pTeSrKe2M70jypTNP8+KJ5vWkfvVGGOQbsr/DHzZd5LG3YUeZ5u8/69evjTuKSEkI3xGzbtm3v22+/3XfGGWd0I2KpYGC0lrlBhUpEd2hKYIrETaZKgzzL1LDWobwfp/VqGCfFefXJIYmc1u+Xyf+803tnl8Ozn3RVSuR27tx5xJ/YCY4NojsrEz3W+Oh37c6bR8OknGNBdzNdlpQv9S74MpmWTZUVb5QbpcdiKrM+TfOtLJ0PfOrHU44pz/ijP2Z5DTuMMo/I0Stj5X3tt771rSU0OrKFBaUjhO44wM0pViFs46aS1OF5FokuzbwozlcoeZUJ/y/Kp+Yd2Y/HoRElvr4gkcvrrtR/vcNjabeNFzkekiWS6+vrmxtOP/wourPz3O/aHSbS4ZQf/ehH2R2yPrpXuUzLJuUkr3z69GjNl1vlVSbzhgdroFRomso0+67yrjLvIzmJnB4f+O53vzumXkTejoTQHSe2bNmycebMmTVzmuwDoDgmD41z0wkXv9VazqtISNNKRCbnT03TcNh0mh9Pix2BKxI5zYupUsTZfSSnCkHXJvT4ANfjHnjggf7fKwmGHT63Y+eyx85XbnQHSkF5ysb999/fr5fBl0vKGKnPq1zKKD9Ki8yX0bzymjfdp8dqUDSO8k25xi9U5hXJSeRo2HFn5fPPP7/6jjvuiJus2oAQuuMItxjPmzevZhVGlSiOiCe9q9FXJHmViFKcvFUFIofNG5ca26DKTNugZWseVYoSOd9t4++sROTYL3P6VY888kg4fUkgunvxxRd7rPxk0R3jdE4lbD4Pd999dzbsGz9p+aSc+HKZmsqez6tc+WFvKnMyPz6dJ2/+IzVQKvw0yjvRGnA8vMjRsEPkNm/e3NPb2xvlvU0IoTvOmIPwfN1yBEERVCpyqkjSSsNXFsr7cRjO6Yf9eE0DP6y7O9kGrdf/RxWgWrSYnN3fWekfH9i0aVM4fQmx85NFd5Zdatapc+th+OWXX86uG9MIU9lQ+aB8UkbIF5VTjDKkVHmVOZmGVdb8NG9+Wt5/lJdBmleamsYrVd7DMaGcU+4p/yrzvL3IGnWX33vvvbc1Zg3agBC648yCBQs6Tdh4ALz5UUovcBK5tALBmfOGSb3hpEpTS8cD6/Mtdtar+YSuTeDgvtsmT+T4xI5VkCFyJYbobtu2bavtnHfY+c6N7njROGUgjeZUNtPymWeUI6V5xvJ9qnyeFf3Hz5NnkA5D3nTl81Kh69GUe8o8w3Z8Oi2iK93XRoJiQuiOMx/+8IdvPf3007MPUxZFcqpElOLQrSoMbzim0oEMWC7boXX5aeBFDoFLRU53VnLTSeMl1NGybRNeeeUVors+Ky81O8edjFPksnXr1sN6GygjpL5sFhllUGmap3yleZU7jfemaX5ePz6dB4N0GIqG03EDwTwcA8zyXXbMeuKGq/YhhO448qlPfap72rRpy9VV6KM5OY0qEKV5lUaR4XxpioFP/XgqNkRXy9d4kMD5SA6Bw3Q9TiLX+MROPD7QZljlzBdjVlt57LDzn0V3vJmHc0+5QOTyIjqVTRllR6nP+3HeKGc+r2HlvbWar+g/MkhTSOcBnx8IHwFj9NA8+eSTEdW1CSF0xwm+PGCsOfXUU7MuS1UepGnlkVYkcnTyOKOGvbNqvE/zzKNhHBXRFXJeiZwiOS9yRHLcWcnbTuIZufbHzqOiu26uO6U9DiqjKptKKWu+nKZ50iKj/KVpK0vn8cM+D8r7YaXKi7z5UhiPT4BPZTa9a+PGjauyCUHpCaE7Tnzwgx9cOnny5O707sa0AkkNB1bqTc6ZN6x8apA3jJhpfTituiuJ4nRNAoHTXWa6s5LXlf34xz+eEl02owOiOyub28yWHmk0l1o6nmHKmh+nYZ968/MVjcv7nwyK0jz8NOW9qAmJmzf85dxzz91mDb543Vcb8Itb8oIhha9zT5kyZQ0Cl1YaA1Uc6bA3Py1vvlb/xTSdFAFD0NRd6bsq9UCsbjqhxc+HYakEFy5cGDeejCKsPCymfFImfPmh4vdpOj4d583Pl04rMj+vlivLG+ctXUaa+umydHzePDLvNxg+zDGbNGnS4sZhDEpOCN1xYOrUqTXfOs4TN1nqVMdiRY5aZAgZwpZGcf6mE0SOLku+Ns7+WJS6orGbwSjAGmM1lc+0fKQicLxsoHX4bUpN09P/pFY0jx+f5mV+2PvuSSed1M0lisahDEpMCN0Qw5egTz/99OuLRE7OIsfJGx5KS53Yp5iEDaHLEznEcMaMGc1WLNtq+5jdxBC0N5RVi+irKgsyXz5UfmR544oM8sa3Mq1X1spvUtP/02XmWTqf/3/etNTkD/Pnzw9faANC6IaY6dOnV2klF0VyeU6TOpifVjQOa+X46X/yhmVcc1DXJULHzSdEd2eeeWZl7ty52fysi/1BwO0/1zd2N2hvqkXl0pePdHggE3nTWpnWo23w26XtzDPNg6XLOhbzy1TeG/5w8sknR/dlGxBCN8ScccYZWTTnRc47RzqcZ0UOh2mZeeb/r9T/P295Gs//eQSCj6+effbZlVmzZmVvcmG6Xwf7dcopp3Q3djdob2q+3KgseNO4vGkY+LTIND1NU9N2pGUuz/w8+p8sXW66vnS4lfnlaflaL92X2cKCUhNCN8Scdtpp2TUPOaKcQg7inSXPkfx0b3IszC+/yOHzlu3z3tLxWkZqWh/RKt1ejV0O2hQ714vzyoy3xnyHpWk+bzgdrzTPfDnDVJ5V1vNM82h+/Tdv+Zgnb3or88tWHmO9V199dfhCyQmhG0IWL17M9Y7m1wpSk5MUOU/RdDk0JidHbNQ9mjq9Ny0rz/z0vP/4cd5YnxHXJtocO5fZ9Tmd7yKDdBjypuehaX4en8pUvlqVd1/u0/Kv/w9mn2TaBqUDmV8HxnpPP/308IWSE0I3hJx00knZNQ85gJzBO0jqOEXm/8eyMDk5XaPe5PCa70jWM1jT9msdRrRi2xgicjuPVZ3b9HznGRSNU5pnQnmfyrQNvpxJxFTuVfaVT0VOqV9eK0u3wePHF5m21bYprtOVnBC6IcSELrvmIYfzlucoAxn/0/Lk8BI3ntHDNCzH9+vOW6Y3yBufmpal5WK2rjnZAoK2xZ9bb5om8saJVtNE0bJSU9nyZV4mcUvNz6P/p/tUhJ/u5x9oPOa31bYjGn0lJ4RuCKFlJ6HJc45WBuk470xydkSNm0YQOaVFQue3Qyiv8el0SKelxnLDuduerNsyD86xUp8XfjzkTRvMPD6P+XJLOfblXmXfpxI4zevLftE6vIk0r2E/HjTNT8dsG6LrsuSE0A0hdF16ZxjIPH6cn0dO750dU0RXJHR+GX6ZyvsUNN2bxiv1ZusJoRsFpOcVa4Wfns6b99/BzE8qU3lXKjGTeYGTaf603HvLw49P59OwN+HHaZ3x4Hi5CaEbQswJD7u4n+LH+/nyxsl5cWQ5vRc78t7xNb+2QeTlfeqne4rmIc+zd8HoJD3fotW4vGnCT0vnYzjPfLn35V+pTNPSsu9N68mjaHwe6fJkrJPelaC8hNANITx0DUUOoXHg83mk/8tzfG+tnBx8voiB5kmXGbQ3gzmfx/Ocp8vVujBfllW2MV/WMT9d88tSiqb54XSedBjSYZg0aVJEdCUmhG4IyXOAIyHvv+k4DQ92XYOZZ7D4KG4olxuMDHoT/3CTV3b8OOVJB5MXPj8QefMeyf+B+WVEl0F5CaEbQoa60vAVkfL6pI6+HadhTPOkpv8PRKt5/HIwW3d8j67NKTrfOsdpfqjIW17eOvPGpXlP3rihRKIWtB8hdEMIrbpjcTb/XzkzJmHT+yhTYzwm4dP/hM+LVtM1nJfK1E0btC11fz5lrcibrnED/TePvP+Sl/lGnHwgbdxhml//P14ULft4rjMYGkLohpB33323X+UBfjg1jx/283gHl9DpkzoYeaxI7DDRalh5P6w0NZZv29GXzRC0JfpCvM6pKMofC62WqWFSlVtSmcq9fCA1Py/G/2WtGGh6EXn/I8qLhl+5CaEbWuqps8lAqcibnubl0DiSRE0i58UOAfTOr/97E344nQYa503LVIUStD9WpnKjOhm0GtY4kQ6DH1c0P6lM5UtlXql6L2SMk6nMY35ZMpE3DjScztsKLUf25ptvRld+iQmhG0LeeeedTOhaOVzeeFk6XcvCkeXgeULnnV//0Taky5RpvNLBmLaF9Ri92Z+DtmXcuHGHNcwgTUU6LPx48t5E3jw+j6ncUsZkXtBUzn15lzGv/u/3ya9jMKTzajgdp1TGtxyD8hJCN4SY6PR5Z/MOV2Qib5qW4Z1eUZ3MO73mS9dbtPw88//V+mVavq23/vTTT4fQtTlWZpoNM8yXAwxaDeeNz8OPT+eXaf3aFpV3L2x5lpb7ov3Iw0/Pmy8dp/lTs3XXH3300YjoSkwI3RDy/PPP1+V4cjo5XpETDmT8R47MsmUDObu3vOWm5uf1/02NdZigh1OPAuxc93E+03Lgh/PMk47z8+VNS1NvvozJ8sq7L/cyza9lpMvOM6F83vR0XN541heUmxC6IYQoh2jHO50cwTuF8houGudNy8RSB1fq50+X54c1rtW8fnq6XtvHnsYuB22Mlde1adnxZSHPYKDhlHTeNPXmy5wv30Uip7I50D4UoWl58/j/+tQb67XtiYZfyQmhG2Lefvvt3iIHlBMWOWTeOJn+ky43XT6m+dNlFI3P+69My1fFQjRHBdnY3aDNsXOaNcx0vtMyoeFWBj5NzY9XXqk3rdObyl0rS7ff54VfjzdNU5pa3vh0PVyyyGYMSksI3RDz6quv9nHtDOf72c9+Vtm2bVtly5Ytle3bt1feeOONrDUqB0nNO5F3pCIbSOTScWk+z1imXy55VShsuwl5tF5HEXZ+e9NzjlFOhtKg1XitU+vXNqWWChym/8j88ofS/LL9+mjcZjsSlJYQuiHm3nvvXUvUg6ghdHDKKadkL33FKc0psjslvaOkjjTQ+IHM/+do/o+pUvGVCwJu274q26lgVGDloo9zm1cG0nJ0rNZYXzMtMr9uTIIm8+N9ivnlpOtJKZpvINO6MLot77jjjhC6khNCdxzYtWvXqjfffDP7ssDkyZMrp556auXkk0/OPqnDOJwF0fAOMxyWOmlqvjKRSeQQZxPu3rjbcnRBNzQNM86xzrkvEyozvpJXvpWJvGlFlq4nNW1bup3+v0pTy9uWvHGp+XX4YYxt4Jp8tqCg1ITQDTEf+chHqtOmTVtxxhlnVE477bQsmsv7ZhxvU1A3Zuq4x8vy1qF1pyaBYxsRZdJ33nknorlRiJ3nXs4v5z0tH1ha4SttZYOZJ8+0niM1/Tdd3lBZuj75iTVo4/pcGxBCN4RcdtllK88777ytU6dOrUrk6LJE5CRw/nMikEZ2RZXNsZqW69Mi8yKHEc299tpr8ezcKMUq8h7Os847ZcCXndTyKn4vCtYgqrzyyiuVHTt20LtR2bt3b9Zl7+c5UkvXWzQ9zbeyVvOly0tNvrJly5bwiTZgfCMNjpElS5asXLhw4Qq6KidNmpQJnLoqfSQnoQM5EQ7DeCEHk2mcUoz/+dSbn+ZNFZhPvamyQ3wxBI43PlBxdRqnnnpqzSqweLRglLFnz576lClTatYgq/pyWmSUX6Wyt956K7vpyhpDlZdffjkbVk8AZQihoxxRLpmf9QD5VjC/SPPePBr2aZr3hi/kDZMW+Qn7ZtFc79133x29HG1ACN0xYuJWveKKK5bPnDkzEzmiOK7H6SvgeQIHciQ5DjAPMM2jYVJvqUPK/DjyrEPDcla13P0w2yFD5DAqLKsEETr2p2r7FmI3CjnjjDM6rKwupbxilEV1safiplSGiD388MOV119/PSvzauSR9w095lVDirLFeNZRBGVXKO/H5VH0n4FM/iGf8cPeR/z279u3b9mTTz4Z1+jagBC6YwCRu+iii9adddZZSyVy6qpsJXJyJu9AOA//AaYpHcjkjOmwxpGyDqXe5LgSN20HpkgO0Z4/f362/eyHbWPVItbarl27QuxGERbVbbTGTG5Up3OvvEzD999/f1Zm/E1XlGUvclqmlgv8hzLKPCzHw3ihvE/9dDGY/6TmfcUPe/M+I18x36j/3d/93Y3ZwoPSE0J3lFx33XWZyM2ZM6eK4+LgEjm1VItETuaFBlHxDo/TKW1lWhZ5HNEvX86ZDmNat9+GVOTIf+xjH8u2CWNfMKu0qjNmzKhu27bt9mwjg1GBRXXb7Nx2FwmdyoG3V199NXtWlO761AdIU5Hzy8Uoi5Q9xPFISX3Bo2E/TXkMf0jTNC+Tv0jkiOasYbD6qaeeiutzbUII3VFwzTXXdC9evHjdhRde2Hn++edXurq6MifnuTm1YHFoVQbgHUxi4x1Hbz+ncmA+0H/0Pz/sx8khZSw7HfaG05Kybu/ACBvbQlcU46+66qpmBaT9UAV17rnndp1++unVer0eYjdK4Frd5MmTs6guFSSZyjRGY+iJJ57IynsazUnsvMgVLYsySvnn/x7KtlBeZb8IPz39T2qsV2mReZ/B8BGiub//+7+/Nlt40BaE0B0hX/rSl1Z+/OMfv+mcc87Jrl1ZZZ85uVX8lfPOO48L1JnTypHBO1bqNBI5PUjO8jR/aqkT5o2TyUFTY71KvcBh2g6mf+ITn8gej1BlBOwTMGwRXWXq1Kld1oIPsRtF2DndZqLUjOq8QKksKM9NJ7t37z4smpPIYVpGuiwtQ1CWKf95kR3TfArk80won07DNzSsfOo3Pi/zDcF9+/bduHnz5o3ZAoO2IIRukFgEV/1X/+pfLb/ssstWTJ8+vSlyui6Hg5LnehbdOQgGeEfCYYpEjmiQiqBI6Pi/0oFMzipR8+vFJHCpyNFCZ/onP/nJpsiBKjjlqdSIZKmsrJILsRtFENXZue8wkaohdl6UlGKUF6I5GnnpDVgSOf5fFNFpOaAyTtmj3LIMjRfKa94iNN1bOp51+Hxq8hnvO/KVt956i2huWbbQoG0IoRsEiJxV/iuscl9+5plnZncgps/JybFx4nnz5mUtXaI77zzeYbzI8bownjWaPXt2tozUKTHl/TiWqXw6zjupt1TgtB2IHOOJ5BBbVUJ5KTfeEMGqArPKLsRuFGFi18vjBlamm12YnHdvvLuV8uOjOXVbDiRyWp5H5Z1yyLKYR+OF5vH51DRNaZ7hH2nqfcab/Ea+8tprr1379NNPx52WbUYI3QBw08mVV165rlqt1rzI+a4aHNtXCDjPnDlzsodlidTkMBIZhAXj1v19+/Zlt2UvWLAgW17qfHnDMpar1JucE9Mw61Uqp8WoWNiWadOmZTeesA2gCk15pYj7RRddlLXkVWlJ7Kyi22ZEl84owIQu68LUOVbZxig/PDMnPyiK5iRy8g1SLQMDyrbMl2mVQ2Bamh6LsXyl3rTu1I/ks9YgXXvLLbeszjYiaCtC6Fpw/fXXVz/0oQ9tnTlzZidCQCRDBe9FTg6NI4McCEfhNWA8QOsFRtET0R4iRzSHKLIM74h5ljqiz8vknN5JZV7g2A6iSbWgFy1adFgllOYBQSby9BWfKjMTwaW2rBC7UUCjC7PPRKs7Fajnn38+E7PUF7zIeb/wIqdy41G5V/mlrBIpCqal6dGY/Eh5paw39SXvP/gNXZZ/93d/tyTbgKDtCKEr4Dd+4zdWmsjdyk0nU6dObd50glNjvtUqx/WOg5MwjJPs3Lmzn8gRySFw9Xp9lc2/zJbTZfNW+W+eyRGVLzLWSYpzykllEjkntHVukbZ195hwLVWFpMpM++TzFtVmd5j6efQfjgMWYjd6aIhd1cp6l8oHZYdu9rTrXuZFzlte2cI/ZCrblFsaYFwDF0xP0yMx+Y4f9uNZr1Jtg/cb2+f6rl27lpnAR5dlmxJCl8D1uF/91V9dbiKX3XTiX85M65XrEBI5OS/IcXASTMKCOHLR3kdyVBSI3GOPPbZyx44de5966qkeqyT6rBVbs/91po4n5/OpHy/zwiYnxVi3F7jXX3999SuvvHLj448/fhuChDDZPi4tqpCA7srLL7+83zRvqgg5LnaclpqF2I0CXn311dt5kNzOa5XzzDss8QVMjT/ynHvf+FNZ8qay4pH4+LKM3xDRsQymCc3r86nhN0qV99PyzPsTlvqPHYPVd9xxR3xsuI3pX+rGOIjclVde2T1v3rwV6qrUxXYJHIYDeqfFibyT4ByKnoje1q9fn3X3IHK0kl988cWeJ598cmX25wS+fmDi2m0VyApfcaiiIE2RE2s75LwSP1JrJdf37dvXs2HDhtz1fvrTn67NmTNnHdcgqbi0v1Rm3FxzySWXZPNpXSxT+4mAsp9cj+R6I5UhNyuYkC/r6+uLCmIUYJH8OmuM1cgT2XPXLf7hxQ4oG5TzrVu39hM8+Yv3GZUllVU1yihTLD/9j1LweWBZQnmtwxvrw5SX38rkMyrbr7322qpbbrkl12eC9qF/aRnDXH311dVPfOIT684991yEpunAaRQnxxVynNRBqPz12MAzzzxT+elPf9oUuaeffnpAx+H1Yia22eu2zFYwjvX6SgO8E+Oocl7blrptR93W3/fGG28M6jtyn//852smaOtYBzfecGclFY66pLTfqiTyxI4uWcSOu05tXysWNS4xsYs3SLQ5jfK4lWu0lA09XkNDUBEe3Zj4CuUFf6Fx99xzzx1WZkFlKPUdfIa8ra85f/pfn/ewzDT1xrqUyvJEDkNwEXIbt2T16tVRftuc/BIzxuCmkwsvvHAdr7WSyHnHlchJaIR3FDmquggV4dBNyR1qP/nJT+o7duxYNhjByYOKxranSquabWtsyxymaTvMKftYr23DUX9S54YbbqhZVMn7O7PKTGJP5aUWOqjCGEjstm3bVtm0aVOIXZuzePHibhO6NXTnc80aEaBLX9EcvoJRTiR0ahhyQxYmgfLCI4FRGSIaZPn4oRe4NC2C5SpNjfWlJv/1Isd2sJ5LL70026e//du/nWvlN67PtTFjXuiuueaalZ/5zGdWqJWaXmTHYVXBy8nkON5BUpHzlf0TTzxRt4huiTl7WzjLl770pRqPVJx99tnZ4xTqvvWVF6jyaCV2dGPyXbLHHnssxK5NoUvfysFWxEeP2PhojrKBv/hozvsNjbI9e/ZU7r333mx5XnS8/xDNUXZadVsqzYPlpqnW5dcp8yKnMowh3ly60CM/zz77bO/Xvva1uOOyjRnTN6N8+ctfXmkV+mFvOsnrrpSDyWHyRA5HpUXKYwOvvfZaVsk/99xzdFcu2bBhQ9u0CB955JG6VWh9dkyyW8tVWaniSQ3yxjeizszsmHabbatWq3vNOi3S25v9MSg9c+fOvckiuC71dniBw09SgZPPqNxgiAeP0dDowV/y/IhGEn7I8iRSR2IsT2lqEjWZxI31YjTSMPaPLnvg2jT7aPtTPeusszoefvjhaKi1KWNS6GihfvGLX1x+4YUXriBqUSSHM6plKofFSam0QU4kR1ELEAdNRY6Hxbdu3dq7du3ay9uxUkfszMn7zMH7vc0+FbOBjP+o0rNju9QEdLlVIMs/8pGPrFy0aFG3DU+ZNWtWPYSvnOArJmprFcn5O5B9FJd2V3qRw4DpPK5jEVLmSxIdCQ1+xHokXN7wO6XK++FWpvV4Y53ehxmHgCNuwD7qBiwwoa/Z/H227dGF2YaMOaHDcT/96U+vmz9//lKuQ6lrjoKdihzOSmUNciq1BFOR43ocIkcXDZGcCcWqf/iHf2jrd+Jt2rSpbhVYnzUGjlrsfGXH/zlGNC5oNU+dOrXToumanYPlVpF0PP/889FiLhnnnXferXaequrx0DU5RXOpyPlyIv/BAB9iOpFhvV7PxEW+RI8Iy2Y5mlc+5/Mazsun5oVNxvpSkSN/wQUXZOVSXHbZZdl1SND6rZxW77777vgOYxsypoSOm0640WL27NncQZYVZImcnNY7qqCQy1FwEpxDLVAfyfEyZyK5hx9+eNU///M/j4pbkvmCslUafTNmzMjEzguXF7TU/HT/H44t1y15Jo+KjeNPapVprVqtdts5edSiu2g1lwBrFNbs3KxMfSWN5hAn3ziUqQwIiRL/1aMoiubwI9aRCpdERnmfYvik8hrOM8RMIqd1Mp518owo+6FtnTt3bjYuxfapag3kjh//+MfRIGszxozQ8Q05brDgdV66awzH9S1TnFUOKuRA3klofWJcONedlVTe27dvr5vIrf7BD34wqp67obvGKpdM7PwxUkVWZH665ue/VFQ8i8U5UIWJWb7TVlezyOH26MocWej5sPN201lnnXVYNMc5w/AZL3Sc27yyAZxzCRS+hHhu3ry5Gc0hOiyL6ZrX/ydNvfFfpTLWoVR+i6mRyni6UelZ0DaSUid86lOfag6zPo+VUx736Xv88cejMdZGjAmh4xtyV1111U3+TSc4rRe5vEjOO4+cBKckkpPI0SptfGW5vnHjxp7e3t5R+XApYmfHoM8aCkctdhrG+J4dFaiOvY6/LbvTjm/XE088EV1EI4g1RJaaryynUZjegOJFzp8/nUOVDc638AIl8VEvCL6EPzItFTR8T/9LTb7p81ieyEngSGlgcUcl++TLpkSOfWqF1R+1733ve/Fy5zZiVAsdrdKlS5dm35Cj/92LnCIJOSrOKcfEyTDvLKnI+ccH6oZVzKP+LSC868+OVY+J3XIJlsxXGEWm+UjpuvSVo5YDlhJNWNshXiE2EuA3VumvsYZIJ6LgG4bebzAaPTqPnD8vchjInxAk/AlDdOjyf+GFFzJ/4j+piKV5n3rTMuWrpPgredYjY7uJ4NgfXx4ROB5p4BNV7JPfdsH2C5vWeemll1bXrVsXn6VqE0at0OGs11xzzZo5c+ZwZ18WPahVKmf1kYkKthxSDlQkctxZicjx+MAzzzzDM2JjolJ++umn99rx6rGIbLkXKI6f0oGMc0GFw/+1DFCFyLG3Cmfpgw8+uCqbEAwrRHMmcN3H8jgB51nIpzD5FMJDRMebU1Lx0nA63hvLUSpjufJXlo+vsh26/odY+3LI8HnnnZe9qFxdmH7blXokeLbPXeYDfevXr48uzDZgVAqdviE3ffr0LkSOQu5FzrdEcU4V6FTkcBiJnL/pRA9C0523detWRG5MFXYvdlQMquB8RVFkTFe3kRc5kMhRWXG8bf6+uDFleKGBaD6yTjegEP34LsuiaM4Lnc41cE7lVxIkRIhGI13/GzZsaIqXN+YrSjGJmhc3zJZbNz+9bceOHVwrv9aErGZWnTlzZtbA4vIF1+bmz5+fvfmEnh72SdvsLQ8JHdj/anfccUd0YbYBbSt0OCSPCCxcuPB3Fy1atNRsuUVvNWuZXT579uxbeSiZ60BqkfprCz6SE6kzFomcnpHbsmVL79/8zd+05TNyQwFiZ8enZ9asWUcU2dGK5rEO4H+MA449poqLipAXQ1uLP7qHhhEeDp86dWrz4XDO12CiOZ1/nXshv5JvcW4VbZkf1e+7777L7Vzvs7LU1/C9qsqAN3xRKf9nPSaUdfPPjZb2ml+uNp9cbcu70Rqgt5vQZT0sJmTbbBu72QceJZJRJ/jtVSqDdDjFxnd+6EMfqn3/+9+P68klJ/8MlhTEzZyv2yrXxZbyqf+sgOJMau0hTDgRrUWGf+3Xfi27VRgH9a1PFWD+q/9jciy1OiVy6q7k4jnPyP3TP/1TvNHc4GXY11xzTfYybFrMRABUiqoMVYFwjEkROc6Bh3Pmj/HLL7+cvSPzwQcfXGuNibZ+FrGdwL9M2LbSQOQmFASB8+m7LtVYlHmfknAIiZz8CpHCpzjX9Ips2rRp2R//8R/nXtduvNs1Ez5SkH8bvMt10JG+7Ve3LW8N3ZO6jOFF3EeqvhFMeQXth+oG9oE6hoYvZXX9+vXx4ueS0xYRHQ740Y9+dPkVV1xx64IFC2rmiFUckQJL94qiNgouJsfEAekaQbQuvvjiZiH2Ipe2NvNETneHUahH0zNyQ8Hzzz9PRLvPWs5LfSWhikIp5yJP5EReZbhnz569dryjtTxMWDR367Rp05oNFi9wXghSgUvPucjzL0VzfMnjP/7H/1jYiOHcm7/t3b17d33nzp2Z2TAfC8aOqBeFm5qsnqjZPvER2dzt9tuvVAY+n2JC2W2NtJ6x2rvTDpRe6IgYPvvZz64zJ8zeZKKWphc3nNG3ONXFIiM6QPA++clPNgusb236SlYip6iQZ+QQuRdffHFUPiM3FCxatKjLbCnHD9KKj/PFeWO4CFWEtNg5/kR3VGwPPfRQCN0wYI1JhKDfw+H4lvcpRXGtxELgX/Ixzi2Gbyl637Jly40/+tGPhu0Grq1bt9LN3m370qkGmTeVVUx50Lgi2EemW+Ng+ezZs7vnz58/hWcPEdfGLEEJKLXQ6U0mFi1U1eXgndC3NlNHlOGQpFScfAD14x//eLZsiZwqWCppVbJe5Liz8oUXXhjVz8gdK1aBdNp5yu5uVQXIeUHcqDiJDgbCNzKoCDn2Vlnw1YcQuuMMPSZWWWcPh6u70osclvpWKhJeHKBVNGcNx/rXvva1Ye+StvL5qG17N3WF3wdtv98Pb550WHBsrOx2mtjVzB+WfuADH+ASy5TNmzdHl2YJKK3Q3XDDDdUPfehDXC/opLL0DuijNwqYCi5GRavKlkLrCzLXBR588MHKlVdeWShyVLKIIhUtd1ZS2Y6FZ+SOBWst1/ncEXez8YZ6XqFkTp41SjgnA0FlqHOgRsaePXu4hsOX2KOiOM4M9uHwIh+TiVbRHOfWysttFs0N+01G+LLVIx22XzXtD/vBtqf7gqApTa0IlsV+4ge2nk5rONQ+/OEPd1t23zPPPBMR3ghSSqEjkrv88sv5EGq/13WplYnldaWQUmBlKqhAivPRDYng8fwMlWteJKfHB3hAeiw9I3cs/NIv/VK3RdydnCMqR52TwUBF6BsaamRw0w+VU2O24DhANGd+ssYq5ezh8KIuS84nKecU8z7m/QxaRXOvvfZa/T/8h/8wYt92s/LUa+WU13jxEePcfdH+KJVBmqawr9zMQ0OB42gNB+7+XnrJJZfU7r///uidGCGKL5qMIJdeeil3SGUvXlZ3JS1NIjo5okwFKs3LmJ//YSyH5VlrsvL44483u8p8VyWRBDedmMDVTejG3DNyR8sLL7zQy3FEsDiuNCCo6AaCSlFRtVr93ATETQd27COaO/50W2OSuy0z/0nFTQ2WVBC8APhKX9EcpuvfiJ0alC+99NKIn9Mf/OAHS2w76tzhS+8N5ZYy58uuIlG2n3LM/giJIceC48PxomFAHUXPE400Guh05fOcHnd7Lly4sLZy5cp1jUUEw0zpIrrf/u3f7u7q6lrOjScIEwI1UDdK2iLzzieno7B6xzMhyx4YTZ+RQ+T4XMz/+l//a8w+I3c02Ll49IILLlhOhYnjc144F6S+IvRwXhTJ+Wiac2Ct3xuffvrpiKSPI0Rz5ld8hieroGkUel/L6zUp8jchf5Of0YjhHCua+/f//t+X4kvdRdfrtF/sk69LvIHSPCjHfNfOHz/y5htcjqndc889EdkNM6USOhzvs5/97IqZM2f2e2N6XjdKK6fDcDaQyEno1LrcuXNnFt2xDESOSI4bTzZu3Ljq29/+djy7dYTQKLBWa4dF4dn1D46rKgOdGw/nIS+i5hxwze8v//Iv4xwcZ/RwOH6g3hIJXSpy8rnU3/x5lcjha5xf+ZrOsZWR23p7e0vxAgC6xK0h3WH727xep33T/lF+tY+qV7S/Ktt5aBo9Ujp2On5Wj3FZpvbDH/4wxG4YKZXQfeELX+i66KKLslucdVHci5wvgL7gMV7DnjyR0/UCWpmIG61ZdVfGM3LHBt/p+vCHP1yzyqPKORGKpH1Dg+NPNE0FqJt/EDmui1olsCSi6eMLjUrzr7WU/6Jrc5ivqL0I5PmchC71NXVF/+M//uOyMp1X25bsep2JfL/n69g/v49pnaN99nkPx4A3yxAls0y/bFIT1uo555yz7aGHHooei2GiVEJ3/fXXZ9fmKCDqssTpaHHlFSjBNBVKORuWJ3JUsooknn322QrvwBut35EbCezY8kXyLnPuKsPpsVdXpRc53fxDJHfnnXfGddFhIH04XCLnozkqaFIqZ1XUMlX+wvsc51sNGs41lwZefPHF29asWVO6KGbLli091WqVLszs+Trtp8RO+1kkduDzguOI2BUdN2vIL73tttvipeXDRKmE7rd+67fW4ni0MHE8tSwHC4UIikTOCx0VLVGETefxgXhGboigxW5i1XPhhRd2mGPXdOwVRaviUxTHdVFEjgfyLZoOkRsGLJrj47YriebUc+KvzSFuMlX+qQCklb2EDn/DvJ9ZQ6Z+1113LWu8Rad02HF41OqZ3OfrvDil+56ahzsvqcP8MfP/5VjxqR9rXMe7XIeB0ggdz81ddNFFy2kF+S5LCseR4kVOQqcWpqI53YCyc+fOa61yjWfkhph169b1WgXSY+eh0455F9GbFzi6i0l37NhRv+OOO2788z//81J1a41W6LK0ijb34XBFc5hEThW/j0xUYQuJHD6nho2id6692jm+7S//8i9Le03Kyh3X66om9l3ab7+v3thvpToG/lgIji3H0y/D/4djZeO6vvOd70RUNwyURug++9nPdp1//vndul6gluWRQoGSwEnkFM2lUQVdZuaQPKsVFexxYMOGDXutJX+7RW091pq/fdeuXdu2b9/eV6/Xe+67777b/+iP/uhai/5Wx92Vw4ceDqdB2Sqak8gpmlNlnVbYUBTN0bghmrNzXNpoTthxWW51A3ehZvufCrvfd6Xgj4PyHEeiZWCclqHpvlEwe/bsbffee2+U/+PMkYdLxwkrWFU5lQrY0UKBSk3jBYUNoqvs+MMxvuWWW3q/+c1vrvyTP/mTlX/6p3+69rvf/W5E0cMM0ZxFcGsQOEVxPnrz/uf9MK3ovU9J5NSD4ntPaFC++uqrvdbYKb2P2b5VaWRzQ5R/vo59oHHM/tBY1v6xr+yz6hGOB8eH40UjIoXxHGeON0LIsaeRMXfu3MWNWYLjSGmEjoLgnUiOdDQU/dc7JWYFOEQuGDOYX6ygopXIUeGm3ZRpYzMVOaEKPvUpBEC9J2+++Wb9xz/+cVvcRm/7nEVzRGJcM6ZbPRU79smLnfZZx4LjQ1cwxzQPjivH2AveWWed1d2YHBxHSiN0FC4VmGNFzidTgZQjUkgbBTaELhgTEM1ZRd5NNKe7mVuJXCpwqYH3L+9Xiub27NnTe8cdd7TN223YL26G49gQ2XENn2uM3FAjofORXRrVcVxpRLRCx5jjzfEn5dw0JgfHidII3Z//+Z+vzSs8R0qesCll+Zgc0eaNC8HBmMDEq9llKaFD5CR0XuSKojkJnMDXvL/hYz6a+8lPftI2D0XbdmeNXvaRb1dyrHgvLlEd1/NTsVNdwj7zH6JBjutAcFx1nEkRu0WLFjWmBseL0ggdWGGqq7WEHQ0UPJkKIsvEKKAUVAosF8n74l2KwRiAxwlM0GqIG/6AOOVFc3kiJ4GTyJFK4CRy8jX5mKK522+/vW38y/a/LsFmv7q6uiqXXXZZti9FYgccU67JDRTJeTiG/hgHx59SHWUuXFOQfIvpSKCA6n+yVOQouHRHWOENkQtGJXSFmXXXarU1S5YsWXfaaaetI9qg7HOjBS9K4MXm3//+9yt33nln9ukqKnKJnSpgmRc64YXOi50aku32wVyrI7JGNvuhfeKFzJ/+9KcrH/3oR7M879/lGhwvmeA5OT5HxVucOGZHgm80AMcrOL6U6oHxqVOn7rMwnq8A9wvvUycrQoKGUXhwbIwLyoib3mnJh1R5OLnxtyAYFSBwvL/SogtevLDUKuEunpfjBgu9iAGjW07dmPgXIrdp0yY+i5RFLwsXLsx8z4uexE4CJ5FTY1I+x7J27NjR+1//639tq8sCc+bMmWL1zlIdF7oiiXoxhhE6RI2UeRC8o0UNAkWIv/u7v3tjY1JwnChVRPfXf/3XvS+//HIvzoJAUQgwHKoVOJ0EjgLkzYsdTozY7d69O67NBaMGBM4iD67BbbVoo5vPwhB1TJ8+vRmJ8MkYn2JMYx4+FMqHcqnIt2/fXvnv//2/V773ve81xU0mvNBhiubUuHzmmWfazr94aYTVO3X2gXqE/ZH5KI+8ho8Wf8ysToob4oaBUkV0YK3IPj73wnUD3yWQ53AqMF7k5GwYgokhbnrV1KOPPrqqt7f3zxqLCIK2xkRu5SmnnMJ7K7sQMa4X6Y0nMiISjO5LjGilyJhOlMddhz/5yU+y6I5x+J0ETiJHRU00h+F3+NquXbt6v/71r7dlQ3LGjBlT7HjVOFb0KvnrmL6HSdGur58GC/WVGuD0MlnD4rbvfve78Rqw40zphG7Tpk17r7jiir5JkyZ1q8tEjqXWFCYHyxM5ugSI4FKRe+qpp9beeeed0U0QtD1EcbzNY8qUKSuIzhA4dUsibjyMLHHzQkYFLlPXnCp05TUd33vooYeyZ8uI9kBC5/0Q38Pn8LcNGzYse+SRR9oySuFrBvPnz1/p38ykm3W8yKk7V3YkUFdRR1E/8azeY489duM999wTUd1xpnRCB9/73vfqXV1d26zALWU4dSwvcjiZWkgqQDgcrSW9U5HbhK1Arbr99ttD5IK2B5GzyneNiU83Iqfrb4icFzgvcq3EjbTIqOS5focPLViwoF80h+GDNDDxO6K5//yf/3NbXxawqDirdzhmHBtFcxii5oWOhoDSwUCdpcY4l1HseNW/9KUvRZ00DJRS6OCuu+7aeMkll/RZYetWNNdK4NSi1E0nvMeS7hfeiv/AAw+stkguvk4QtD2InEVYa0zManRV0k2JyEngfBQncfMiVyRmMip0n8r4XiNix5ezi6K5p556atmDDz7Y1tGJRXUb7bjydYeqjo0iOcyLmwRO41qhOkvHika4Rb7Xfv/7349obhgordABhcAKXI85bac5Vpdaj2oV0YqUeYEjinvppZfq5nirN2/efGNvb+9tjUUGQVtDd+Vpp53WjcgRySmKw/IiOAlcnsh5IVPUImOc764jtQgkEzeiyDSa27lzZ+8f/MEfjIqbvJ577rmec889l2t1h32QVQInkSPC9amfpga6GuVe5ExQ195www2rsxmD406phQ54A/7thjlXjxWWfVZwaogaBUZ3UVJwuA6H+PHJjccee2z1xo0bb7S/3RZfJghGCxbN1Uzc1qi7Utfj0q7KIxE4VeTeFL34vIbr9Xq2bITVV94mDst+8pOfjJroZNq0aX0mWF22r9nX8hG5NJIDdeX6ewj8TTocI98wp76iEf6FL3whHm8aRgbXuVwyrrvuuqo5WtWcOHtHXONaHB93jIfAg1EJXZYmYutmzpxZ5cYQ/y05BM6LmxcxCZQqalXWgopalXVaUau7TZcGaGDSY0JlffXVVzcr7u3bt/d+9atfHXUVN8d8zpw5a+bNm1fz10J997BvPEgQhY6njiHHzyLfujXAl/T09ESX5TDSlkIXBGMNq3S7TeTW8Oyb7rDUdTlFcYrgJHJphOYjEomdFzqJXVFEol4UrtUx36WXXppdJnj88ceX/Mmf/MmobWRee+21Ky+88MLs7lZF0v645wkdx5RjxDHk+HHsaIz/t//23+Ir+iNA6bsug2Cs07gBZR23+RPJqaJVZasKV2KnKMNHG6n4pSLoxVCpNy+OgOAhflaJ11esWDGq7xx86qmneu0Y9Nhx6bTBLhoCEjHfIFDkhvn7Bri7ksspN9xww7VxKWVkCKELgpLDV8GnTZu2FKHzkVx6TQ5RS4XuSEQOKxI4HwEqpRLfvXv3taPp2lwRCNT69etvN5HrMdtnxzu7V0DRLqbrlTQCXnvttfrrr7++9+GHH179la985dp77rknLquMINF1GQQl5zOf+cy6+fPn1+i21HWitNtS0RyChsClgpYnXqCuS6zVDRWKVhSpcPPXzp07K3fffffcsdoVR6RtDRDuF6hx3ZTjZ8e6bsenfvPNN4ewlYgQuiAoMVSmJnBb9S5Kf43IC52uz/koLo3a8iI0kMil1+kwbkjJuymFaI63DW3evHntX/zFXyxrLCoISkmpXuocBMFh5L57Me2WTE3RnB9WmkZ4DGu+1FiPTGLKtiCwRJUzZszobmxnEJSWELogKDEWeS32IifLEyWJW54hZgOB6DFv3rJlXvAkdldffXWtsYggKCUhdEFQYk455RSeF20KTSpggzHfTTkYJHgyL3J5Yjd//vzsedYgKCshdEFQYhC6ViKn62+pafrRkoqdTNuCIXREm1OmTFnc+FsQlJIQuiAoMSYkVQRG4pUKWpEhVMeKxI7lSehkEjuiu9NPPz26LoNSE0IXBCUGMfHipXQwNhSwHK0/NQmeRXbRdRmUmhC6ICgxqXgN1oYKru/55eaJHRYEZSaELghKjL+RhHxqiE+aJx1KJHKtjOf9GrMHQekIoQuCEsO7JEkRMCFh0zg/rHFDiRc0lp/miejiRcVBmQmhC4IS88477/TqjSV5pAKn9Hjhl688jxgEQZkJoQuCEsPrtngVl8TOv5tyOPFiKrQde/fujWguKDUhdEFQYvbv39/Hi5V5/6TELhU82fHGr0PrZFtsG0PoglITQhcEJaavr2+tviJAZJcKXp7oHQ/88rVOUrbJos6+xmxBUEpC6IKg5OzZs2ctXw9oJXbehlrsUnHD9IUDvmzw6quvxidpglITQhcEJWf79u19fCIHUZHYySQ6EiDZUKJlsh6ZRM62q/7Nb34zhC4oNSF0QVBy6L7kY56p2ElwvABJkIYSv3wJrL5Rt3fv3hC5oPSE0AVBG/Dss8+uevPNN3muLhOYNLrzYiQbCvzyUpHDnnnmmZ7GrEFQWkLogqANuOuuu9ZyLeytt97qJ3YSvFT0SI+1C5P/a5lah0SObdi9e3fvzTffHBFdUHpC6IKgTdi0adOqvXv3VhA7ujERm1TsZBKooxU7iZzEzQvc22+/ndljjz22qjF7EJSagT87HARBKdi2bVt91qxZHZMnT67xeRxevcWLlfVKLr2WK324mzzTBgsiJ8GUyCFwiCvdp/v27ats3bp17R//8R+vbvwlCEpNCF0QtBGPP/5476JFi2p8kFVCh0nMUpETPBpQNE3kdVXqWhwiRyT5xhtvVHbt2lX/nd/5nSWNvwVB6QmhC4I246GHHuq59NJLa3wHzkd0qZAhbt4QMp8qn95sokguT+R2795d/973vrds06ZN8TaUoG0IoQuCNmTChAl9kydP7po4cWJVIueRkHlBk0nYvLj5KM6LHNfiJHKvvPJKff369cv++q//Om5ACdqKELogaEO2bdu297777uu5+OKLayZ6VR/NFQncQCLnbzjRNblU5FavXh0iF7QdIXRB0Mb8+Mc/7qlWqx0nnXRSjeGjieAwRXAYAkckx5cTuPGEa3L333//km9+85sbs5UGQZsRQhcEbc7DDz/c29nZ2TNx4sQuG6xK6LzAYQiaFzjdUakoTgKnKG7Pnj31rVu3rv6d3/mdazds2LD3F2sLgvaj+BasIAjajuuvv7528cUXr5k8eXJ10qRJ2UdRLdrjml5munnFd3MiihJABM+Erm4i18tzcjfffHPcdBK0PSF0QTAKMcGrzp49u/uss866nkcREDs9e+eFTpEf44jgdu/e3XPnnXeu7evrC4ELRg0hdEEwyvnc5z5XnTZtWtVEj+fvELw5CJtFcdssgqvzhfC4ySQIgiAIgiAIgiAIgiAIgiAIgiAIgiAIgiAIgiAIgiAIgiAIgiAIgiAIgiAIgiAIgiAIgiAIgiAIgiAIgiAIgiAIgiAIgiAIgiAIgiAIgiAIgiAIgiAIgiAIgiAIgiAIgiAIgiAIgiAIgiAIgiAYpVQq/x+BgVqVYg546QAAAABJRU5ErkJggg==;" vertex="1" parent="1">
          <mxGeometry x="50" y="-3950.31" width="422" height="357.08" as="geometry" />
        </mxCell>
      </root>
    </mxGraphModel>
  </diagram>
</mxfile>
